%TF.GenerationSoftware,KiCad,Pcbnew,10.0.4*%
%TF.CreationDate,2026-08-04T13:15:35-03:00*%
%TF.ProjectId,Circuito_2_Leds_dos_crias_mecatronicos,43697263-7569-4746-9f5f-325f4c656473,rev?*%
%TF.SameCoordinates,Original*%
%TF.FileFunction,Legend,Top*%
%TF.FilePolarity,Positive*%
%FSLAX46Y46*%
G04 Gerber Fmt 4.6, Leading zero omitted, Abs format (unit mm)*
G04 Created by KiCad (PCBNEW 10.0.4) date 2026-08-04 13:15:35*
%MOMM*%
%LPD*%
G01*
G04 APERTURE LIST*
%ADD10C,0.150000*%
%ADD11C,0.120000*%
G04 APERTURE END LIST*
D10*
X157031905Y-80494819D02*
X157031905Y-79494819D01*
X157031905Y-79494819D02*
X157270000Y-79494819D01*
X157270000Y-79494819D02*
X157412857Y-79542438D01*
X157412857Y-79542438D02*
X157508095Y-79637676D01*
X157508095Y-79637676D02*
X157555714Y-79732914D01*
X157555714Y-79732914D02*
X157603333Y-79923390D01*
X157603333Y-79923390D02*
X157603333Y-80066247D01*
X157603333Y-80066247D02*
X157555714Y-80256723D01*
X157555714Y-80256723D02*
X157508095Y-80351961D01*
X157508095Y-80351961D02*
X157412857Y-80447200D01*
X157412857Y-80447200D02*
X157270000Y-80494819D01*
X157270000Y-80494819D02*
X157031905Y-80494819D01*
X157984286Y-79590057D02*
X158031905Y-79542438D01*
X158031905Y-79542438D02*
X158127143Y-79494819D01*
X158127143Y-79494819D02*
X158365238Y-79494819D01*
X158365238Y-79494819D02*
X158460476Y-79542438D01*
X158460476Y-79542438D02*
X158508095Y-79590057D01*
X158508095Y-79590057D02*
X158555714Y-79685295D01*
X158555714Y-79685295D02*
X158555714Y-79780533D01*
X158555714Y-79780533D02*
X158508095Y-79923390D01*
X158508095Y-79923390D02*
X157936667Y-80494819D01*
X157936667Y-80494819D02*
X158555714Y-80494819D01*
X143491905Y-80494819D02*
X143491905Y-79494819D01*
X143491905Y-79494819D02*
X143730000Y-79494819D01*
X143730000Y-79494819D02*
X143872857Y-79542438D01*
X143872857Y-79542438D02*
X143968095Y-79637676D01*
X143968095Y-79637676D02*
X144015714Y-79732914D01*
X144015714Y-79732914D02*
X144063333Y-79923390D01*
X144063333Y-79923390D02*
X144063333Y-80066247D01*
X144063333Y-80066247D02*
X144015714Y-80256723D01*
X144015714Y-80256723D02*
X143968095Y-80351961D01*
X143968095Y-80351961D02*
X143872857Y-80447200D01*
X143872857Y-80447200D02*
X143730000Y-80494819D01*
X143730000Y-80494819D02*
X143491905Y-80494819D01*
X145015714Y-80494819D02*
X144444286Y-80494819D01*
X144730000Y-80494819D02*
X144730000Y-79494819D01*
X144730000Y-79494819D02*
X144634762Y-79637676D01*
X144634762Y-79637676D02*
X144539524Y-79732914D01*
X144539524Y-79732914D02*
X144444286Y-79780533D01*
X145824819Y-98896666D02*
X145348628Y-99229999D01*
X145824819Y-99468094D02*
X144824819Y-99468094D01*
X144824819Y-99468094D02*
X144824819Y-99087142D01*
X144824819Y-99087142D02*
X144872438Y-98991904D01*
X144872438Y-98991904D02*
X144920057Y-98944285D01*
X144920057Y-98944285D02*
X145015295Y-98896666D01*
X145015295Y-98896666D02*
X145158152Y-98896666D01*
X145158152Y-98896666D02*
X145253390Y-98944285D01*
X145253390Y-98944285D02*
X145301009Y-98991904D01*
X145301009Y-98991904D02*
X145348628Y-99087142D01*
X145348628Y-99087142D02*
X145348628Y-99468094D01*
X145824819Y-97944285D02*
X145824819Y-98515713D01*
X145824819Y-98229999D02*
X144824819Y-98229999D01*
X144824819Y-98229999D02*
X144967676Y-98325237D01*
X144967676Y-98325237D02*
X145062914Y-98420475D01*
X145062914Y-98420475D02*
X145110533Y-98515713D01*
X159324819Y-98891666D02*
X158848628Y-99224999D01*
X159324819Y-99463094D02*
X158324819Y-99463094D01*
X158324819Y-99463094D02*
X158324819Y-99082142D01*
X158324819Y-99082142D02*
X158372438Y-98986904D01*
X158372438Y-98986904D02*
X158420057Y-98939285D01*
X158420057Y-98939285D02*
X158515295Y-98891666D01*
X158515295Y-98891666D02*
X158658152Y-98891666D01*
X158658152Y-98891666D02*
X158753390Y-98939285D01*
X158753390Y-98939285D02*
X158801009Y-98986904D01*
X158801009Y-98986904D02*
X158848628Y-99082142D01*
X158848628Y-99082142D02*
X158848628Y-99463094D01*
X158420057Y-98510713D02*
X158372438Y-98463094D01*
X158372438Y-98463094D02*
X158324819Y-98367856D01*
X158324819Y-98367856D02*
X158324819Y-98129761D01*
X158324819Y-98129761D02*
X158372438Y-98034523D01*
X158372438Y-98034523D02*
X158420057Y-97986904D01*
X158420057Y-97986904D02*
X158515295Y-97939285D01*
X158515295Y-97939285D02*
X158610533Y-97939285D01*
X158610533Y-97939285D02*
X158753390Y-97986904D01*
X158753390Y-97986904D02*
X159324819Y-98558332D01*
X159324819Y-98558332D02*
X159324819Y-97939285D01*
X131166666Y-78034819D02*
X131166666Y-78749104D01*
X131166666Y-78749104D02*
X131119047Y-78891961D01*
X131119047Y-78891961D02*
X131023809Y-78987200D01*
X131023809Y-78987200D02*
X130880952Y-79034819D01*
X130880952Y-79034819D02*
X130785714Y-79034819D01*
X132166666Y-79034819D02*
X131595238Y-79034819D01*
X131880952Y-79034819D02*
X131880952Y-78034819D01*
X131880952Y-78034819D02*
X131785714Y-78177676D01*
X131785714Y-78177676D02*
X131690476Y-78272914D01*
X131690476Y-78272914D02*
X131595238Y-78320533D01*
%TO.C,D2*%
D11*
X155210000Y-82455000D02*
X155210000Y-85545000D01*
X155210000Y-82455170D02*
G75*
G02*
X160760000Y-84000000I2560000J-1544830D01*
G01*
X160760000Y-84000000D02*
G75*
G02*
X155210000Y-85544830I-2990000J0D01*
G01*
X160270000Y-84000000D02*
G75*
G02*
X155270000Y-84000000I-2500000J0D01*
G01*
X155270000Y-84000000D02*
G75*
G02*
X160270000Y-84000000I2500000J0D01*
G01*
%TO.C,D1*%
X141670000Y-82455000D02*
X141670000Y-85545000D01*
X141670000Y-82455170D02*
G75*
G02*
X147220000Y-84000000I2560000J-1544830D01*
G01*
X147220000Y-84000000D02*
G75*
G02*
X141670000Y-85544830I-2990000J0D01*
G01*
X146730000Y-84000000D02*
G75*
G02*
X141730000Y-84000000I-2500000J0D01*
G01*
X141730000Y-84000000D02*
G75*
G02*
X146730000Y-84000000I2500000J0D01*
G01*
%TO.C,R1*%
X143000000Y-98830000D02*
X143000000Y-98900000D01*
X144370000Y-97460000D02*
G75*
G02*
X141630000Y-97460000I-1370000J0D01*
G01*
X141630000Y-97460000D02*
G75*
G02*
X144370000Y-97460000I1370000J0D01*
G01*
%TO.C,R2*%
X156500000Y-98825000D02*
X156500000Y-98895000D01*
X157870000Y-97455000D02*
G75*
G02*
X155130000Y-97455000I-1370000J0D01*
G01*
X155130000Y-97455000D02*
G75*
G02*
X157870000Y-97455000I1370000J0D01*
G01*
%TO.C,J1*%
X130120000Y-79580000D02*
X131500000Y-79580000D01*
X130120000Y-80960000D02*
X130120000Y-79580000D01*
X130120000Y-82230000D02*
X130120000Y-84880000D01*
X130120000Y-82230000D02*
X132880000Y-82230000D01*
X130120000Y-84880000D02*
X132880000Y-84880000D01*
X132880000Y-82230000D02*
X132880000Y-84880000D01*
%TD*%
M02*
