  0
SECTION
  2
HEADER
  9
$ACADVER
  1
AC1018
  9
$HANDSEED
  5
FFFFFFFF
  9
$ANGBASE
  50
0.0
  9
$ANGDIR
  70
1
  9
$MEASUREMENT
  70
0
  9
$INSUNITS
  70
1
  0
ENDSEC
  0
SECTION
  2
TABLES
  0
TABLE
  2
APPID
  5
1
330
0
100
AcDbSymbolTable
 70
1
  0
APPID
  5
2
330
1
100
AcDbSymbolTableRecord
100
AcDbRegAppTableRecord
  2
ACAD
 70
0
  0
ENDTAB
  0
TABLE
  2
LTYPE
  5
3
330
0
100
AcDbSymbolTable
 70
6
  0
LTYPE
  5
4
330
3
100
AcDbSymbolTableRecord
100
AcDbLinetypeTableRecord
  2
ByBlock
 70
0
  3

 72
65
 73
0
 40
0
  0
LTYPE
  5
5
330
3
100
AcDbSymbolTableRecord
100
AcDbLinetypeTableRecord
  2
ByLayer
 70
0
  3

 72
65
 73
0
 40
0
  0
LTYPE
  5
6
330
3
100
AcDbSymbolTableRecord
100
AcDbLinetypeTableRecord
  2
CONTINUOUS
 70
0
  3
Solid line
 72
65
 73
0
 40
0
  0
LTYPE
  5
7
330
3
100
AcDbSymbolTableRecord
100
AcDbLinetypeTableRecord
  2
DASHDOT
 70
0
  3
Dash Dot ____ _ ____ _
 72
65
 73
4
 40
2
 49
1.25
 74
0
 49
-0.25
 74
0
 49
0.25
 74
0
 49
-0.25
 74
0
  0
LTYPE
  5
8
330
3
100
AcDbSymbolTableRecord
100
AcDbLinetypeTableRecord
  2
DASHED
 70
0
  3
Dashed __ __ __ __ __
 72
65
 73
2
 40
0.75
 49
0.5
 74
0
 49
-0.25
 74
0
  0
LTYPE
  5
9
330
3
100
AcDbSymbolTableRecord
100
AcDbLinetypeTableRecord
  2
DOTTED
 70
0
  3
Dotted .  .  .  .
 72
65
 73
2
 40
0.2
 49
0.0
 74
0
 49
-0.2
 74
0
  0
ENDTAB
  0
TABLE
  2
STYLE
  5
A
330
0
100
AcDbSymbolTable
 70
4
  0
STYLE
  5
B
330
A
100
AcDbSymbolTableRecord
100
AcDbTextStyleTableRecord
  2
KICAD
 70
0
 40
0
 41
1
 42
1
 50
0
 71
0
  3
isocp.shx
  0
STYLE
  5
C
330
A
100
AcDbSymbolTableRecord
100
AcDbTextStyleTableRecord
  2
KICADB
 70
0
 40
0
 41
1
 42
1
 50
0
 71
0
  3
isocp.shx
  0
STYLE
  5
D
330
A
100
AcDbSymbolTableRecord
100
AcDbTextStyleTableRecord
  2
KICADI
 70
0
 40
0
 41
1
 42
1
 50
15
 71
0
  3
isocp.shx
  0
STYLE
  5
E
330
A
100
AcDbSymbolTableRecord
100
AcDbTextStyleTableRecord
  2
KICADBI
 70
0
 40
0
 41
1
 42
1
 50
15
 71
0
  3
isocp.shx
  0
ENDTAB
  0
TABLE
  2
LAYER
  5
F
330
0
100
AcDbSymbolTable
 70
10
  0
LAYER
  5
12
330
F
100
AcDbSymbolTableRecord
100
AcDbLayerTableRecord
  2
0
 70
0
 62
7
  6
CONTINUOUS
390
10
  0
LAYER
  5
13
330
F
100
AcDbSymbolTableRecord
100
AcDbLayerTableRecord
  2
F.Cu
 70
0
 62
13
420
13120564
  6
CONTINUOUS
390
10
  0
LAYER
  5
14
330
F
100
AcDbSymbolTableRecord
100
AcDbLayerTableRecord
  2
B.Cu
 70
0
 62
153
420
5078980
  6
CONTINUOUS
390
10
  0
LAYER
  5
15
330
F
100
AcDbSymbolTableRecord
100
AcDbLayerTableRecord
  2
F.Paste
 70
0
 62
253
420
11837594
  6
CONTINUOUS
390
10
  0
LAYER
  5
16
330
F
100
AcDbSymbolTableRecord
100
AcDbLayerTableRecord
  2
B.Paste
 70
0
 62
132
420
49858
  6
CONTINUOUS
390
10
  0
LAYER
  5
17
330
F
100
AcDbSymbolTableRecord
100
AcDbLayerTableRecord
  2
F.Silkscreen
 70
0
 62
41
420
15920545
  6
CONTINUOUS
390
10
  0
LAYER
  5
18
330
F
100
AcDbSymbolTableRecord
100
AcDbLayerTableRecord
  2
B.Silkscreen
 70
0
 62
31
420
15250087
  6
CONTINUOUS
390
10
  0
LAYER
  5
19
330
F
100
AcDbSymbolTableRecord
100
AcDbLayerTableRecord
  2
F.Mask
 70
0
 62
201
420
14181631
  6
CONTINUOUS
390
10
  0
LAYER
  5
1A
330
F
100
AcDbSymbolTableRecord
100
AcDbLayerTableRecord
  2
B.Mask
 70
0
 62
4
420
196590
  6
CONTINUOUS
390
10
  0
LAYER
  5
1B
330
F
100
AcDbSymbolTableRecord
100
AcDbLayerTableRecord
  2
Edge.Cuts
 70
0
 62
254
420
13685453
  6
CONTINUOUS
390
10
  0
ENDTAB
  0
TABLE
  2
VPORT
  5
1C
330
0
100
AcDbSymbolTable
 70
0
  0
ENDTAB
  0
TABLE
  2
VIEW
  5
1D
330
0
100
AcDbSymbolTable
 70
0
  0
ENDTAB
  0
TABLE
  2
UCS
  5
1E
330
0
100
AcDbSymbolTable
 70
0
  0
ENDTAB
  0
TABLE
  2
DIMSTYLE
  5
1F
330
0
100
AcDbSymbolTable
 70
1
100
AcDbDimStyleTable
 71
0
  0
DIMSTYLE
105
20
330
1F
100
AcDbSymbolTableRecord
100
AcDbDimStyleTableRecord
  2
Standard
 70
0
  0
ENDTAB
  0
TABLE
  2
BLOCK_RECORD
  5
21
330
0
100
AcDbSymbolTable
 70
3
  0
BLOCK_RECORD
  5
22
330
21
100
AcDbSymbolTableRecord
100
AcDbBlockTableRecord
  2
*Model_Space
340
25
 70
0
280
1
281
0
  0
BLOCK_RECORD
  5
23
330
21
100
AcDbSymbolTableRecord
100
AcDbBlockTableRecord
  2
*Paper_Space
340
26
 70
0
280
1
281
0
  0
BLOCK_RECORD
  5
24
330
21
100
AcDbSymbolTableRecord
100
AcDbBlockTableRecord
  2
*Paper_Space0
340
27
 70
0
280
1
281
0
  0
ENDTAB
  0
ENDSEC
  0
SECTION
  2
BLOCKS
  0
BLOCK
  5
2B
330
22
100
AcDbEntity
  8
0
100
AcDbBlockBegin
  2
*Model_Space
 70
0
 10
0.0
 20
0.0
 30
0.0
  3
*Model_Space
  1

  0
ENDBLK
  5
2A
330
22
100
AcDbEntity
  8
0
100
AcDbBlockEnd
  0
BLOCK
  5
2D
330
23
100
AcDbEntity
 67
1
  8
0
100
AcDbBlockBegin
  2
*Paper_Space
 70
0
 10
0.0
 20
0.0
 30
0.0
  3
*Paper_Space
  1

  0
ENDBLK
  5
2C
330
23
100
AcDbEntity
 67
1
  8
0
100
AcDbBlockEnd
  0
BLOCK
  5
2F
330
24
100
AcDbEntity
 67
1
  8
0
100
AcDbBlockBegin
  2
*Paper_Space0
 70
0
 10
0.0
 20
0.0
 30
0.0
  3
*Paper_Space0
  1

  0
ENDBLK
  5
2E
330
24
100
AcDbEntity
 67
1
  8
0
100
AcDbBlockEnd
  0
ENDSEC
  0
SECTION
  2
ENTITIES
  0
LINE
  5
30
330
22
100
AcDbEntity
  8
B.Cu
  6
CONTINUOUS
100
AcDbLine
 10
5.6390640944881891
 20
-3.9068680314960629
 30
0
 11
5.6447683858267714
 21
-3.9092308267716533
 31
0
  0
LINE
  5
31
330
22
100
AcDbEntity
  8
B.Cu
  6
CONTINUOUS
100
AcDbLine
 10
5.6447683858267714
 20
-3.9092308267716533
 30
0
 11
5.6499021653543302
 21
-3.9126611023622044
 31
0
  0
LINE
  5
32
330
22
100
AcDbEntity
  8
B.Cu
  6
CONTINUOUS
100
AcDbLine
 10
5.6499021653543302
 20
-3.9126611023622044
 30
0
 11
5.6542680314960627
 21
-3.9170269685039369
 31
0
  0
LINE
  5
33
330
22
100
AcDbEntity
  8
B.Cu
  6
CONTINUOUS
100
AcDbLine
 10
5.6542680314960627
 20
-3.9170269685039369
 30
0
 11
5.6576983070866138
 21
-3.9221607480314962
 31
0
  0
LINE
  5
34
330
22
100
AcDbEntity
  8
B.Cu
  6
CONTINUOUS
100
AcDbLine
 10
5.6576983070866138
 20
-3.9221607480314962
 30
0
 11
5.6600611023622047
 21
-3.9278650393700785
 31
0
  0
LINE
  5
35
330
22
100
AcDbEntity
  8
B.Cu
  6
CONTINUOUS
100
AcDbLine
 10
5.6600611023622047
 20
-3.9278650393700785
 30
0
 11
5.6612656692913381
 21
-3.9339207086614172
 31
0
  0
LINE
  5
36
330
22
100
AcDbEntity
  8
B.Cu
  6
CONTINUOUS
100
AcDbLine
 10
5.6612656692913381
 20
-3.9339207086614172
 30
0
 11
5.6612656692913381
 21
-3.9400950393700787
 31
0
  0
LINE
  5
37
330
22
100
AcDbEntity
  8
B.Cu
  6
CONTINUOUS
100
AcDbLine
 10
5.6612656692913381
 20
-3.9400950393700787
 30
0
 11
5.6600611023622047
 21
-3.9461507086614174
 31
0
  0
LINE
  5
38
330
22
100
AcDbEntity
  8
B.Cu
  6
CONTINUOUS
100
AcDbLine
 10
5.6600611023622047
 20
-3.9461507086614174
 30
0
 11
5.6576983070866138
 21
-3.9518550000000001
 31
0
  0
LINE
  5
39
330
22
100
AcDbEntity
  8
B.Cu
  6
CONTINUOUS
100
AcDbLine
 10
5.6576983070866138
 20
-3.9518550000000001
 30
0
 11
5.6542680314960627
 21
-3.9569887795275589
 31
0
  0
LINE
  5
3A
330
22
100
AcDbEntity
  8
B.Cu
  6
CONTINUOUS
100
AcDbLine
 10
5.6542680314960627
 20
-3.9569887795275589
 30
0
 11
5.6499021653543302
 21
-3.9613546456692914
 31
0
  0
LINE
  5
3B
330
22
100
AcDbEntity
  8
B.Cu
  6
CONTINUOUS
100
AcDbLine
 10
5.6499021653543302
 20
-3.9613546456692914
 30
0
 11
5.6447683858267714
 21
-3.9647849212598425
 31
0
  0
LINE
  5
3C
330
22
100
AcDbEntity
  8
B.Cu
  6
CONTINUOUS
100
AcDbLine
 10
5.6447683858267714
 20
-3.9647849212598425
 30
0
 11
5.6390640944881891
 21
-3.967147716535433
 31
0
  0
LINE
  5
3D
330
22
100
AcDbEntity
  8
B.Cu
  6
CONTINUOUS
100
AcDbLine
 10
5.6390640944881891
 20
-3.967147716535433
 30
0
 11
5.6330084251968504
 21
-3.9683522834645668
 31
0
  0
LINE
  5
3E
330
22
100
AcDbEntity
  8
B.Cu
  6
CONTINUOUS
100
AcDbLine
 10
5.6330084251968504
 20
-3.9683522834645668
 30
0
 11
5.6268340944881885
 21
-3.9683522834645668
 31
0
  0
LINE
  5
3F
330
22
100
AcDbEntity
  8
B.Cu
  6
CONTINUOUS
100
AcDbLine
 10
5.6268340944881885
 20
-3.9683522834645668
 30
0
 11
5.6207784251968507
 21
-3.967147716535433
 31
0
  0
LINE
  5
40
330
22
100
AcDbEntity
  8
B.Cu
  6
CONTINUOUS
100
AcDbLine
 10
5.6207784251968507
 20
-3.967147716535433
 30
0
 11
5.6150741338582675
 21
-3.9647849212598425
 31
0
  0
LINE
  5
41
330
22
100
AcDbEntity
  8
B.Cu
  6
CONTINUOUS
100
AcDbLine
 10
5.6150741338582675
 20
-3.9647849212598425
 30
0
 11
5.6099403543307087
 21
-3.9613546456692914
 31
0
  0
LINE
  5
42
330
22
100
AcDbEntity
  8
B.Cu
  6
CONTINUOUS
100
AcDbLine
 10
5.6099403543307087
 20
-3.9613546456692914
 30
0
 11
5.6055744881889762
 21
-3.9569887795275589
 31
0
  0
LINE
  5
43
330
22
100
AcDbEntity
  8
B.Cu
  6
CONTINUOUS
100
AcDbLine
 10
5.6055744881889762
 20
-3.9569887795275589
 30
0
 11
5.6021442125984251
 21
-3.9518550000000001
 31
0
  0
LINE
  5
44
330
22
100
AcDbEntity
  8
B.Cu
  6
CONTINUOUS
100
AcDbLine
 10
5.6021442125984251
 20
-3.9518550000000001
 30
0
 11
5.5997814173228342
 21
-3.9461507086614174
 31
0
  0
LINE
  5
45
330
22
100
AcDbEntity
  8
B.Cu
  6
CONTINUOUS
100
AcDbLine
 10
5.5997814173228342
 20
-3.9461507086614174
 30
0
 11
5.5985768503937008
 21
-3.9400950393700787
 31
0
  0
LINE
  5
46
330
22
100
AcDbEntity
  8
B.Cu
  6
CONTINUOUS
100
AcDbLine
 10
5.5985768503937008
 20
-3.9400950393700787
 30
0
 11
5.5985768503937008
 21
-3.9339207086614172
 31
0
  0
LINE
  5
47
330
22
100
AcDbEntity
  8
B.Cu
  6
CONTINUOUS
100
AcDbLine
 10
5.5985768503937008
 20
-3.9339207086614172
 30
0
 11
5.5997814173228342
 21
-3.9278650393700785
 31
0
  0
LINE
  5
48
330
22
100
AcDbEntity
  8
B.Cu
  6
CONTINUOUS
100
AcDbLine
 10
5.5997814173228342
 20
-3.9278650393700785
 30
0
 11
5.6021442125984251
 21
-3.9221607480314962
 31
0
  0
LINE
  5
49
330
22
100
AcDbEntity
  8
B.Cu
  6
CONTINUOUS
100
AcDbLine
 10
5.6021442125984251
 20
-3.9221607480314962
 30
0
 11
5.6055744881889762
 21
-3.9170269685039369
 31
0
  0
LINE
  5
4A
330
22
100
AcDbEntity
  8
B.Cu
  6
CONTINUOUS
100
AcDbLine
 10
5.6055744881889762
 20
-3.9170269685039369
 30
0
 11
5.6099403543307087
 21
-3.9126611023622044
 31
0
  0
LINE
  5
4B
330
22
100
AcDbEntity
  8
B.Cu
  6
CONTINUOUS
100
AcDbLine
 10
5.6099403543307087
 20
-3.9126611023622044
 30
0
 11
5.6150741338582675
 21
-3.9092308267716533
 31
0
  0
LINE
  5
4C
330
22
100
AcDbEntity
  8
B.Cu
  6
CONTINUOUS
100
AcDbLine
 10
5.6150741338582675
 20
-3.9092308267716533
 30
0
 11
5.6207784251968507
 21
-3.9068680314960629
 31
0
  0
LINE
  5
4D
330
22
100
AcDbEntity
  8
B.Cu
  6
CONTINUOUS
100
AcDbLine
 10
5.6207784251968507
 20
-3.9068680314960629
 30
0
 11
5.6268340944881885
 21
-3.905663464566929
 31
0
  0
LINE
  5
4E
330
22
100
AcDbEntity
  8
B.Cu
  6
CONTINUOUS
100
AcDbLine
 10
5.6268340944881885
 20
-3.905663464566929
 30
0
 11
5.6330084251968504
 21
-3.905663464566929
 31
0
  0
LINE
  5
4F
330
22
100
AcDbEntity
  8
B.Cu
  6
CONTINUOUS
100
AcDbLine
 10
5.6330084251968504
 20
-3.905663464566929
 30
0
 11
5.6390640944881891
 21
-3.9068680314960629
 31
0
  0
LINE
  5
50
330
22
100
AcDbEntity
  8
B.Cu
  6
CONTINUOUS
100
AcDbLine
 10
5.6390640944881891
 20
-3.8068680314960628
 30
0
 11
5.6447683858267714
 21
-3.8092308267716533
 31
0
  0
LINE
  5
51
330
22
100
AcDbEntity
  8
B.Cu
  6
CONTINUOUS
100
AcDbLine
 10
5.6447683858267714
 20
-3.8092308267716533
 30
0
 11
5.6499021653543302
 21
-3.8126611023622048
 31
0
  0
LINE
  5
52
330
22
100
AcDbEntity
  8
B.Cu
  6
CONTINUOUS
100
AcDbLine
 10
5.6499021653543302
 20
-3.8126611023622048
 30
0
 11
5.6542680314960627
 21
-3.8170269685039369
 31
0
  0
LINE
  5
53
330
22
100
AcDbEntity
  8
B.Cu
  6
CONTINUOUS
100
AcDbLine
 10
5.6542680314960627
 20
-3.8170269685039369
 30
0
 11
5.6576983070866138
 21
-3.8221607480314961
 31
0
  0
LINE
  5
54
330
22
100
AcDbEntity
  8
B.Cu
  6
CONTINUOUS
100
AcDbLine
 10
5.6576983070866138
 20
-3.8221607480314961
 30
0
 11
5.6600611023622047
 21
-3.8278650393700788
 31
0
  0
LINE
  5
55
330
22
100
AcDbEntity
  8
B.Cu
  6
CONTINUOUS
100
AcDbLine
 10
5.6600611023622047
 20
-3.8278650393700788
 30
0
 11
5.6612656692913381
 21
-3.8339207086614171
 31
0
  0
LINE
  5
56
330
22
100
AcDbEntity
  8
B.Cu
  6
CONTINUOUS
100
AcDbLine
 10
5.6612656692913381
 20
-3.8339207086614171
 30
0
 11
5.6612656692913381
 21
-3.8400950393700786
 31
0
  0
LINE
  5
57
330
22
100
AcDbEntity
  8
B.Cu
  6
CONTINUOUS
100
AcDbLine
 10
5.6612656692913381
 20
-3.8400950393700786
 30
0
 11
5.6600611023622047
 21
-3.8461507086614173
 31
0
  0
LINE
  5
58
330
22
100
AcDbEntity
  8
B.Cu
  6
CONTINUOUS
100
AcDbLine
 10
5.6600611023622047
 20
-3.8461507086614173
 30
0
 11
5.6576983070866138
 21
-3.851855
 31
0
  0
LINE
  5
59
330
22
100
AcDbEntity
  8
B.Cu
  6
CONTINUOUS
100
AcDbLine
 10
5.6576983070866138
 20
-3.851855
 30
0
 11
5.6542680314960627
 21
-3.8569887795275588
 31
0
  0
LINE
  5
5A
330
22
100
AcDbEntity
  8
B.Cu
  6
CONTINUOUS
100
AcDbLine
 10
5.6542680314960627
 20
-3.8569887795275588
 30
0
 11
5.6499021653543302
 21
-3.8613546456692913
 31
0
  0
LINE
  5
5B
330
22
100
AcDbEntity
  8
B.Cu
  6
CONTINUOUS
100
AcDbLine
 10
5.6499021653543302
 20
-3.8613546456692913
 30
0
 11
5.6447683858267714
 21
-3.8647849212598424
 31
0
  0
LINE
  5
5C
330
22
100
AcDbEntity
  8
B.Cu
  6
CONTINUOUS
100
AcDbLine
 10
5.6447683858267714
 20
-3.8647849212598424
 30
0
 11
5.6390640944881891
 21
-3.8671477165354329
 31
0
  0
LINE
  5
5D
330
22
100
AcDbEntity
  8
B.Cu
  6
CONTINUOUS
100
AcDbLine
 10
5.6390640944881891
 20
-3.8671477165354329
 30
0
 11
5.6330084251968504
 21
-3.8683522834645667
 31
0
  0
LINE
  5
5E
330
22
100
AcDbEntity
  8
B.Cu
  6
CONTINUOUS
100
AcDbLine
 10
5.6330084251968504
 20
-3.8683522834645667
 30
0
 11
5.6268340944881885
 21
-3.8683522834645667
 31
0
  0
LINE
  5
5F
330
22
100
AcDbEntity
  8
B.Cu
  6
CONTINUOUS
100
AcDbLine
 10
5.6268340944881885
 20
-3.8683522834645667
 30
0
 11
5.6207784251968507
 21
-3.8671477165354329
 31
0
  0
LINE
  5
60
330
22
100
AcDbEntity
  8
B.Cu
  6
CONTINUOUS
100
AcDbLine
 10
5.6207784251968507
 20
-3.8671477165354329
 30
0
 11
5.6150741338582675
 21
-3.8647849212598424
 31
0
  0
LINE
  5
61
330
22
100
AcDbEntity
  8
B.Cu
  6
CONTINUOUS
100
AcDbLine
 10
5.6150741338582675
 20
-3.8647849212598424
 30
0
 11
5.6099403543307087
 21
-3.8613546456692913
 31
0
  0
LINE
  5
62
330
22
100
AcDbEntity
  8
B.Cu
  6
CONTINUOUS
100
AcDbLine
 10
5.6099403543307087
 20
-3.8613546456692913
 30
0
 11
5.6055744881889762
 21
-3.8569887795275588
 31
0
  0
LINE
  5
63
330
22
100
AcDbEntity
  8
B.Cu
  6
CONTINUOUS
100
AcDbLine
 10
5.6055744881889762
 20
-3.8569887795275588
 30
0
 11
5.6021442125984251
 21
-3.851855
 31
0
  0
LINE
  5
64
330
22
100
AcDbEntity
  8
B.Cu
  6
CONTINUOUS
100
AcDbLine
 10
5.6021442125984251
 20
-3.851855
 30
0
 11
5.5997814173228342
 21
-3.8461507086614173
 31
0
  0
LINE
  5
65
330
22
100
AcDbEntity
  8
B.Cu
  6
CONTINUOUS
100
AcDbLine
 10
5.5997814173228342
 20
-3.8461507086614173
 30
0
 11
5.5985768503937008
 21
-3.8400950393700786
 31
0
  0
LINE
  5
66
330
22
100
AcDbEntity
  8
B.Cu
  6
CONTINUOUS
100
AcDbLine
 10
5.5985768503937008
 20
-3.8400950393700786
 30
0
 11
5.5985768503937008
 21
-3.8339207086614171
 31
0
  0
LINE
  5
67
330
22
100
AcDbEntity
  8
B.Cu
  6
CONTINUOUS
100
AcDbLine
 10
5.5985768503937008
 20
-3.8339207086614171
 30
0
 11
5.5997814173228342
 21
-3.8278650393700788
 31
0
  0
LINE
  5
68
330
22
100
AcDbEntity
  8
B.Cu
  6
CONTINUOUS
100
AcDbLine
 10
5.5997814173228342
 20
-3.8278650393700788
 30
0
 11
5.6021442125984251
 21
-3.8221607480314961
 31
0
  0
LINE
  5
69
330
22
100
AcDbEntity
  8
B.Cu
  6
CONTINUOUS
100
AcDbLine
 10
5.6021442125984251
 20
-3.8221607480314961
 30
0
 11
5.6055744881889762
 21
-3.8170269685039369
 31
0
  0
LINE
  5
6A
330
22
100
AcDbEntity
  8
B.Cu
  6
CONTINUOUS
100
AcDbLine
 10
5.6055744881889762
 20
-3.8170269685039369
 30
0
 11
5.6099403543307087
 21
-3.8126611023622048
 31
0
  0
LINE
  5
6B
330
22
100
AcDbEntity
  8
B.Cu
  6
CONTINUOUS
100
AcDbLine
 10
5.6099403543307087
 20
-3.8126611023622048
 30
0
 11
5.6150741338582675
 21
-3.8092308267716533
 31
0
  0
LINE
  5
6C
330
22
100
AcDbEntity
  8
B.Cu
  6
CONTINUOUS
100
AcDbLine
 10
5.6150741338582675
 20
-3.8092308267716533
 30
0
 11
5.6207784251968507
 21
-3.8068680314960628
 31
0
  0
LINE
  5
6D
330
22
100
AcDbEntity
  8
B.Cu
  6
CONTINUOUS
100
AcDbLine
 10
5.6207784251968507
 20
-3.8068680314960628
 30
0
 11
5.6268340944881885
 21
-3.8056634645669289
 31
0
  0
LINE
  5
6E
330
22
100
AcDbEntity
  8
B.Cu
  6
CONTINUOUS
100
AcDbLine
 10
5.6268340944881885
 20
-3.8056634645669289
 30
0
 11
5.6330084251968504
 21
-3.8056634645669289
 31
0
  0
LINE
  5
6F
330
22
100
AcDbEntity
  8
B.Cu
  6
CONTINUOUS
100
AcDbLine
 10
5.6330084251968504
 20
-3.8056634645669289
 30
0
 11
5.6390640944881891
 21
-3.8068680314960628
 31
0
  0
LINE
  5
70
330
22
100
AcDbEntity
  8
B.Cu
  6
CONTINUOUS
100
AcDbLine
 10
6.1705601574803151
 20
-3.9066711811023622
 30
0
 11
6.1762644488188974
 21
-3.9090339763779527
 31
0
  0
LINE
  5
71
330
22
100
AcDbEntity
  8
B.Cu
  6
CONTINUOUS
100
AcDbLine
 10
6.1762644488188974
 20
-3.9090339763779527
 30
0
 11
6.1813982283464561
 21
-3.9124642519685038
 31
0
  0
LINE
  5
72
330
22
100
AcDbEntity
  8
B.Cu
  6
CONTINUOUS
100
AcDbLine
 10
6.1813982283464561
 20
-3.9124642519685038
 30
0
 11
6.1857640944881886
 21
-3.9168301181102363
 31
0
  0
LINE
  5
73
330
22
100
AcDbEntity
  8
B.Cu
  6
CONTINUOUS
100
AcDbLine
 10
6.1857640944881886
 20
-3.9168301181102363
 30
0
 11
6.1891943700787397
 21
-3.9219638976377951
 31
0
  0
LINE
  5
74
330
22
100
AcDbEntity
  8
B.Cu
  6
CONTINUOUS
100
AcDbLine
 10
6.1891943700787397
 20
-3.9219638976377951
 30
0
 11
6.1915571653543306
 21
-3.9276681889763778
 31
0
  0
LINE
  5
75
330
22
100
AcDbEntity
  8
B.Cu
  6
CONTINUOUS
100
AcDbLine
 10
6.1915571653543306
 20
-3.9276681889763778
 30
0
 11
6.192761732283464
 21
-3.9337238582677165
 31
0
  0
LINE
  5
76
330
22
100
AcDbEntity
  8
B.Cu
  6
CONTINUOUS
100
AcDbLine
 10
6.192761732283464
 20
-3.9337238582677165
 30
0
 11
6.192761732283464
 21
-3.939898188976378
 31
0
  0
LINE
  5
77
330
22
100
AcDbEntity
  8
B.Cu
  6
CONTINUOUS
100
AcDbLine
 10
6.192761732283464
 20
-3.939898188976378
 30
0
 11
6.1915571653543306
 21
-3.9459538582677163
 31
0
  0
LINE
  5
78
330
22
100
AcDbEntity
  8
B.Cu
  6
CONTINUOUS
100
AcDbLine
 10
6.1915571653543306
 20
-3.9459538582677163
 30
0
 11
6.1891943700787397
 21
-3.951658149606299
 31
0
  0
LINE
  5
79
330
22
100
AcDbEntity
  8
B.Cu
  6
CONTINUOUS
100
AcDbLine
 10
6.1891943700787397
 20
-3.951658149606299
 30
0
 11
6.1857640944881886
 21
-3.9567919291338582
 31
0
  0
LINE
  5
7A
330
22
100
AcDbEntity
  8
B.Cu
  6
CONTINUOUS
100
AcDbLine
 10
6.1857640944881886
 20
-3.9567919291338582
 30
0
 11
6.1813982283464561
 21
-3.9611577952755903
 31
0
  0
LINE
  5
7B
330
22
100
AcDbEntity
  8
B.Cu
  6
CONTINUOUS
100
AcDbLine
 10
6.1813982283464561
 20
-3.9611577952755903
 30
0
 11
6.1762644488188974
 21
-3.9645880708661418
 31
0
  0
LINE
  5
7C
330
22
100
AcDbEntity
  8
B.Cu
  6
CONTINUOUS
100
AcDbLine
 10
6.1762644488188974
 20
-3.9645880708661418
 30
0
 11
6.1705601574803151
 21
-3.9669508661417323
 31
0
  0
LINE
  5
7D
330
22
100
AcDbEntity
  8
B.Cu
  6
CONTINUOUS
100
AcDbLine
 10
6.1705601574803151
 20
-3.9669508661417323
 30
0
 11
6.1645044881889763
 21
-3.9681554330708662
 31
0
  0
LINE
  5
7E
330
22
100
AcDbEntity
  8
B.Cu
  6
CONTINUOUS
100
AcDbLine
 10
6.1645044881889763
 20
-3.9681554330708662
 30
0
 11
6.1583301574803144
 21
-3.9681554330708662
 31
0
  0
LINE
  5
7F
330
22
100
AcDbEntity
  8
B.Cu
  6
CONTINUOUS
100
AcDbLine
 10
6.1583301574803144
 20
-3.9681554330708662
 30
0
 11
6.1522744881889766
 21
-3.9669508661417323
 31
0
  0
LINE
  5
80
330
22
100
AcDbEntity
  8
B.Cu
  6
CONTINUOUS
100
AcDbLine
 10
6.1522744881889766
 20
-3.9669508661417323
 30
0
 11
6.1465701968503934
 21
-3.9645880708661418
 31
0
  0
LINE
  5
81
330
22
100
AcDbEntity
  8
B.Cu
  6
CONTINUOUS
100
AcDbLine
 10
6.1465701968503934
 20
-3.9645880708661418
 30
0
 11
6.1414364173228346
 21
-3.9611577952755903
 31
0
  0
LINE
  5
82
330
22
100
AcDbEntity
  8
B.Cu
  6
CONTINUOUS
100
AcDbLine
 10
6.1414364173228346
 20
-3.9611577952755903
 30
0
 11
6.1370705511811021
 21
-3.9567919291338582
 31
0
  0
LINE
  5
83
330
22
100
AcDbEntity
  8
B.Cu
  6
CONTINUOUS
100
AcDbLine
 10
6.1370705511811021
 20
-3.9567919291338582
 30
0
 11
6.133640275590551
 21
-3.951658149606299
 31
0
  0
LINE
  5
84
330
22
100
AcDbEntity
  8
B.Cu
  6
CONTINUOUS
100
AcDbLine
 10
6.133640275590551
 20
-3.951658149606299
 30
0
 11
6.1312774803149601
 21
-3.9459538582677163
 31
0
  0
LINE
  5
85
330
22
100
AcDbEntity
  8
B.Cu
  6
CONTINUOUS
100
AcDbLine
 10
6.1312774803149601
 20
-3.9459538582677163
 30
0
 11
6.1300729133858267
 21
-3.939898188976378
 31
0
  0
LINE
  5
86
330
22
100
AcDbEntity
  8
B.Cu
  6
CONTINUOUS
100
AcDbLine
 10
6.1300729133858267
 20
-3.939898188976378
 30
0
 11
6.1300729133858267
 21
-3.9337238582677165
 31
0
  0
LINE
  5
87
330
22
100
AcDbEntity
  8
B.Cu
  6
CONTINUOUS
100
AcDbLine
 10
6.1300729133858267
 20
-3.9337238582677165
 30
0
 11
6.1312774803149601
 21
-3.9276681889763778
 31
0
  0
LINE
  5
88
330
22
100
AcDbEntity
  8
B.Cu
  6
CONTINUOUS
100
AcDbLine
 10
6.1312774803149601
 20
-3.9276681889763778
 30
0
 11
6.133640275590551
 21
-3.9219638976377951
 31
0
  0
LINE
  5
89
330
22
100
AcDbEntity
  8
B.Cu
  6
CONTINUOUS
100
AcDbLine
 10
6.133640275590551
 20
-3.9219638976377951
 30
0
 11
6.1370705511811021
 21
-3.9168301181102363
 31
0
  0
LINE
  5
8A
330
22
100
AcDbEntity
  8
B.Cu
  6
CONTINUOUS
100
AcDbLine
 10
6.1370705511811021
 20
-3.9168301181102363
 30
0
 11
6.1414364173228346
 21
-3.9124642519685038
 31
0
  0
LINE
  5
8B
330
22
100
AcDbEntity
  8
B.Cu
  6
CONTINUOUS
100
AcDbLine
 10
6.1414364173228346
 20
-3.9124642519685038
 30
0
 11
6.1465701968503934
 21
-3.9090339763779527
 31
0
  0
LINE
  5
8C
330
22
100
AcDbEntity
  8
B.Cu
  6
CONTINUOUS
100
AcDbLine
 10
6.1465701968503934
 20
-3.9090339763779527
 30
0
 11
6.1522744881889766
 21
-3.9066711811023622
 31
0
  0
LINE
  5
8D
330
22
100
AcDbEntity
  8
B.Cu
  6
CONTINUOUS
100
AcDbLine
 10
6.1522744881889766
 20
-3.9066711811023622
 30
0
 11
6.1583301574803144
 21
-3.9054666141732284
 31
0
  0
LINE
  5
8E
330
22
100
AcDbEntity
  8
B.Cu
  6
CONTINUOUS
100
AcDbLine
 10
6.1583301574803144
 20
-3.9054666141732284
 30
0
 11
6.1645044881889763
 21
-3.9054666141732284
 31
0
  0
LINE
  5
8F
330
22
100
AcDbEntity
  8
B.Cu
  6
CONTINUOUS
100
AcDbLine
 10
6.1645044881889763
 20
-3.9054666141732284
 30
0
 11
6.1705601574803151
 21
-3.9066711811023622
 31
0
  0
LINE
  5
90
330
22
100
AcDbEntity
  8
B.Cu
  6
CONTINUOUS
100
AcDbLine
 10
6.1705601574803151
 20
-3.8066711811023621
 30
0
 11
6.1762644488188974
 21
-3.8090339763779526
 31
0
  0
LINE
  5
91
330
22
100
AcDbEntity
  8
B.Cu
  6
CONTINUOUS
100
AcDbLine
 10
6.1762644488188974
 20
-3.8090339763779526
 30
0
 11
6.1813982283464561
 21
-3.8124642519685037
 31
0
  0
LINE
  5
92
330
22
100
AcDbEntity
  8
B.Cu
  6
CONTINUOUS
100
AcDbLine
 10
6.1813982283464561
 20
-3.8124642519685037
 30
0
 11
6.1857640944881886
 21
-3.8168301181102362
 31
0
  0
LINE
  5
93
330
22
100
AcDbEntity
  8
B.Cu
  6
CONTINUOUS
100
AcDbLine
 10
6.1857640944881886
 20
-3.8168301181102362
 30
0
 11
6.1891943700787397
 21
-3.821963897637795
 31
0
  0
LINE
  5
94
330
22
100
AcDbEntity
  8
B.Cu
  6
CONTINUOUS
100
AcDbLine
 10
6.1891943700787397
 20
-3.821963897637795
 30
0
 11
6.1915571653543306
 21
-3.8276681889763777
 31
0
  0
LINE
  5
95
330
22
100
AcDbEntity
  8
B.Cu
  6
CONTINUOUS
100
AcDbLine
 10
6.1915571653543306
 20
-3.8276681889763777
 30
0
 11
6.192761732283464
 21
-3.8337238582677164
 31
0
  0
LINE
  5
96
330
22
100
AcDbEntity
  8
B.Cu
  6
CONTINUOUS
100
AcDbLine
 10
6.192761732283464
 20
-3.8337238582677164
 30
0
 11
6.192761732283464
 21
-3.8398981889763779
 31
0
  0
LINE
  5
97
330
22
100
AcDbEntity
  8
B.Cu
  6
CONTINUOUS
100
AcDbLine
 10
6.192761732283464
 20
-3.8398981889763779
 30
0
 11
6.1915571653543306
 21
-3.8459538582677166
 31
0
  0
LINE
  5
98
330
22
100
AcDbEntity
  8
B.Cu
  6
CONTINUOUS
100
AcDbLine
 10
6.1915571653543306
 20
-3.8459538582677166
 30
0
 11
6.1891943700787397
 21
-3.8516581496062989
 31
0
  0
LINE
  5
99
330
22
100
AcDbEntity
  8
B.Cu
  6
CONTINUOUS
100
AcDbLine
 10
6.1891943700787397
 20
-3.8516581496062989
 30
0
 11
6.1857640944881886
 21
-3.8567919291338582
 31
0
  0
LINE
  5
9A
330
22
100
AcDbEntity
  8
B.Cu
  6
CONTINUOUS
100
AcDbLine
 10
6.1857640944881886
 20
-3.8567919291338582
 30
0
 11
6.1813982283464561
 21
-3.8611577952755907
 31
0
  0
LINE
  5
9B
330
22
100
AcDbEntity
  8
B.Cu
  6
CONTINUOUS
100
AcDbLine
 10
6.1813982283464561
 20
-3.8611577952755907
 30
0
 11
6.1762644488188974
 21
-3.8645880708661418
 31
0
  0
LINE
  5
9C
330
22
100
AcDbEntity
  8
B.Cu
  6
CONTINUOUS
100
AcDbLine
 10
6.1762644488188974
 20
-3.8645880708661418
 30
0
 11
6.1705601574803151
 21
-3.8669508661417322
 31
0
  0
LINE
  5
9D
330
22
100
AcDbEntity
  8
B.Cu
  6
CONTINUOUS
100
AcDbLine
 10
6.1705601574803151
 20
-3.8669508661417322
 30
0
 11
6.1645044881889763
 21
-3.8681554330708661
 31
0
  0
LINE
  5
9E
330
22
100
AcDbEntity
  8
B.Cu
  6
CONTINUOUS
100
AcDbLine
 10
6.1645044881889763
 20
-3.8681554330708661
 30
0
 11
6.1583301574803144
 21
-3.8681554330708661
 31
0
  0
LINE
  5
9F
330
22
100
AcDbEntity
  8
B.Cu
  6
CONTINUOUS
100
AcDbLine
 10
6.1583301574803144
 20
-3.8681554330708661
 30
0
 11
6.1522744881889766
 21
-3.8669508661417322
 31
0
  0
LINE
  5
A0
330
22
100
AcDbEntity
  8
B.Cu
  6
CONTINUOUS
100
AcDbLine
 10
6.1522744881889766
 20
-3.8669508661417322
 30
0
 11
6.1465701968503934
 21
-3.8645880708661418
 31
0
  0
LINE
  5
A1
330
22
100
AcDbEntity
  8
B.Cu
  6
CONTINUOUS
100
AcDbLine
 10
6.1465701968503934
 20
-3.8645880708661418
 30
0
 11
6.1414364173228346
 21
-3.8611577952755907
 31
0
  0
LINE
  5
A2
330
22
100
AcDbEntity
  8
B.Cu
  6
CONTINUOUS
100
AcDbLine
 10
6.1414364173228346
 20
-3.8611577952755907
 30
0
 11
6.1370705511811021
 21
-3.8567919291338582
 31
0
  0
LINE
  5
A3
330
22
100
AcDbEntity
  8
B.Cu
  6
CONTINUOUS
100
AcDbLine
 10
6.1370705511811021
 20
-3.8567919291338582
 30
0
 11
6.133640275590551
 21
-3.8516581496062989
 31
0
  0
LINE
  5
A4
330
22
100
AcDbEntity
  8
B.Cu
  6
CONTINUOUS
100
AcDbLine
 10
6.133640275590551
 20
-3.8516581496062989
 30
0
 11
6.1312774803149601
 21
-3.8459538582677166
 31
0
  0
LINE
  5
A5
330
22
100
AcDbEntity
  8
B.Cu
  6
CONTINUOUS
100
AcDbLine
 10
6.1312774803149601
 20
-3.8459538582677166
 30
0
 11
6.1300729133858267
 21
-3.8398981889763779
 31
0
  0
LINE
  5
A6
330
22
100
AcDbEntity
  8
B.Cu
  6
CONTINUOUS
100
AcDbLine
 10
6.1300729133858267
 20
-3.8398981889763779
 30
0
 11
6.1300729133858267
 21
-3.8337238582677164
 31
0
  0
LINE
  5
A7
330
22
100
AcDbEntity
  8
B.Cu
  6
CONTINUOUS
100
AcDbLine
 10
6.1300729133858267
 20
-3.8337238582677164
 30
0
 11
6.1312774803149601
 21
-3.8276681889763777
 31
0
  0
LINE
  5
A8
330
22
100
AcDbEntity
  8
B.Cu
  6
CONTINUOUS
100
AcDbLine
 10
6.1312774803149601
 20
-3.8276681889763777
 30
0
 11
6.133640275590551
 21
-3.821963897637795
 31
0
  0
LINE
  5
A9
330
22
100
AcDbEntity
  8
B.Cu
  6
CONTINUOUS
100
AcDbLine
 10
6.133640275590551
 20
-3.821963897637795
 30
0
 11
6.1370705511811021
 21
-3.8168301181102362
 31
0
  0
LINE
  5
AA
330
22
100
AcDbEntity
  8
B.Cu
  6
CONTINUOUS
100
AcDbLine
 10
6.1370705511811021
 20
-3.8168301181102362
 30
0
 11
6.1414364173228346
 21
-3.8124642519685037
 31
0
  0
LINE
  5
AB
330
22
100
AcDbEntity
  8
B.Cu
  6
CONTINUOUS
100
AcDbLine
 10
6.1414364173228346
 20
-3.8124642519685037
 30
0
 11
6.1465701968503934
 21
-3.8090339763779526
 31
0
  0
LINE
  5
AC
330
22
100
AcDbEntity
  8
B.Cu
  6
CONTINUOUS
100
AcDbLine
 10
6.1465701968503934
 20
-3.8090339763779526
 30
0
 11
6.1522744881889766
 21
-3.8066711811023621
 31
0
  0
LINE
  5
AD
330
22
100
AcDbEntity
  8
B.Cu
  6
CONTINUOUS
100
AcDbLine
 10
6.1522744881889766
 20
-3.8066711811023621
 30
0
 11
6.1583301574803144
 21
-3.8054666141732283
 31
0
  0
LINE
  5
AE
330
22
100
AcDbEntity
  8
B.Cu
  6
CONTINUOUS
100
AcDbLine
 10
6.1583301574803144
 20
-3.8054666141732283
 30
0
 11
6.1645044881889763
 21
-3.8054666141732283
 31
0
  0
LINE
  5
AF
330
22
100
AcDbEntity
  8
B.Cu
  6
CONTINUOUS
100
AcDbLine
 10
6.1645044881889763
 20
-3.8054666141732283
 30
0
 11
6.1705601574803151
 21
-3.8066711811023621
 31
0
  0
LINE
  5
B0
330
22
100
AcDbEntity
  8
B.Cu
  6
CONTINUOUS
100
AcDbLine
 10
5.663779527559055
 20
-3.3425196850393699
 30
0
 11
5.5929133858267717
 21
-3.3425196850393699
 31
0
  0
LINE
  5
B1
330
22
100
AcDbEntity
  8
B.Cu
  6
CONTINUOUS
100
AcDbLine
 10
5.5929133858267717
 20
-3.3425196850393699
 30
0
 11
5.5929133858267717
 21
-3.2716535433070866
 31
0
  0
LINE
  5
B2
330
22
100
AcDbEntity
  8
B.Cu
  6
CONTINUOUS
100
AcDbLine
 10
5.5929133858267717
 20
-3.2716535433070866
 30
0
 11
5.663779527559055
 21
-3.2716535433070866
 31
0
  0
LINE
  5
B3
330
22
100
AcDbEntity
  8
B.Cu
  6
CONTINUOUS
100
AcDbLine
 10
5.663779527559055
 20
-3.2716535433070866
 30
0
 11
5.663779527559055
 21
-3.3425196850393699
 31
0
  0
LINE
  5
B4
330
22
100
AcDbEntity
  8
B.Cu
  6
CONTINUOUS
100
AcDbLine
 10
6.1968503937007871
 20
-3.3425196850393699
 30
0
 11
6.1259842519685037
 21
-3.3425196850393699
 31
0
  0
LINE
  5
B5
330
22
100
AcDbEntity
  8
B.Cu
  6
CONTINUOUS
100
AcDbLine
 10
6.1259842519685037
 20
-3.3425196850393699
 30
0
 11
6.1259842519685037
 21
-3.2716535433070866
 31
0
  0
LINE
  5
B6
330
22
100
AcDbEntity
  8
B.Cu
  6
CONTINUOUS
100
AcDbLine
 10
6.1259842519685037
 20
-3.2716535433070866
 30
0
 11
6.1968503937007871
 21
-3.2716535433070866
 31
0
  0
LINE
  5
B7
330
22
100
AcDbEntity
  8
B.Cu
  6
CONTINUOUS
100
AcDbLine
 10
6.1968503937007871
 20
-3.2716535433070866
 30
0
 11
6.1968503937007871
 21
-3.3425196850393699
 31
0
  0
LINE
  5
B8
330
22
100
AcDbEntity
  8
B.Cu
  6
CONTINUOUS
100
AcDbLine
 10
5.1868796062992129
 20
-3.2553779921259842
 30
0
 11
5.1929404330708664
 21
-3.2578884645669293
 31
0
  0
LINE
  5
B9
330
22
100
AcDbEntity
  8
B.Cu
  6
CONTINUOUS
100
AcDbLine
 10
5.1929404330708664
 20
-3.2578884645669293
 30
0
 11
5.1983950393700784
 21
-3.2615331102362206
 31
0
  0
LINE
  5
BA
330
22
100
AcDbEntity
  8
B.Cu
  6
CONTINUOUS
100
AcDbLine
 10
5.1983950393700784
 20
-3.2615331102362206
 30
0
 11
5.2030338188976373
 21
-3.2661718897637795
 31
0
  0
LINE
  5
BB
330
22
100
AcDbEntity
  8
B.Cu
  6
CONTINUOUS
100
AcDbLine
 10
5.2030338188976373
 20
-3.2661718897637795
 30
0
 11
5.2066784645669291
 21
-3.2716264960629919
 31
0
  0
LINE
  5
BC
330
22
100
AcDbEntity
  8
B.Cu
  6
CONTINUOUS
100
AcDbLine
 10
5.2066784645669291
 20
-3.2716264960629919
 30
0
 11
5.2091889370078741
 21
-3.2776873228346455
 31
0
  0
LINE
  5
BD
330
22
100
AcDbEntity
  8
B.Cu
  6
CONTINUOUS
100
AcDbLine
 10
5.2091889370078741
 20
-3.2776873228346455
 30
0
 11
5.2104687795275586
 21
-3.2841214566929131
 31
0
  0
LINE
  5
BE
330
22
100
AcDbEntity
  8
B.Cu
  6
CONTINUOUS
100
AcDbLine
 10
5.2104687795275586
 20
-3.2841214566929131
 30
0
 11
5.2104687795275586
 21
-3.290681692913386
 31
0
  0
LINE
  5
BF
330
22
100
AcDbEntity
  8
B.Cu
  6
CONTINUOUS
100
AcDbLine
 10
5.2104687795275586
 20
-3.290681692913386
 30
0
 11
5.2091889370078741
 21
-3.2971158267716536
 31
0
  0
LINE
  5
C0
330
22
100
AcDbEntity
  8
B.Cu
  6
CONTINUOUS
100
AcDbLine
 10
5.2091889370078741
 20
-3.2971158267716536
 30
0
 11
5.2066784645669291
 21
-3.3031766535433071
 31
0
  0
LINE
  5
C1
330
22
100
AcDbEntity
  8
B.Cu
  6
CONTINUOUS
100
AcDbLine
 10
5.2066784645669291
 20
-3.3031766535433071
 30
0
 11
5.2030338188976373
 21
-3.3086312598425196
 31
0
  0
LINE
  5
C2
330
22
100
AcDbEntity
  8
B.Cu
  6
CONTINUOUS
100
AcDbLine
 10
5.2030338188976373
 20
-3.3086312598425196
 30
0
 11
5.1983950393700784
 21
-3.3132700393700785
 31
0
  0
LINE
  5
C3
330
22
100
AcDbEntity
  8
B.Cu
  6
CONTINUOUS
100
AcDbLine
 10
5.1983950393700784
 20
-3.3132700393700785
 30
0
 11
5.1929404330708664
 21
-3.3169146850393698
 31
0
  0
LINE
  5
C4
330
22
100
AcDbEntity
  8
B.Cu
  6
CONTINUOUS
100
AcDbLine
 10
5.1929404330708664
 20
-3.3169146850393698
 30
0
 11
5.1868796062992129
 21
-3.3194251574803149
 31
0
  0
LINE
  5
C5
330
22
100
AcDbEntity
  8
B.Cu
  6
CONTINUOUS
100
AcDbLine
 10
5.1868796062992129
 20
-3.3194251574803149
 30
0
 11
5.1804454724409448
 21
-3.3207049999999998
 31
0
  0
LINE
  5
C6
330
22
100
AcDbEntity
  8
B.Cu
  6
CONTINUOUS
100
AcDbLine
 10
5.1804454724409448
 20
-3.3207049999999998
 30
0
 11
5.1738852362204719
 21
-3.3207049999999998
 31
0
  0
LINE
  5
C7
330
22
100
AcDbEntity
  8
B.Cu
  6
CONTINUOUS
100
AcDbLine
 10
5.1738852362204719
 20
-3.3207049999999998
 30
0
 11
5.1674511023622047
 21
-3.3194251574803149
 31
0
  0
LINE
  5
C8
330
22
100
AcDbEntity
  8
B.Cu
  6
CONTINUOUS
100
AcDbLine
 10
5.1674511023622047
 20
-3.3194251574803149
 30
0
 11
5.1613902755905512
 21
-3.3169146850393698
 31
0
  0
LINE
  5
C9
330
22
100
AcDbEntity
  8
B.Cu
  6
CONTINUOUS
100
AcDbLine
 10
5.1613902755905512
 20
-3.3169146850393698
 30
0
 11
5.1559356692913383
 21
-3.3132700393700785
 31
0
  0
LINE
  5
CA
330
22
100
AcDbEntity
  8
B.Cu
  6
CONTINUOUS
100
AcDbLine
 10
5.1559356692913383
 20
-3.3132700393700785
 30
0
 11
5.1512968897637794
 21
-3.3086312598425196
 31
0
  0
LINE
  5
CB
330
22
100
AcDbEntity
  8
B.Cu
  6
CONTINUOUS
100
AcDbLine
 10
5.1512968897637794
 20
-3.3086312598425196
 30
0
 11
5.1476522440944876
 21
-3.3031766535433071
 31
0
  0
LINE
  5
CC
330
22
100
AcDbEntity
  8
B.Cu
  6
CONTINUOUS
100
AcDbLine
 10
5.1476522440944876
 20
-3.3031766535433071
 30
0
 11
5.1451417716535435
 21
-3.2971158267716536
 31
0
  0
LINE
  5
CD
330
22
100
AcDbEntity
  8
B.Cu
  6
CONTINUOUS
100
AcDbLine
 10
5.1451417716535435
 20
-3.2971158267716536
 30
0
 11
5.1438619291338581
 21
-3.290681692913386
 31
0
  0
LINE
  5
CE
330
22
100
AcDbEntity
  8
B.Cu
  6
CONTINUOUS
100
AcDbLine
 10
5.1438619291338581
 20
-3.290681692913386
 30
0
 11
5.1438619291338581
 21
-3.2841214566929131
 31
0
  0
LINE
  5
CF
330
22
100
AcDbEntity
  8
B.Cu
  6
CONTINUOUS
100
AcDbLine
 10
5.1438619291338581
 20
-3.2841214566929131
 30
0
 11
5.1451417716535435
 21
-3.2776873228346455
 31
0
  0
LINE
  5
D0
330
22
100
AcDbEntity
  8
B.Cu
  6
CONTINUOUS
100
AcDbLine
 10
5.1451417716535435
 20
-3.2776873228346455
 30
0
 11
5.1476522440944876
 21
-3.2716264960629919
 31
0
  0
LINE
  5
D1
330
22
100
AcDbEntity
  8
B.Cu
  6
CONTINUOUS
100
AcDbLine
 10
5.1476522440944876
 20
-3.2716264960629919
 30
0
 11
5.1512968897637794
 21
-3.2661718897637795
 31
0
  0
LINE
  5
D2
330
22
100
AcDbEntity
  8
B.Cu
  6
CONTINUOUS
100
AcDbLine
 10
5.1512968897637794
 20
-3.2661718897637795
 30
0
 11
5.1559356692913383
 21
-3.2615331102362206
 31
0
  0
LINE
  5
D3
330
22
100
AcDbEntity
  8
B.Cu
  6
CONTINUOUS
100
AcDbLine
 10
5.1559356692913383
 20
-3.2615331102362206
 30
0
 11
5.1613902755905512
 21
-3.2578884645669293
 31
0
  0
LINE
  5
D4
330
22
100
AcDbEntity
  8
B.Cu
  6
CONTINUOUS
100
AcDbLine
 10
5.1613902755905512
 20
-3.2578884645669293
 30
0
 11
5.1674511023622047
 21
-3.2553779921259842
 31
0
  0
LINE
  5
D5
330
22
100
AcDbEntity
  8
B.Cu
  6
CONTINUOUS
100
AcDbLine
 10
5.1674511023622047
 20
-3.2553779921259842
 30
0
 11
5.1738852362204719
 21
-3.2540981496062993
 31
0
  0
LINE
  5
D6
330
22
100
AcDbEntity
  8
B.Cu
  6
CONTINUOUS
100
AcDbLine
 10
5.1738852362204719
 20
-3.2540981496062993
 30
0
 11
5.1804454724409448
 21
-3.2540981496062993
 31
0
  0
LINE
  5
D7
330
22
100
AcDbEntity
  8
B.Cu
  6
CONTINUOUS
100
AcDbLine
 10
5.1804454724409448
 20
-3.2540981496062993
 30
0
 11
5.1868796062992129
 21
-3.2553779921259842
 31
0
  0
LINE
  5
D8
330
22
100
AcDbEntity
  8
B.Cu
  6
CONTINUOUS
100
AcDbLine
 10
6.5725409055118105
 20
-3.0126057086614173
 30
0
 11
6.5743422834645671
 21
-3.0146846062992125
 31
0
  0
LINE
  5
D9
330
22
100
AcDbEntity
  8
B.Cu
  6
CONTINUOUS
100
AcDbLine
 10
6.5743422834645671
 20
-3.0146846062992125
 30
0
 11
6.574783464566929
 21
-3.0167125984251966
 31
0
  0
LINE
  5
DA
330
22
100
AcDbEntity
  8
B.Cu
  6
CONTINUOUS
100
AcDbLine
 10
6.574783464566929
 20
-3.0167125984251966
 30
0
 11
6.574783464566929
 21
-4.1683267716535433
 31
0
  0
LINE
  5
DB
330
22
100
AcDbEntity
  8
B.Cu
  6
CONTINUOUS
100
AcDbLine
 10
6.574783464566929
 20
-4.1683267716535433
 30
0
 11
6.574008464566929
 21
-4.1709661023622049
 31
0
  0
LINE
  5
DC
330
22
100
AcDbEntity
  8
B.Cu
  6
CONTINUOUS
100
AcDbLine
 10
6.574008464566929
 20
-4.1709661023622049
 30
0
 11
6.5719295669291338
 21
-4.1727674803149606
 31
0
  0
LINE
  5
DD
330
22
100
AcDbEntity
  8
B.Cu
  6
CONTINUOUS
100
AcDbLine
 10
6.5719295669291338
 20
-4.1727674803149606
 30
0
 11
6.5699015748031497
 21
-4.1732086614173225
 31
0
  0
LINE
  5
DE
330
22
100
AcDbEntity
  8
B.Cu
  6
CONTINUOUS
100
AcDbLine
 10
6.5699015748031497
 20
-4.1732086614173225
 30
0
 11
5.0049015748031493
 21
-4.1732086614173225
 31
0
  0
LINE
  5
DF
330
22
100
AcDbEntity
  8
B.Cu
  6
CONTINUOUS
100
AcDbLine
 10
5.0049015748031493
 20
-4.1732086614173225
 30
0
 11
5.0022622440944877
 21
-4.1724336614173225
 31
0
  0
LINE
  5
E0
330
22
100
AcDbEntity
  8
B.Cu
  6
CONTINUOUS
100
AcDbLine
 10
5.0022622440944877
 20
-4.1724336614173225
 30
0
 11
5.000460866141732
 21
-4.1703547637795273
 31
0
  0
LINE
  5
E1
330
22
100
AcDbEntity
  8
B.Cu
  6
CONTINUOUS
100
AcDbLine
 10
5.000460866141732
 20
-4.1703547637795273
 30
0
 11
5.0000196850393701
 21
-4.1683267716535433
 31
0
  0
LINE
  5
E2
330
22
100
AcDbEntity
  8
B.Cu
  6
CONTINUOUS
100
AcDbLine
 10
5.0000196850393701
 20
-4.1683267716535433
 30
0
 11
5.0000196850393701
 21
-3.8329782677165354
 31
0
  0
LINE
  5
E3
330
22
100
AcDbEntity
  8
B.Cu
  6
CONTINUOUS
100
AcDbLine
 10
5.0000196850393701
 20
-3.8329782677165354
 30
0
 11
5.0000196850393701
 21
-3.2832170472440945
 31
0
  0
LINE
  5
E4
330
22
100
AcDbEntity
  8
B.Cu
  6
CONTINUOUS
100
AcDbLine
 10
5.0000196850393701
 20
-3.2832170472440945
 30
0
 11
5.0000196850393701
 21
-3.0167125984251966
 31
0
  0
LINE
  5
E5
330
22
100
AcDbEntity
  8
B.Cu
  6
CONTINUOUS
100
AcDbLine
 10
5.0000196850393701
 20
-3.0167125984251966
 30
0
 11
5.0007946850393701
 21
-3.0140732677165354
 31
0
  0
LINE
  5
E6
330
22
100
AcDbEntity
  8
B.Cu
  6
CONTINUOUS
100
AcDbLine
 10
5.0007946850393701
 20
-3.0140732677165354
 30
0
 11
5.0028735826771653
 21
-3.0122718897637792
 31
0
  0
LINE
  5
E7
330
22
100
AcDbEntity
  8
B.Cu
  6
CONTINUOUS
100
AcDbLine
 10
5.0028735826771653
 20
-3.0122718897637792
 30
0
 11
5.0049015748031493
 21
-3.0118307086614173
 31
0
  0
LINE
  5
E8
330
22
100
AcDbEntity
  8
B.Cu
  6
CONTINUOUS
100
AcDbLine
 10
5.0049015748031493
 20
-3.0118307086614173
 30
0
 11
6.5699015748031497
 21
-3.0118307086614173
 31
0
  0
LINE
  5
E9
330
22
100
AcDbEntity
  8
B.Cu
  6
CONTINUOUS
100
AcDbLine
 10
6.5699015748031497
 20
-3.0118307086614173
 30
0
 11
6.5725409055118105
 21
-3.0126057086614173
 31
0
  0
LINE
  5
EA
330
22
100
AcDbEntity
  8
B.Cu
  6
CONTINUOUS
100
AcDbLine
 10
5.5787204724409447
 20
-3.841037440944882
 30
0
 11
5.5799811811023625
 21
-3.848997401574803
 31
0
  0
LINE
  5
EB
330
22
100
AcDbEntity
  8
B.Cu
  6
CONTINUOUS
100
AcDbLine
 10
5.5799811811023625
 20
-3.848997401574803
 30
0
 11
5.5824716929133853
 21
-3.8566623228346457
 31
0
  0
LINE
  5
EC
330
22
100
AcDbEntity
  8
B.Cu
  6
CONTINUOUS
100
AcDbLine
 10
5.5824716929133853
 20
-3.8566623228346457
 30
0
 11
5.5849878346456689
 21
-3.8616005118110235
 31
0
  0
LINE
  5
ED
330
22
100
AcDbEntity
  8
B.Cu
  6
CONTINUOUS
100
AcDbLine
 10
5.5849878346456689
 20
-3.8616005118110235
 30
0
 11
5.5860301181102363
 21
-3.8636460629921259
 31
0
  0
LINE
  5
EE
330
22
100
AcDbEntity
  8
B.Cu
  6
CONTINUOUS
100
AcDbLine
 10
5.5860301181102363
 20
-3.8636460629921259
 30
0
 11
5.5861305118110236
 21
-3.8638430314960628
 31
0
  0
LINE
  5
EF
330
22
100
AcDbEntity
  8
B.Cu
  6
CONTINUOUS
100
AcDbLine
 10
5.5861305118110236
 20
-3.8638430314960628
 30
0
 11
5.590867244094488
 21
-3.8703627165354328
 31
0
  0
LINE
  5
F0
330
22
100
AcDbEntity
  8
B.Cu
  6
CONTINUOUS
100
AcDbLine
 10
5.590867244094488
 20
-3.8703627165354328
 30
0
 11
5.5965663779527555
 21
-3.8760618503937008
 31
0
  0
LINE
  5
F1
330
22
100
AcDbEntity
  8
B.Cu
  6
CONTINUOUS
100
AcDbLine
 10
5.5965663779527555
 20
-3.8760618503937008
 30
0
 11
5.6026672834645668
 21
-3.8804943307086615
 31
0
  0
LINE
  5
F2
330
22
100
AcDbEntity
  8
B.Cu
  6
CONTINUOUS
100
AcDbLine
 10
5.6026672834645668
 20
-3.8804943307086615
 30
0
 11
5.6030862204724405
 21
-3.8807987007874014
 31
0
  0
LINE
  5
F3
330
22
100
AcDbEntity
  8
B.Cu
  6
CONTINUOUS
100
AcDbLine
 10
5.6030862204724405
 20
-3.8807987007874014
 30
0
 11
5.6063490944881886
 21
-3.8824612204724409
 31
0
  0
LINE
  5
F4
330
22
100
AcDbEntity
  8
B.Cu
  6
CONTINUOUS
100
AcDbLine
 10
5.6063490944881886
 20
-3.8824612204724409
 30
0
 11
5.6067354330708659
 21
-3.8826580708661416
 31
0
  0
LINE
  5
F5
330
22
100
AcDbEntity
  8
B.Cu
  6
CONTINUOUS
100
AcDbLine
 10
5.6067354330708659
 20
-3.8826580708661416
 30
0
 11
5.6087352755905506
 21
-3.8845468503937006
 31
0
  0
LINE
  5
F6
330
22
100
AcDbEntity
  8
B.Cu
  6
CONTINUOUS
100
AcDbLine
 10
5.6087352755905506
 20
-3.8845468503937006
 30
0
 11
5.6093964960629918
 21
-3.8872169685039371
 31
0
  0
LINE
  5
F7
330
22
100
AcDbEntity
  8
B.Cu
  6
CONTINUOUS
100
AcDbLine
 10
5.6093964960629918
 20
-3.8872169685039371
 30
0
 11
5.6085092125984248
 21
-3.8898207086614174
 31
0
  0
LINE
  5
F8
330
22
100
AcDbEntity
  8
B.Cu
  6
CONTINUOUS
100
AcDbLine
 10
5.6085092125984248
 20
-3.8898207086614174
 30
0
 11
5.6067354330708659
 21
-3.8913576771653542
 31
0
  0
LINE
  5
F9
330
22
100
AcDbEntity
  8
B.Cu
  6
CONTINUOUS
100
AcDbLine
 10
5.6067354330708659
 20
-3.8913576771653542
 30
0
 11
5.6030860629921255
 21
-3.8932171259842518
 31
0
  0
LINE
  5
FA
330
22
100
AcDbEntity
  8
B.Cu
  6
CONTINUOUS
100
AcDbLine
 10
5.6030860629921255
 20
-3.8932171259842518
 30
0
 11
5.5965663779527555
 21
-3.8979538582677162
 31
0
  0
LINE
  5
FB
330
22
100
AcDbEntity
  8
B.Cu
  6
CONTINUOUS
100
AcDbLine
 10
5.5965663779527555
 20
-3.8979538582677162
 30
0
 11
5.590867244094488
 21
-3.9036529921259842
 31
0
  0
LINE
  5
FC
330
22
100
AcDbEntity
  8
B.Cu
  6
CONTINUOUS
100
AcDbLine
 10
5.590867244094488
 20
-3.9036529921259842
 30
0
 11
5.5861305118110236
 21
-3.9101726771653542
 31
0
  0
LINE
  5
FD
330
22
100
AcDbEntity
  8
B.Cu
  6
CONTINUOUS
100
AcDbLine
 10
5.5861305118110236
 20
-3.9101726771653542
 30
0
 11
5.5824716929133853
 21
-3.9173533858267717
 31
0
  0
LINE
  5
FE
330
22
100
AcDbEntity
  8
B.Cu
  6
CONTINUOUS
100
AcDbLine
 10
5.5824716929133853
 20
-3.9173533858267717
 30
0
 11
5.5799811811023625
 21
-3.925018307086614
 31
0
  0
LINE
  5
FF
330
22
100
AcDbEntity
  8
B.Cu
  6
CONTINUOUS
100
AcDbLine
 10
5.5799811811023625
 20
-3.925018307086614
 30
0
 11
5.5787204724409447
 21
-3.9329782677165355
 31
0
  0
LINE
  5
100
330
22
100
AcDbEntity
  8
B.Cu
  6
CONTINUOUS
100
AcDbLine
 10
5.5787204724409447
 20
-3.9329782677165355
 30
0
 11
5.5787204724409447
 21
-3.9410374409448816
 31
0
  0
LINE
  5
101
330
22
100
AcDbEntity
  8
B.Cu
  6
CONTINUOUS
100
AcDbLine
 10
5.5787204724409447
 20
-3.9410374409448816
 30
0
 11
5.5799811811023625
 21
-3.9489974015748031
 31
0
  0
LINE
  5
102
330
22
100
AcDbEntity
  8
B.Cu
  6
CONTINUOUS
100
AcDbLine
 10
5.5799811811023625
 20
-3.9489974015748031
 30
0
 11
5.5824716929133853
 21
-3.9566623228346454
 31
0
  0
LINE
  5
103
330
22
100
AcDbEntity
  8
B.Cu
  6
CONTINUOUS
100
AcDbLine
 10
5.5824716929133853
 20
-3.9566623228346454
 30
0
 11
5.5849878346456689
 21
-3.9616005118110236
 31
0
  0
LINE
  5
104
330
22
100
AcDbEntity
  8
B.Cu
  6
CONTINUOUS
100
AcDbLine
 10
5.5849878346456689
 20
-3.9616005118110236
 30
0
 11
5.5860301181102363
 21
-3.963646062992126
 31
0
  0
LINE
  5
105
330
22
100
AcDbEntity
  8
B.Cu
  6
CONTINUOUS
100
AcDbLine
 10
5.5860301181102363
 20
-3.963646062992126
 30
0
 11
5.5861305118110236
 21
-3.9638430314960629
 31
0
  0
LINE
  5
106
330
22
100
AcDbEntity
  8
B.Cu
  6
CONTINUOUS
100
AcDbLine
 10
5.5861305118110236
 20
-3.9638430314960629
 30
0
 11
5.590867244094488
 21
-3.9703627165354329
 31
0
  0
LINE
  5
107
330
22
100
AcDbEntity
  8
B.Cu
  6
CONTINUOUS
100
AcDbLine
 10
5.590867244094488
 20
-3.9703627165354329
 30
0
 11
5.5965663779527555
 21
-3.9760618503937009
 31
0
  0
LINE
  5
108
330
22
100
AcDbEntity
  8
B.Cu
  6
CONTINUOUS
100
AcDbLine
 10
5.5965663779527555
 20
-3.9760618503937009
 30
0
 11
5.6026672834645668
 21
-3.9804943307086615
 31
0
  0
LINE
  5
109
330
22
100
AcDbEntity
  8
B.Cu
  6
CONTINUOUS
100
AcDbLine
 10
5.6026672834645668
 20
-3.9804943307086615
 30
0
 11
5.6030862204724405
 21
-3.9807987007874015
 31
0
  0
LINE
  5
10A
330
22
100
AcDbEntity
  8
B.Cu
  6
CONTINUOUS
100
AcDbLine
 10
5.6030862204724405
 20
-3.9807987007874015
 30
0
 11
5.6076616929133856
 21
-3.9831300393700788
 31
0
  0
LINE
  5
10B
330
22
100
AcDbEntity
  8
B.Cu
  6
CONTINUOUS
100
AcDbLine
 10
5.6076616929133856
 20
-3.9831300393700788
 30
0
 11
5.610266771653543
 21
-3.9844574015748031
 31
0
  0
LINE
  5
10C
330
22
100
AcDbEntity
  8
B.Cu
  6
CONTINUOUS
100
AcDbLine
 10
5.610266771653543
 20
-3.9844574015748031
 30
0
 11
5.6102668503937005
 21
-3.9844574015748031
 31
0
  0
LINE
  5
10D
330
22
100
AcDbEntity
  8
B.Cu
  6
CONTINUOUS
100
AcDbLine
 10
5.6102668503937005
 20
-3.9844574015748031
 30
0
 11
5.6102669685039368
 21
-3.9844574803149606
 31
0
  0
LINE
  5
10E
330
22
100
AcDbEntity
  8
B.Cu
  6
CONTINUOUS
100
AcDbLine
 10
5.6102669685039368
 20
-3.9844574803149606
 30
0
 11
5.6143754724409449
 21
-3.9857924015748032
 31
0
  0
LINE
  5
10F
330
22
100
AcDbEntity
  8
B.Cu
  6
CONTINUOUS
100
AcDbLine
 10
5.6143754724409449
 20
-3.9857924015748032
 30
0
 11
5.6179316929133858
 21
-3.9869479133858268
 31
0
  0
LINE
  5
110
330
22
100
AcDbEntity
  8
B.Cu
  6
CONTINUOUS
100
AcDbLine
 10
5.6179316929133858
 20
-3.9869479133858268
 30
0
 11
5.6219116929133861
 21
-3.9875782677165352
 31
0
  0
LINE
  5
111
330
22
100
AcDbEntity
  8
B.Cu
  6
CONTINUOUS
100
AcDbLine
 10
5.6219116929133861
 20
-3.9875782677165352
 30
0
 11
5.6258916535433068
 21
-3.9882086614173229
 31
0
  0
LINE
  5
112
330
22
100
AcDbEntity
  8
B.Cu
  6
CONTINUOUS
100
AcDbLine
 10
5.6258916535433068
 20
-3.9882086614173229
 30
0
 11
5.6258916929133855
 21
-3.9882086614173229
 31
0
  0
LINE
  5
113
330
22
100
AcDbEntity
  8
B.Cu
  6
CONTINUOUS
100
AcDbLine
 10
5.6258916929133855
 20
-3.9882086614173229
 30
0
 11
5.6339508267716534
 21
-3.9882086614173229
 31
0
  0
LINE
  5
114
330
22
100
AcDbEntity
  8
B.Cu
  6
CONTINUOUS
100
AcDbLine
 10
5.6339508267716534
 20
-3.9882086614173229
 30
0
 11
5.6339508661417321
 21
-3.9882086614173229
 31
0
  0
LINE
  5
115
330
22
100
AcDbEntity
  8
B.Cu
  6
CONTINUOUS
100
AcDbLine
 10
5.6339508661417321
 20
-3.9882086614173229
 30
0
 11
5.6419107874015744
 21
-3.9869479133858268
 31
0
  0
LINE
  5
116
330
22
100
AcDbEntity
  8
B.Cu
  6
CONTINUOUS
100
AcDbLine
 10
5.6419107874015744
 20
-3.9869479133858268
 30
0
 11
5.6495755511811021
 21
-3.9844574803149606
 31
0
  0
LINE
  5
117
330
22
100
AcDbEntity
  8
B.Cu
  6
CONTINUOUS
100
AcDbLine
 10
5.6495755511811021
 20
-3.9844574803149606
 30
0
 11
5.6567562992125984
 21
-3.9807987007874015
 31
0
  0
LINE
  5
118
330
22
100
AcDbEntity
  8
B.Cu
  6
CONTINUOUS
100
AcDbLine
 10
5.6567562992125984
 20
-3.9807987007874015
 30
0
 11
5.6604169291338584
 21
-3.9781390551181102
 31
0
  0
LINE
  5
119
330
22
100
AcDbEntity
  8
B.Cu
  6
CONTINUOUS
100
AcDbLine
 10
5.6604169291338584
 20
-3.9781390551181102
 30
0
 11
5.6632761023622047
 21
-3.9760618503937009
 31
0
  0
LINE
  5
11A
330
22
100
AcDbEntity
  8
B.Cu
  6
CONTINUOUS
100
AcDbLine
 10
5.6632761023622047
 20
-3.9760618503937009
 30
0
 11
5.6632761811023622
 21
-3.9760617322834646
 31
0
  0
LINE
  5
11B
330
22
100
AcDbEntity
  8
B.Cu
  6
CONTINUOUS
100
AcDbLine
 10
5.6632761811023622
 20
-3.9760617322834646
 30
0
 11
5.6632763385826772
 21
-3.9760616535433071
 31
0
  0
LINE
  5
11C
330
22
100
AcDbEntity
  8
B.Cu
  6
CONTINUOUS
100
AcDbLine
 10
5.6632763385826772
 20
-3.9760616535433071
 30
0
 11
5.6689750393700784
 21
-3.9703629527559055
 31
0
  0
LINE
  5
11D
330
22
100
AcDbEntity
  8
B.Cu
  6
CONTINUOUS
100
AcDbLine
 10
5.6689750393700784
 20
-3.9703629527559055
 30
0
 11
5.6689751181102359
 21
-3.9703627952755904
 31
0
  0
LINE
  5
11E
330
22
100
AcDbEntity
  8
B.Cu
  6
CONTINUOUS
100
AcDbLine
 10
5.6689751181102359
 20
-3.9703627952755904
 30
0
 11
5.6689752362204722
 21
-3.9703627165354329
 31
0
  0
LINE
  5
11F
330
22
100
AcDbEntity
  8
B.Cu
  6
CONTINUOUS
100
AcDbLine
 10
5.6689752362204722
 20
-3.9703627165354329
 30
0
 11
5.6710524409448819
 21
-3.9675035433070867
 31
0
  0
LINE
  5
120
330
22
100
AcDbEntity
  8
B.Cu
  6
CONTINUOUS
100
AcDbLine
 10
5.6710524409448819
 20
-3.9675035433070867
 30
0
 11
5.6737120866141728
 21
-3.9638429133858266
 31
0
  0
LINE
  5
121
330
22
100
AcDbEntity
  8
B.Cu
  6
CONTINUOUS
100
AcDbLine
 10
5.6737120866141728
 20
-3.9638429133858266
 30
0
 11
5.6773708661417324
 21
-3.9566621653543308
 31
0
  0
LINE
  5
122
330
22
100
AcDbEntity
  8
B.Cu
  6
CONTINUOUS
100
AcDbLine
 10
5.6773708661417324
 20
-3.9566621653543308
 30
0
 11
5.6798612992125985
 21
-3.9489974015748031
 31
0
  0
LINE
  5
123
330
22
100
AcDbEntity
  8
B.Cu
  6
CONTINUOUS
100
AcDbLine
 10
5.6798612992125985
 20
-3.9489974015748031
 30
0
 11
5.6811220472440942
 21
-3.9410374803149604
 31
0
  0
LINE
  5
124
330
22
100
AcDbEntity
  8
B.Cu
  6
CONTINUOUS
100
AcDbLine
 10
5.6811220472440942
 20
-3.9410374803149604
 30
0
 11
5.6811220472440942
 21
-3.9329782677165355
 31
0
  0
LINE
  5
125
330
22
100
AcDbEntity
  8
B.Cu
  6
CONTINUOUS
100
AcDbLine
 10
5.6811220472440942
 20
-3.9329782677165355
 30
0
 11
5.6798612992125985
 21
-3.9250183464566928
 31
0
  0
LINE
  5
126
330
22
100
AcDbEntity
  8
B.Cu
  6
CONTINUOUS
100
AcDbLine
 10
5.6798612992125985
 20
-3.9250183464566928
 30
0
 11
5.6797973228346459
 21
-3.9248214960629921
 31
0
  0
LINE
  5
127
330
22
100
AcDbEntity
  8
B.Cu
  6
CONTINUOUS
100
AcDbLine
 10
5.6797973228346459
 20
-3.9248214960629921
 30
0
 11
5.6773707874015749
 21
-3.9173533858267717
 31
0
  0
LINE
  5
128
330
22
100
AcDbEntity
  8
B.Cu
  6
CONTINUOUS
100
AcDbLine
 10
5.6773707874015749
 20
-3.9173533858267717
 30
0
 11
5.6760434251968501
 21
-3.9147483070866143
 31
0
  0
LINE
  5
129
330
22
100
AcDbEntity
  8
B.Cu
  6
CONTINUOUS
100
AcDbLine
 10
5.6760434251968501
 20
-3.9147483070866143
 30
0
 11
5.6737120866141728
 21
-3.9101728346456692
 31
0
  0
LINE
  5
12A
330
22
100
AcDbEntity
  8
B.Cu
  6
CONTINUOUS
100
AcDbLine
 10
5.6737120866141728
 20
-3.9101728346456692
 30
0
 11
5.6734077165354329
 21
-3.909753897637795
 31
0
  0
LINE
  5
12B
330
22
100
AcDbEntity
  8
B.Cu
  6
CONTINUOUS
100
AcDbLine
 10
5.6734077165354329
 20
-3.909753897637795
 30
0
 11
5.6689752362204722
 21
-3.9036529921259842
 31
0
  0
LINE
  5
12C
330
22
100
AcDbEntity
  8
B.Cu
  6
CONTINUOUS
100
AcDbLine
 10
5.6689752362204722
 20
-3.9036529921259842
 30
0
 11
5.6632761023622047
 21
-3.8979538582677162
 31
0
  0
LINE
  5
12D
330
22
100
AcDbEntity
  8
B.Cu
  6
CONTINUOUS
100
AcDbLine
 10
5.6632761023622047
 20
-3.8979538582677162
 30
0
 11
5.6567564566929134
 21
-3.8932171259842518
 31
0
  0
LINE
  5
12E
330
22
100
AcDbEntity
  8
B.Cu
  6
CONTINUOUS
100
AcDbLine
 10
5.6567564566929134
 20
-3.8932171259842518
 30
0
 11
5.6563699606299211
 21
-3.8930201968503937
 31
0
  0
LINE
  5
12F
330
22
100
AcDbEntity
  8
B.Cu
  6
CONTINUOUS
100
AcDbLine
 10
5.6563699606299211
 20
-3.8930201968503937
 30
0
 11
5.6531069685039368
 21
-3.8913575984251967
 31
0
  0
LINE
  5
130
330
22
100
AcDbEntity
  8
B.Cu
  6
CONTINUOUS
100
AcDbLine
 10
5.6531069685039368
 20
-3.8913575984251967
 30
0
 11
5.6511072047244095
 21
-3.8894689370078739
 31
0
  0
LINE
  5
131
330
22
100
AcDbEntity
  8
B.Cu
  6
CONTINUOUS
100
AcDbLine
 10
5.6511072047244095
 20
-3.8894689370078739
 30
0
 11
5.6504459842519683
 21
-3.8867988188976379
 31
0
  0
LINE
  5
132
330
22
100
AcDbEntity
  8
B.Cu
  6
CONTINUOUS
100
AcDbLine
 10
5.6504459842519683
 20
-3.8867988188976379
 30
0
 11
5.6513332677165353
 21
-3.8841950787401576
 31
0
  0
LINE
  5
133
330
22
100
AcDbEntity
  8
B.Cu
  6
CONTINUOUS
100
AcDbLine
 10
5.6513332677165353
 20
-3.8841950787401576
 30
0
 11
5.6531069685039368
 21
-3.8826581102362203
 31
0
  0
LINE
  5
134
330
22
100
AcDbEntity
  8
B.Cu
  6
CONTINUOUS
100
AcDbLine
 10
5.6531069685039368
 20
-3.8826581102362203
 30
0
 11
5.6567562992125984
 21
-3.8807987007874014
 31
0
  0
LINE
  5
135
330
22
100
AcDbEntity
  8
B.Cu
  6
CONTINUOUS
100
AcDbLine
 10
5.6567562992125984
 20
-3.8807987007874014
 30
0
 11
5.6575893700787399
 21
-3.8801934251968504
 31
0
  0
LINE
  5
136
330
22
100
AcDbEntity
  8
B.Cu
  6
CONTINUOUS
100
AcDbLine
 10
5.6575893700787399
 20
-3.8801934251968504
 30
0
 11
5.6632761023622047
 21
-3.8760618503937008
 31
0
  0
LINE
  5
137
330
22
100
AcDbEntity
  8
B.Cu
  6
CONTINUOUS
100
AcDbLine
 10
5.6632761023622047
 20
-3.8760618503937008
 30
0
 11
5.6632761811023622
 21
-3.8760617322834645
 31
0
  0
LINE
  5
138
330
22
100
AcDbEntity
  8
B.Cu
  6
CONTINUOUS
100
AcDbLine
 10
5.6632761811023622
 20
-3.8760617322834645
 30
0
 11
5.6632763385826772
 21
-3.876061653543307
 31
0
  0
LINE
  5
139
330
22
100
AcDbEntity
  8
B.Cu
  6
CONTINUOUS
100
AcDbLine
 10
5.6632763385826772
 20
-3.876061653543307
 30
0
 11
5.6689750393700784
 21
-3.8703629527559054
 31
0
  0
LINE
  5
13A
330
22
100
AcDbEntity
  8
B.Cu
  6
CONTINUOUS
100
AcDbLine
 10
5.6689750393700784
 20
-3.8703629527559054
 30
0
 11
5.6689751181102359
 21
-3.8703627952755904
 31
0
  0
LINE
  5
13B
330
22
100
AcDbEntity
  8
B.Cu
  6
CONTINUOUS
100
AcDbLine
 10
5.6689751181102359
 20
-3.8703627952755904
 30
0
 11
5.6689752362204722
 21
-3.8703627165354328
 31
0
  0
LINE
  5
13C
330
22
100
AcDbEntity
  8
B.Cu
  6
CONTINUOUS
100
AcDbLine
 10
5.6689752362204722
 20
-3.8703627165354328
 30
0
 11
5.6710524409448819
 21
-3.8675035433070866
 31
0
  0
LINE
  5
13D
330
22
100
AcDbEntity
  8
B.Cu
  6
CONTINUOUS
100
AcDbLine
 10
5.6710524409448819
 20
-3.8675035433070866
 30
0
 11
5.6737120866141728
 21
-3.8638429133858265
 31
0
  0
LINE
  5
13E
330
22
100
AcDbEntity
  8
B.Cu
  6
CONTINUOUS
100
AcDbLine
 10
5.6737120866141728
 20
-3.8638429133858265
 30
0
 11
5.6773708661417324
 21
-3.8566621653543307
 31
0
  0
LINE
  5
13F
330
22
100
AcDbEntity
  8
B.Cu
  6
CONTINUOUS
100
AcDbLine
 10
5.6773708661417324
 20
-3.8566621653543307
 30
0
 11
5.6798612992125985
 21
-3.848997401574803
 31
0
  0
LINE
  5
140
330
22
100
AcDbEntity
  8
B.Cu
  6
CONTINUOUS
100
AcDbLine
 10
5.6798612992125985
 20
-3.848997401574803
 30
0
 11
5.6811220472440942
 21
-3.8410374803149607
 31
0
  0
LINE
  5
141
330
22
100
AcDbEntity
  8
B.Cu
  6
CONTINUOUS
100
AcDbLine
 10
5.6811220472440942
 20
-3.8410374803149607
 30
0
 11
5.6811220472440942
 21
-3.8329782677165354
 31
0
  0
LINE
  5
142
330
22
100
AcDbEntity
  8
B.Cu
  6
CONTINUOUS
100
AcDbLine
 10
5.6811220472440942
 20
-3.8329782677165354
 30
0
 11
5.6810908661417319
 21
-3.8327814173228347
 31
0
  0
LINE
  5
143
330
22
100
AcDbEntity
  8
B.Cu
  6
CONTINUOUS
100
AcDbLine
 10
5.6810908661417319
 20
-3.8327814173228347
 30
0
 11
5.6798612992125985
 21
-3.8250183464566927
 31
0
  0
LINE
  5
144
330
22
100
AcDbEntity
  8
B.Cu
  6
CONTINUOUS
100
AcDbLine
 10
5.6798612992125985
 20
-3.8250183464566927
 30
0
 11
5.6797973228346459
 21
-3.824821496062992
 31
0
  0
LINE
  5
145
330
22
100
AcDbEntity
  8
B.Cu
  6
CONTINUOUS
100
AcDbLine
 10
5.6797973228346459
 20
-3.824821496062992
 30
0
 11
5.6773707874015749
 21
-3.8173533858267716
 31
0
  0
LINE
  5
146
330
22
100
AcDbEntity
  8
B.Cu
  6
CONTINUOUS
100
AcDbLine
 10
5.6773707874015749
 20
-3.8173533858267716
 30
0
 11
5.6760434251968501
 21
-3.8147483070866142
 31
0
  0
LINE
  5
147
330
22
100
AcDbEntity
  8
B.Cu
  6
CONTINUOUS
100
AcDbLine
 10
5.6760434251968501
 20
-3.8147483070866142
 30
0
 11
5.6737120866141728
 21
-3.8101728346456691
 31
0
  0
LINE
  5
148
330
22
100
AcDbEntity
  8
B.Cu
  6
CONTINUOUS
100
AcDbLine
 10
5.6737120866141728
 20
-3.8101728346456691
 30
0
 11
5.6734077165354329
 21
-3.8097538976377954
 31
0
  0
LINE
  5
149
330
22
100
AcDbEntity
  8
B.Cu
  6
CONTINUOUS
100
AcDbLine
 10
5.6734077165354329
 20
-3.8097538976377954
 30
0
 11
5.6689752362204722
 21
-3.8036529921259841
 31
0
  0
LINE
  5
14A
330
22
100
AcDbEntity
  8
B.Cu
  6
CONTINUOUS
100
AcDbLine
 10
5.6689752362204722
 20
-3.8036529921259841
 30
0
 11
5.6632761023622047
 21
-3.7979538582677166
 31
0
  0
LINE
  5
14B
330
22
100
AcDbEntity
  8
B.Cu
  6
CONTINUOUS
100
AcDbLine
 10
5.6632761023622047
 20
-3.7979538582677166
 30
0
 11
5.6567564173228346
 21
-3.7932171259842518
 31
0
  0
LINE
  5
14C
330
22
100
AcDbEntity
  8
B.Cu
  6
CONTINUOUS
100
AcDbLine
 10
5.6567564173228346
 20
-3.7932171259842518
 30
0
 11
5.6567563779527559
 21
-3.793217086614173
 31
0
  0
LINE
  5
14D
330
22
100
AcDbEntity
  8
B.Cu
  6
CONTINUOUS
100
AcDbLine
 10
5.6567563779527559
 20
-3.793217086614173
 30
0
 11
5.6567562992125984
 21
-3.7932170472440943
 31
0
  0
LINE
  5
14E
330
22
100
AcDbEntity
  8
B.Cu
  6
CONTINUOUS
100
AcDbLine
 10
5.6567562992125984
 20
-3.7932170472440943
 30
0
 11
5.6545138976377949
 21
-3.7920744488188975
 31
0
  0
LINE
  5
14F
330
22
100
AcDbEntity
  8
B.Cu
  6
CONTINUOUS
100
AcDbLine
 10
5.6545138976377949
 20
-3.7920744488188975
 30
0
 11
5.6495757086614171
 21
-3.7895583070866139
 31
0
  0
LINE
  5
150
330
22
100
AcDbEntity
  8
B.Cu
  6
CONTINUOUS
100
AcDbLine
 10
5.6495757086614171
 20
-3.7895583070866139
 30
0
 11
5.6419107874015744
 21
-3.7870677952755907
 31
0
  0
LINE
  5
151
330
22
100
AcDbEntity
  8
B.Cu
  6
CONTINUOUS
100
AcDbLine
 10
5.6419107874015744
 20
-3.7870677952755907
 30
0
 11
5.6350391732283462
 21
-3.7859794488188974
 31
0
  0
LINE
  5
152
330
22
100
AcDbEntity
  8
B.Cu
  6
CONTINUOUS
100
AcDbLine
 10
5.6350391732283462
 20
-3.7859794488188974
 30
0
 11
5.6339508661417321
 21
-3.7858070866141733
 31
0
  0
LINE
  5
153
330
22
100
AcDbEntity
  8
B.Cu
  6
CONTINUOUS
100
AcDbLine
 10
5.6339508661417321
 20
-3.7858070866141733
 30
0
 11
5.6258916535433068
 21
-3.7858070866141733
 31
0
  0
LINE
  5
154
330
22
100
AcDbEntity
  8
B.Cu
  6
CONTINUOUS
100
AcDbLine
 10
5.6258916535433068
 20
-3.7858070866141733
 30
0
 11
5.6249342125984247
 21
-3.7859587007874014
 31
0
  0
LINE
  5
155
330
22
100
AcDbEntity
  8
B.Cu
  6
CONTINUOUS
100
AcDbLine
 10
5.6249342125984247
 20
-3.7859587007874014
 30
0
 11
5.6179316929133858
 21
-3.7870677952755907
 31
0
  0
LINE
  5
156
330
22
100
AcDbEntity
  8
B.Cu
  6
CONTINUOUS
100
AcDbLine
 10
5.6179316929133858
 20
-3.7870677952755907
 30
0
 11
5.610266771653543
 21
-3.7895583070866139
 31
0
  0
LINE
  5
157
330
22
100
AcDbEntity
  8
B.Cu
  6
CONTINUOUS
100
AcDbLine
 10
5.610266771653543
 20
-3.7895583070866139
 30
0
 11
5.6030860629921255
 21
-3.7932171259842518
 31
0
  0
LINE
  5
158
330
22
100
AcDbEntity
  8
B.Cu
  6
CONTINUOUS
100
AcDbLine
 10
5.6030860629921255
 20
-3.7932171259842518
 30
0
 11
5.5965663779527555
 21
-3.7979538582677166
 31
0
  0
LINE
  5
159
330
22
100
AcDbEntity
  8
B.Cu
  6
CONTINUOUS
100
AcDbLine
 10
5.5965663779527555
 20
-3.7979538582677166
 30
0
 11
5.590867244094488
 21
-3.8036529921259841
 31
0
  0
LINE
  5
15A
330
22
100
AcDbEntity
  8
B.Cu
  6
CONTINUOUS
100
AcDbLine
 10
5.590867244094488
 20
-3.8036529921259841
 30
0
 11
5.5861305118110236
 21
-3.8101726771653541
 31
0
  0
LINE
  5
15B
330
22
100
AcDbEntity
  8
B.Cu
  6
CONTINUOUS
100
AcDbLine
 10
5.5861305118110236
 20
-3.8101726771653541
 30
0
 11
5.5824716929133853
 21
-3.8173533858267716
 31
0
  0
LINE
  5
15C
330
22
100
AcDbEntity
  8
B.Cu
  6
CONTINUOUS
100
AcDbLine
 10
5.5824716929133853
 20
-3.8173533858267716
 30
0
 11
5.5799811811023625
 21
-3.8250183070866139
 31
0
  0
LINE
  5
15D
330
22
100
AcDbEntity
  8
B.Cu
  6
CONTINUOUS
100
AcDbLine
 10
5.5799811811023625
 20
-3.8250183070866139
 30
0
 11
5.5787204724409447
 21
-3.8329782677165354
 31
0
  0
LINE
  5
15E
330
22
100
AcDbEntity
  8
B.Cu
  6
CONTINUOUS
100
AcDbLine
 10
5.5787204724409447
 20
-3.8329782677165354
 30
0
 11
5.5787204724409447
 21
-3.841037440944882
 31
0
  0
LINE
  5
15F
330
22
100
AcDbEntity
  8
B.Cu
  6
CONTINUOUS
100
AcDbLine
 10
6.1102165354330706
 20
-3.8408405905511809
 30
0
 11
6.1114772440944884
 21
-3.8488005511811023
 31
0
  0
LINE
  5
160
330
22
100
AcDbEntity
  8
B.Cu
  6
CONTINUOUS
100
AcDbLine
 10
6.1114772440944884
 20
-3.8488005511811023
 30
0
 11
6.1139677559055121
 21
-3.8564654724409446
 31
0
  0
LINE
  5
161
330
22
100
AcDbEntity
  8
B.Cu
  6
CONTINUOUS
100
AcDbLine
 10
6.1139677559055121
 20
-3.8564654724409446
 30
0
 11
6.1176265748031495
 21
-3.8636461811023621
 31
0
  0
LINE
  5
162
330
22
100
AcDbEntity
  8
B.Cu
  6
CONTINUOUS
100
AcDbLine
 10
6.1176265748031495
 20
-3.8636461811023621
 30
0
 11
6.1223633070866139
 21
-3.8701658661417322
 31
0
  0
LINE
  5
163
330
22
100
AcDbEntity
  8
B.Cu
  6
CONTINUOUS
100
AcDbLine
 10
6.1223633070866139
 20
-3.8701658661417322
 30
0
 11
6.1280624409448814
 21
-3.8758650000000001
 31
0
  0
LINE
  5
164
330
22
100
AcDbEntity
  8
B.Cu
  6
CONTINUOUS
100
AcDbLine
 10
6.1280624409448814
 20
-3.8758650000000001
 30
0
 11
6.1341633464566927
 21
-3.8802974803149604
 31
0
  0
LINE
  5
165
330
22
100
AcDbEntity
  8
B.Cu
  6
CONTINUOUS
100
AcDbLine
 10
6.1341633464566927
 20
-3.8802974803149604
 30
0
 11
6.1345822834645665
 21
-3.8806018503937008
 31
0
  0
LINE
  5
166
330
22
100
AcDbEntity
  8
B.Cu
  6
CONTINUOUS
100
AcDbLine
 10
6.1345822834645665
 20
-3.8806018503937008
 30
0
 11
6.1381826771653545
 21
-3.8824363385826772
 31
0
  0
LINE
  5
167
330
22
100
AcDbEntity
  8
B.Cu
  6
CONTINUOUS
100
AcDbLine
 10
6.1381826771653545
 20
-3.8824363385826772
 30
0
 11
6.1382314960629918
 21
-3.8824612204724409
 31
0
  0
LINE
  5
168
330
22
100
AcDbEntity
  8
B.Cu
  6
CONTINUOUS
100
AcDbLine
 10
6.1382314960629918
 20
-3.8824612204724409
 30
0
 11
6.1402313385826774
 21
-3.88435
 31
0
  0
LINE
  5
169
330
22
100
AcDbEntity
  8
B.Cu
  6
CONTINUOUS
100
AcDbLine
 10
6.1402313385826774
 20
-3.88435
 30
0
 11
6.1408925590551178
 21
-3.887020118110236
 31
0
  0
LINE
  5
16A
330
22
100
AcDbEntity
  8
B.Cu
  6
CONTINUOUS
100
AcDbLine
 10
6.1408925590551178
 20
-3.887020118110236
 30
0
 11
6.1400052755905508
 21
-3.8896238582677163
 31
0
  0
LINE
  5
16B
330
22
100
AcDbEntity
  8
B.Cu
  6
CONTINUOUS
100
AcDbLine
 10
6.1400052755905508
 20
-3.8896238582677163
 30
0
 11
6.1382314960629918
 21
-3.8911608267716535
 31
0
  0
LINE
  5
16C
330
22
100
AcDbEntity
  8
B.Cu
  6
CONTINUOUS
100
AcDbLine
 10
6.1382314960629918
 20
-3.8911608267716535
 30
0
 11
6.1345821259842515
 21
-3.8930202755905512
 31
0
  0
LINE
  5
16D
330
22
100
AcDbEntity
  8
B.Cu
  6
CONTINUOUS
100
AcDbLine
 10
6.1345821259842515
 20
-3.8930202755905512
 30
0
 11
6.1280624409448814
 21
-3.8977570078740156
 31
0
  0
LINE
  5
16E
330
22
100
AcDbEntity
  8
B.Cu
  6
CONTINUOUS
100
AcDbLine
 10
6.1280624409448814
 20
-3.8977570078740156
 30
0
 11
6.1223633070866139
 21
-3.9034561417322835
 31
0
  0
LINE
  5
16F
330
22
100
AcDbEntity
  8
B.Cu
  6
CONTINUOUS
100
AcDbLine
 10
6.1223633070866139
 20
-3.9034561417322835
 30
0
 11
6.1176265748031495
 21
-3.9099758267716536
 31
0
  0
LINE
  5
170
330
22
100
AcDbEntity
  8
B.Cu
  6
CONTINUOUS
100
AcDbLine
 10
6.1176265748031495
 20
-3.9099758267716536
 30
0
 11
6.1139677559055121
 21
-3.9171565354330706
 31
0
  0
LINE
  5
171
330
22
100
AcDbEntity
  8
B.Cu
  6
CONTINUOUS
100
AcDbLine
 10
6.1139677559055121
 20
-3.9171565354330706
 30
0
 11
6.1114772440944884
 21
-3.9248214566929134
 31
0
  0
LINE
  5
172
330
22
100
AcDbEntity
  8
B.Cu
  6
CONTINUOUS
100
AcDbLine
 10
6.1114772440944884
 20
-3.9248214566929134
 30
0
 11
6.1102165354330706
 21
-3.9327814173228344
 31
0
  0
LINE
  5
173
330
22
100
AcDbEntity
  8
B.Cu
  6
CONTINUOUS
100
AcDbLine
 10
6.1102165354330706
 20
-3.9327814173228344
 30
0
 11
6.1102165354330706
 21
-3.940840590551181
 31
0
  0
LINE
  5
174
330
22
100
AcDbEntity
  8
B.Cu
  6
CONTINUOUS
100
AcDbLine
 10
6.1102165354330706
 20
-3.940840590551181
 30
0
 11
6.1114772440944884
 21
-3.9488005511811024
 31
0
  0
LINE
  5
175
330
22
100
AcDbEntity
  8
B.Cu
  6
CONTINUOUS
100
AcDbLine
 10
6.1114772440944884
 20
-3.9488005511811024
 30
0
 11
6.1139677559055121
 21
-3.9564654724409447
 31
0
  0
LINE
  5
176
330
22
100
AcDbEntity
  8
B.Cu
  6
CONTINUOUS
100
AcDbLine
 10
6.1139677559055121
 20
-3.9564654724409447
 30
0
 11
6.1176265748031495
 21
-3.9636461811023622
 31
0
  0
LINE
  5
177
330
22
100
AcDbEntity
  8
B.Cu
  6
CONTINUOUS
100
AcDbLine
 10
6.1176265748031495
 20
-3.9636461811023622
 30
0
 11
6.1223633070866139
 21
-3.9701658661417323
 31
0
  0
LINE
  5
178
330
22
100
AcDbEntity
  8
B.Cu
  6
CONTINUOUS
100
AcDbLine
 10
6.1223633070866139
 20
-3.9701658661417323
 30
0
 11
6.1280624409448814
 21
-3.9758649999999998
 31
0
  0
LINE
  5
179
330
22
100
AcDbEntity
  8
B.Cu
  6
CONTINUOUS
100
AcDbLine
 10
6.1280624409448814
 20
-3.9758649999999998
 30
0
 11
6.1341633464566927
 21
-3.9802974803149604
 31
0
  0
LINE
  5
17A
330
22
100
AcDbEntity
  8
B.Cu
  6
CONTINUOUS
100
AcDbLine
 10
6.1341633464566927
 20
-3.9802974803149604
 30
0
 11
6.1345822834645665
 21
-3.9806018503937008
 31
0
  0
LINE
  5
17B
330
22
100
AcDbEntity
  8
B.Cu
  6
CONTINUOUS
100
AcDbLine
 10
6.1345822834645665
 20
-3.9806018503937008
 30
0
 11
6.1391577559055115
 21
-3.9829331889763777
 31
0
  0
LINE
  5
17C
330
22
100
AcDbEntity
  8
B.Cu
  6
CONTINUOUS
100
AcDbLine
 10
6.1391577559055115
 20
-3.9829331889763777
 30
0
 11
6.141762834645669
 21
-3.9842605511811024
 31
0
  0
LINE
  5
17D
330
22
100
AcDbEntity
  8
B.Cu
  6
CONTINUOUS
100
AcDbLine
 10
6.141762834645669
 20
-3.9842605511811024
 30
0
 11
6.1417629133858265
 21
-3.9842605511811024
 31
0
  0
LINE
  5
17E
330
22
100
AcDbEntity
  8
B.Cu
  6
CONTINUOUS
100
AcDbLine
 10
6.1417629133858265
 20
-3.9842605511811024
 30
0
 11
6.1417630314960627
 21
-3.98426062992126
 31
0
  0
LINE
  5
17F
330
22
100
AcDbEntity
  8
B.Cu
  6
CONTINUOUS
100
AcDbLine
 10
6.1417630314960627
 20
-3.98426062992126
 30
0
 11
6.1458715354330709
 21
-3.9855955511811021
 31
0
  0
LINE
  5
180
330
22
100
AcDbEntity
  8
B.Cu
  6
CONTINUOUS
100
AcDbLine
 10
6.1458715354330709
 20
-3.9855955511811021
 30
0
 11
6.1494277559055117
 21
-3.9867510629921257
 31
0
  0
LINE
  5
181
330
22
100
AcDbEntity
  8
B.Cu
  6
CONTINUOUS
100
AcDbLine
 10
6.1494277559055117
 20
-3.9867510629921257
 30
0
 11
6.1506706299212599
 21
-3.9869479133858268
 31
0
  0
LINE
  5
182
330
22
100
AcDbEntity
  8
B.Cu
  6
CONTINUOUS
100
AcDbLine
 10
6.1506706299212599
 20
-3.9869479133858268
 30
0
 11
6.1573877165354327
 21
-3.9880118110236218
 31
0
  0
LINE
  5
183
330
22
100
AcDbEntity
  8
B.Cu
  6
CONTINUOUS
100
AcDbLine
 10
6.1573877165354327
 20
-3.9880118110236218
 30
0
 11
6.1573877559055115
 21
-3.9880118110236218
 31
0
  0
LINE
  5
184
330
22
100
AcDbEntity
  8
B.Cu
  6
CONTINUOUS
100
AcDbLine
 10
6.1573877559055115
 20
-3.9880118110236218
 30
0
 11
6.1654468897637793
 21
-3.9880118110236218
 31
0
  0
LINE
  5
185
330
22
100
AcDbEntity
  8
B.Cu
  6
CONTINUOUS
100
AcDbLine
 10
6.1654468897637793
 20
-3.9880118110236218
 30
0
 11
6.1654469291338581
 21
-3.9880118110236218
 31
0
  0
LINE
  5
186
330
22
100
AcDbEntity
  8
B.Cu
  6
CONTINUOUS
100
AcDbLine
 10
6.1654469291338581
 20
-3.9880118110236218
 30
0
 11
6.1734068503937003
 21
-3.9867510629921257
 31
0
  0
LINE
  5
187
330
22
100
AcDbEntity
  8
B.Cu
  6
CONTINUOUS
100
AcDbLine
 10
6.1734068503937003
 20
-3.9867510629921257
 30
0
 11
6.181071614173228
 21
-3.98426062992126
 31
0
  0
LINE
  5
188
330
22
100
AcDbEntity
  8
B.Cu
  6
CONTINUOUS
100
AcDbLine
 10
6.181071614173228
 20
-3.98426062992126
 30
0
 11
6.1882523622047243
 21
-3.9806018503937008
 31
0
  0
LINE
  5
189
330
22
100
AcDbEntity
  8
B.Cu
  6
CONTINUOUS
100
AcDbLine
 10
6.1882523622047243
 20
-3.9806018503937008
 30
0
 11
6.1919129921259843
 21
-3.9779422047244095
 31
0
  0
LINE
  5
18A
330
22
100
AcDbEntity
  8
B.Cu
  6
CONTINUOUS
100
AcDbLine
 10
6.1919129921259843
 20
-3.9779422047244095
 30
0
 11
6.1947721653543306
 21
-3.9758649999999998
 31
0
  0
LINE
  5
18B
330
22
100
AcDbEntity
  8
B.Cu
  6
CONTINUOUS
100
AcDbLine
 10
6.1947721653543306
 20
-3.9758649999999998
 30
0
 11
6.1947722440944881
 21
-3.9758648818897635
 31
0
  0
LINE
  5
18C
330
22
100
AcDbEntity
  8
B.Cu
  6
CONTINUOUS
100
AcDbLine
 10
6.1947722440944881
 20
-3.9758648818897635
 30
0
 11
6.1947724015748031
 21
-3.975864803149606
 31
0
  0
LINE
  5
18D
330
22
100
AcDbEntity
  8
B.Cu
  6
CONTINUOUS
100
AcDbLine
 10
6.1947724015748031
 20
-3.975864803149606
 30
0
 11
6.2004711023622043
 21
-3.9701661023622048
 31
0
  0
LINE
  5
18E
330
22
100
AcDbEntity
  8
B.Cu
  6
CONTINUOUS
100
AcDbLine
 10
6.2004711023622043
 20
-3.9701661023622048
 30
0
 11
6.2004711811023618
 21
-3.9701659448818898
 31
0
  0
LINE
  5
18F
330
22
100
AcDbEntity
  8
B.Cu
  6
CONTINUOUS
100
AcDbLine
 10
6.2004711811023618
 20
-3.9701659448818898
 30
0
 11
6.2004712992125981
 21
-3.9701658661417323
 31
0
  0
LINE
  5
190
330
22
100
AcDbEntity
  8
B.Cu
  6
CONTINUOUS
100
AcDbLine
 10
6.2004712992125981
 20
-3.9701658661417323
 30
0
 11
6.2025485039370079
 21
-3.9673066929133856
 31
0
  0
LINE
  5
191
330
22
100
AcDbEntity
  8
B.Cu
  6
CONTINUOUS
100
AcDbLine
 10
6.2025485039370079
 20
-3.9673066929133856
 30
0
 11
6.2052081496062987
 21
-3.963646062992126
 31
0
  0
LINE
  5
192
330
22
100
AcDbEntity
  8
B.Cu
  6
CONTINUOUS
100
AcDbLine
 10
6.2052081496062987
 20
-3.963646062992126
 30
0
 11
6.2088669291338583
 21
-3.9564653149606297
 31
0
  0
LINE
  5
193
330
22
100
AcDbEntity
  8
B.Cu
  6
CONTINUOUS
100
AcDbLine
 10
6.2088669291338583
 20
-3.9564653149606297
 30
0
 11
6.2113573622047245
 21
-3.9488005511811024
 31
0
  0
LINE
  5
194
330
22
100
AcDbEntity
  8
B.Cu
  6
CONTINUOUS
100
AcDbLine
 10
6.2113573622047245
 20
-3.9488005511811024
 30
0
 11
6.2126181102362201
 21
-3.9408406299212597
 31
0
  0
LINE
  5
195
330
22
100
AcDbEntity
  8
B.Cu
  6
CONTINUOUS
100
AcDbLine
 10
6.2126181102362201
 20
-3.9408406299212597
 30
0
 11
6.2126181102362201
 21
-3.9327814173228344
 31
0
  0
LINE
  5
196
330
22
100
AcDbEntity
  8
B.Cu
  6
CONTINUOUS
100
AcDbLine
 10
6.2126181102362201
 20
-3.9327814173228344
 30
0
 11
6.2113573622047245
 21
-3.9248214960629921
 31
0
  0
LINE
  5
197
330
22
100
AcDbEntity
  8
B.Cu
  6
CONTINUOUS
100
AcDbLine
 10
6.2113573622047245
 20
-3.9248214960629921
 30
0
 11
6.2088669291338583
 21
-3.9171567322834644
 31
0
  0
LINE
  5
198
330
22
100
AcDbEntity
  8
B.Cu
  6
CONTINUOUS
100
AcDbLine
 10
6.2088669291338583
 20
-3.9171567322834644
 30
0
 11
6.2088668503937008
 21
-3.9171566141732281
 31
0
  0
LINE
  5
199
330
22
100
AcDbEntity
  8
B.Cu
  6
CONTINUOUS
100
AcDbLine
 10
6.2088668503937008
 20
-3.9171566141732281
 30
0
 11
6.2088668503937008
 21
-3.9171565354330706
 31
0
  0
LINE
  5
19A
330
22
100
AcDbEntity
  8
B.Cu
  6
CONTINUOUS
100
AcDbLine
 10
6.2088668503937008
 20
-3.9171565354330706
 30
0
 11
6.2075394881889761
 21
-3.9145514566929132
 31
0
  0
LINE
  5
19B
330
22
100
AcDbEntity
  8
B.Cu
  6
CONTINUOUS
100
AcDbLine
 10
6.2075394881889761
 20
-3.9145514566929132
 30
0
 11
6.2052081496062987
 21
-3.9099759842519686
 31
0
  0
LINE
  5
19C
330
22
100
AcDbEntity
  8
B.Cu
  6
CONTINUOUS
100
AcDbLine
 10
6.2052081496062987
 20
-3.9099759842519686
 30
0
 11
6.2049037795275588
 21
-3.9095570472440944
 31
0
  0
LINE
  5
19D
330
22
100
AcDbEntity
  8
B.Cu
  6
CONTINUOUS
100
AcDbLine
 10
6.2049037795275588
 20
-3.9095570472440944
 30
0
 11
6.2004712992125981
 21
-3.9034561417322835
 31
0
  0
LINE
  5
19E
330
22
100
AcDbEntity
  8
B.Cu
  6
CONTINUOUS
100
AcDbLine
 10
6.2004712992125981
 20
-3.9034561417322835
 30
0
 11
6.1947721653543306
 21
-3.8977570078740156
 31
0
  0
LINE
  5
19F
330
22
100
AcDbEntity
  8
B.Cu
  6
CONTINUOUS
100
AcDbLine
 10
6.1947721653543306
 20
-3.8977570078740156
 30
0
 11
6.1882525196850393
 21
-3.8930202755905512
 31
0
  0
LINE
  5
1A0
330
22
100
AcDbEntity
  8
B.Cu
  6
CONTINUOUS
100
AcDbLine
 10
6.1882525196850393
 20
-3.8930202755905512
 30
0
 11
6.1879923622047244
 21
-3.8928877165354332
 31
0
  0
LINE
  5
1A1
330
22
100
AcDbEntity
  8
B.Cu
  6
CONTINUOUS
100
AcDbLine
 10
6.1879923622047244
 20
-3.8928877165354332
 30
0
 11
6.1846030314960627
 21
-3.891160748031496
 31
0
  0
LINE
  5
1A2
330
22
100
AcDbEntity
  8
B.Cu
  6
CONTINUOUS
100
AcDbLine
 10
6.1846030314960627
 20
-3.891160748031496
 30
0
 11
6.1826032677165355
 21
-3.8892720866141732
 31
0
  0
LINE
  5
1A3
330
22
100
AcDbEntity
  8
B.Cu
  6
CONTINUOUS
100
AcDbLine
 10
6.1826032677165355
 20
-3.8892720866141732
 30
0
 11
6.1819420472440942
 21
-3.8866019685039368
 31
0
  0
LINE
  5
1A4
330
22
100
AcDbEntity
  8
B.Cu
  6
CONTINUOUS
100
AcDbLine
 10
6.1819420472440942
 20
-3.8866019685039368
 30
0
 11
6.1828293307086613
 21
-3.8839982283464565
 31
0
  0
LINE
  5
1A5
330
22
100
AcDbEntity
  8
B.Cu
  6
CONTINUOUS
100
AcDbLine
 10
6.1828293307086613
 20
-3.8839982283464565
 30
0
 11
6.1846030314960627
 21
-3.8824612598425197
 31
0
  0
LINE
  5
1A6
330
22
100
AcDbEntity
  8
B.Cu
  6
CONTINUOUS
100
AcDbLine
 10
6.1846030314960627
 20
-3.8824612598425197
 30
0
 11
6.1882523622047243
 21
-3.8806018503937008
 31
0
  0
LINE
  5
1A7
330
22
100
AcDbEntity
  8
B.Cu
  6
CONTINUOUS
100
AcDbLine
 10
6.1882523622047243
 20
-3.8806018503937008
 30
0
 11
6.1890854330708658
 21
-3.8799965748031493
 31
0
  0
LINE
  5
1A8
330
22
100
AcDbEntity
  8
B.Cu
  6
CONTINUOUS
100
AcDbLine
 10
6.1890854330708658
 20
-3.8799965748031493
 30
0
 11
6.1947721653543306
 21
-3.8758650000000001
 31
0
  0
LINE
  5
1A9
330
22
100
AcDbEntity
  8
B.Cu
  6
CONTINUOUS
100
AcDbLine
 10
6.1947721653543306
 20
-3.8758650000000001
 30
0
 11
6.1947722440944881
 21
-3.8758648818897639
 31
0
  0
LINE
  5
1AA
330
22
100
AcDbEntity
  8
B.Cu
  6
CONTINUOUS
100
AcDbLine
 10
6.1947722440944881
 20
-3.8758648818897639
 30
0
 11
6.1947724015748031
 21
-3.8758648031496064
 31
0
  0
LINE
  5
1AB
330
22
100
AcDbEntity
  8
B.Cu
  6
CONTINUOUS
100
AcDbLine
 10
6.1947724015748031
 20
-3.8758648031496064
 30
0
 11
6.2004711023622043
 21
-3.8701661023622047
 31
0
  0
LINE
  5
1AC
330
22
100
AcDbEntity
  8
B.Cu
  6
CONTINUOUS
100
AcDbLine
 10
6.2004711023622043
 20
-3.8701661023622047
 30
0
 11
6.2004711811023618
 21
-3.8701659448818897
 31
0
  0
LINE
  5
1AD
330
22
100
AcDbEntity
  8
B.Cu
  6
CONTINUOUS
100
AcDbLine
 10
6.2004711811023618
 20
-3.8701659448818897
 30
0
 11
6.2004712992125981
 21
-3.8701658661417322
 31
0
  0
LINE
  5
1AE
330
22
100
AcDbEntity
  8
B.Cu
  6
CONTINUOUS
100
AcDbLine
 10
6.2004712992125981
 20
-3.8701658661417322
 30
0
 11
6.2025485039370079
 21
-3.8673066929133859
 31
0
  0
LINE
  5
1AF
330
22
100
AcDbEntity
  8
B.Cu
  6
CONTINUOUS
100
AcDbLine
 10
6.2025485039370079
 20
-3.8673066929133859
 30
0
 11
6.2052081496062987
 21
-3.8636460629921259
 31
0
  0
LINE
  5
1B0
330
22
100
AcDbEntity
  8
B.Cu
  6
CONTINUOUS
100
AcDbLine
 10
6.2052081496062987
 20
-3.8636460629921259
 30
0
 11
6.2088669291338583
 21
-3.8564653149606301
 31
0
  0
LINE
  5
1B1
330
22
100
AcDbEntity
  8
B.Cu
  6
CONTINUOUS
100
AcDbLine
 10
6.2088669291338583
 20
-3.8564653149606301
 30
0
 11
6.2113573622047245
 21
-3.8488005511811023
 31
0
  0
LINE
  5
1B2
330
22
100
AcDbEntity
  8
B.Cu
  6
CONTINUOUS
100
AcDbLine
 10
6.2113573622047245
 20
-3.8488005511811023
 30
0
 11
6.2126181102362201
 21
-3.8408406299212596
 31
0
  0
LINE
  5
1B3
330
22
100
AcDbEntity
  8
B.Cu
  6
CONTINUOUS
100
AcDbLine
 10
6.2126181102362201
 20
-3.8408406299212596
 30
0
 11
6.2126181102362201
 21
-3.8327814173228347
 31
0
  0
LINE
  5
1B4
330
22
100
AcDbEntity
  8
B.Cu
  6
CONTINUOUS
100
AcDbLine
 10
6.2126181102362201
 20
-3.8327814173228347
 30
0
 11
6.2113573622047245
 21
-3.824821496062992
 31
0
  0
LINE
  5
1B5
330
22
100
AcDbEntity
  8
B.Cu
  6
CONTINUOUS
100
AcDbLine
 10
6.2113573622047245
 20
-3.824821496062992
 30
0
 11
6.2088669291338583
 21
-3.8171567322834643
 31
0
  0
LINE
  5
1B6
330
22
100
AcDbEntity
  8
B.Cu
  6
CONTINUOUS
100
AcDbLine
 10
6.2088669291338583
 20
-3.8171567322834643
 30
0
 11
6.2088668503937008
 21
-3.817156614173228
 31
0
  0
LINE
  5
1B7
330
22
100
AcDbEntity
  8
B.Cu
  6
CONTINUOUS
100
AcDbLine
 10
6.2088668503937008
 20
-3.817156614173228
 30
0
 11
6.2088668503937008
 21
-3.817156535433071
 31
0
  0
LINE
  5
1B8
330
22
100
AcDbEntity
  8
B.Cu
  6
CONTINUOUS
100
AcDbLine
 10
6.2088668503937008
 20
-3.817156535433071
 30
0
 11
6.2075394881889761
 21
-3.8145514566929135
 31
0
  0
LINE
  5
1B9
330
22
100
AcDbEntity
  8
B.Cu
  6
CONTINUOUS
100
AcDbLine
 10
6.2075394881889761
 20
-3.8145514566929135
 30
0
 11
6.2052081496062987
 21
-3.8099759842519685
 31
0
  0
LINE
  5
1BA
330
22
100
AcDbEntity
  8
B.Cu
  6
CONTINUOUS
100
AcDbLine
 10
6.2052081496062987
 20
-3.8099759842519685
 30
0
 11
6.2049037795275588
 21
-3.8095570472440943
 31
0
  0
LINE
  5
1BB
330
22
100
AcDbEntity
  8
B.Cu
  6
CONTINUOUS
100
AcDbLine
 10
6.2049037795275588
 20
-3.8095570472440943
 30
0
 11
6.2004712992125981
 21
-3.8034561417322834
 31
0
  0
LINE
  5
1BC
330
22
100
AcDbEntity
  8
B.Cu
  6
CONTINUOUS
100
AcDbLine
 10
6.2004712992125981
 20
-3.8034561417322834
 30
0
 11
6.1947721653543306
 21
-3.7977570078740155
 31
0
  0
LINE
  5
1BD
330
22
100
AcDbEntity
  8
B.Cu
  6
CONTINUOUS
100
AcDbLine
 10
6.1947721653543306
 20
-3.7977570078740155
 30
0
 11
6.1882524803149606
 21
-3.7930202755905511
 31
0
  0
LINE
  5
1BE
330
22
100
AcDbEntity
  8
B.Cu
  6
CONTINUOUS
100
AcDbLine
 10
6.1882524803149606
 20
-3.7930202755905511
 30
0
 11
6.1882524409448818
 21
-3.7930202362204724
 31
0
  0
LINE
  5
1BF
330
22
100
AcDbEntity
  8
B.Cu
  6
CONTINUOUS
100
AcDbLine
 10
6.1882524409448818
 20
-3.7930202362204724
 30
0
 11
6.1882523622047243
 21
-3.7930201968503936
 31
0
  0
LINE
  5
1C0
330
22
100
AcDbEntity
  8
B.Cu
  6
CONTINUOUS
100
AcDbLine
 10
6.1882523622047243
 20
-3.7930201968503936
 30
0
 11
6.1860099606299208
 21
-3.7918775984251969
 31
0
  0
LINE
  5
1C1
330
22
100
AcDbEntity
  8
B.Cu
  6
CONTINUOUS
100
AcDbLine
 10
6.1860099606299208
 20
-3.7918775984251969
 30
0
 11
6.181071771653543
 21
-3.7893614566929132
 31
0
  0
LINE
  5
1C2
330
22
100
AcDbEntity
  8
B.Cu
  6
CONTINUOUS
100
AcDbLine
 10
6.181071771653543
 20
-3.7893614566929132
 30
0
 11
6.1734068503937003
 21
-3.7868709448818896
 31
0
  0
LINE
  5
1C3
330
22
100
AcDbEntity
  8
B.Cu
  6
CONTINUOUS
100
AcDbLine
 10
6.1734068503937003
 20
-3.7868709448818896
 30
0
 11
6.1665352362204722
 21
-3.7857825984251967
 31
0
  0
LINE
  5
1C4
330
22
100
AcDbEntity
  8
B.Cu
  6
CONTINUOUS
100
AcDbLine
 10
6.1665352362204722
 20
-3.7857825984251967
 30
0
 11
6.1654469291338581
 21
-3.7856102362204722
 31
0
  0
LINE
  5
1C5
330
22
100
AcDbEntity
  8
B.Cu
  6
CONTINUOUS
100
AcDbLine
 10
6.1654469291338581
 20
-3.7856102362204722
 30
0
 11
6.1573877165354327
 21
-3.7856102362204722
 31
0
  0
LINE
  5
1C6
330
22
100
AcDbEntity
  8
B.Cu
  6
CONTINUOUS
100
AcDbLine
 10
6.1573877165354327
 20
-3.7856102362204722
 30
0
 11
6.1564302755905507
 21
-3.7857618503937007
 31
0
  0
LINE
  5
1C7
330
22
100
AcDbEntity
  8
B.Cu
  6
CONTINUOUS
100
AcDbLine
 10
6.1564302755905507
 20
-3.7857618503937007
 30
0
 11
6.1494277559055117
 21
-3.7868709448818896
 31
0
  0
LINE
  5
1C8
330
22
100
AcDbEntity
  8
B.Cu
  6
CONTINUOUS
100
AcDbLine
 10
6.1494277559055117
 20
-3.7868709448818896
 30
0
 11
6.141762834645669
 21
-3.7893614566929132
 31
0
  0
LINE
  5
1C9
330
22
100
AcDbEntity
  8
B.Cu
  6
CONTINUOUS
100
AcDbLine
 10
6.141762834645669
 20
-3.7893614566929132
 30
0
 11
6.1345821259842515
 21
-3.7930202755905511
 31
0
  0
LINE
  5
1CA
330
22
100
AcDbEntity
  8
B.Cu
  6
CONTINUOUS
100
AcDbLine
 10
6.1345821259842515
 20
-3.7930202755905511
 30
0
 11
6.1280624409448814
 21
-3.7977570078740155
 31
0
  0
LINE
  5
1CB
330
22
100
AcDbEntity
  8
B.Cu
  6
CONTINUOUS
100
AcDbLine
 10
6.1280624409448814
 20
-3.7977570078740155
 30
0
 11
6.1223633070866139
 21
-3.8034561417322834
 31
0
  0
LINE
  5
1CC
330
22
100
AcDbEntity
  8
B.Cu
  6
CONTINUOUS
100
AcDbLine
 10
6.1223633070866139
 20
-3.8034561417322834
 30
0
 11
6.1176265748031495
 21
-3.8099758267716535
 31
0
  0
LINE
  5
1CD
330
22
100
AcDbEntity
  8
B.Cu
  6
CONTINUOUS
100
AcDbLine
 10
6.1176265748031495
 20
-3.8099758267716535
 30
0
 11
6.1139677559055121
 21
-3.817156535433071
 31
0
  0
LINE
  5
1CE
330
22
100
AcDbEntity
  8
B.Cu
  6
CONTINUOUS
100
AcDbLine
 10
6.1139677559055121
 20
-3.817156535433071
 30
0
 11
6.1114772440944884
 21
-3.8248214566929133
 31
0
  0
LINE
  5
1CF
330
22
100
AcDbEntity
  8
B.Cu
  6
CONTINUOUS
100
AcDbLine
 10
6.1114772440944884
 20
-3.8248214566929133
 30
0
 11
6.1102165354330706
 21
-3.8327814173228347
 31
0
  0
LINE
  5
1D0
330
22
100
AcDbEntity
  8
B.Cu
  6
CONTINUOUS
100
AcDbLine
 10
6.1102165354330706
 20
-3.8327814173228347
 30
0
 11
6.1102165354330706
 21
-3.8408405905511809
 31
0
  0
LINE
  5
1D1
330
22
100
AcDbEntity
  8
B.Cu
  6
CONTINUOUS
100
AcDbLine
 10
5.7553275984251968
 20
-3.2661860236220472
 30
0
 11
5.7597446062992121
 21
-3.2617689763779527
 31
0
  0
LINE
  5
1D2
330
22
100
AcDbEntity
  8
B.Cu
  6
CONTINUOUS
100
AcDbLine
 10
5.7597446062992121
 20
-3.2617689763779527
 30
0
 11
5.7572344881889759
 21
-3.2599453149606297
 31
0
  0
LINE
  5
1D3
330
22
100
AcDbEntity
  8
B.Cu
  6
CONTINUOUS
100
AcDbLine
 10
5.7572344881889759
 20
-3.2599453149606297
 30
0
 11
5.7495043307086613
 21
-3.2560065748031497
 31
0
  0
LINE
  5
1D4
330
22
100
AcDbEntity
  8
B.Cu
  6
CONTINUOUS
100
AcDbLine
 10
5.7495043307086613
 20
-3.2560065748031497
 30
0
 11
5.7412533464566931
 21
-3.2533257086614173
 31
0
  0
LINE
  5
1D5
330
22
100
AcDbEntity
  8
B.Cu
  6
CONTINUOUS
100
AcDbLine
 10
5.7412533464566931
 20
-3.2533257086614173
 30
0
 11
5.7326842913385825
 21
-3.2519685039370079
 31
0
  0
LINE
  5
1D6
330
22
100
AcDbEntity
  8
B.Cu
  6
CONTINUOUS
100
AcDbLine
 10
5.7326842913385825
 20
-3.2519685039370079
 30
0
 11
5.7322834645669287
 21
-3.2519685039370079
 31
0
  0
LINE
  5
1D7
330
22
100
AcDbEntity
  8
B.Cu
  6
CONTINUOUS
100
AcDbLine
 10
5.7322834645669287
 20
-3.2519685039370079
 30
0
 11
5.7322834645669287
 21
-3.2719164566929133
 31
0
  0
LINE
  5
1D8
330
22
100
AcDbEntity
  8
B.Cu
  6
CONTINUOUS
100
AcDbLine
 10
5.7322834645669287
 20
-3.2719164566929133
 30
0
 11
5.7386321259842514
 21
-3.2731792913385824
 31
0
  0
LINE
  5
1D9
330
22
100
AcDbEntity
  8
B.Cu
  6
CONTINUOUS
100
AcDbLine
 10
5.7386321259842514
 20
-3.2731792913385824
 30
0
 11
5.7450494881889762
 21
-3.2758374409448816
 31
0
  0
LINE
  5
1DA
330
22
100
AcDbEntity
  8
B.Cu
  6
CONTINUOUS
100
AcDbLine
 10
5.7450494881889762
 20
-3.2758374409448816
 30
0
 11
5.7454251181102363
 21
-3.2760884251968503
 31
0
  0
LINE
  5
1DB
330
22
100
AcDbEntity
  8
B.Cu
  6
CONTINUOUS
100
AcDbLine
 10
5.7454251181102363
 20
-3.2760884251968503
 30
0
 11
5.7517445275590546
 21
-3.269769094488189
 31
0
  0
LINE
  5
1DC
330
22
100
AcDbEntity
  8
B.Cu
  6
CONTINUOUS
100
AcDbLine
 10
5.7517445275590546
 20
-3.269769094488189
 30
0
 11
5.7553275984251968
 21
-3.2661860236220472
 31
0
  0
LINE
  5
1DD
330
22
100
AcDbEntity
  8
B.Cu
  6
CONTINUOUS
100
AcDbLine
 10
5.6969482283464563
 20
-3.3524041338582675
 30
0
 11
5.6969482283464563
 21
-3.3524041732283463
 31
0
  0
LINE
  5
1DE
330
22
100
AcDbEntity
  8
B.Cu
  6
CONTINUOUS
100
AcDbLine
 10
5.6969482283464563
 20
-3.3524041732283463
 30
0
 11
5.6994583858267713
 21
-3.3542278740157481
 31
0
  0
LINE
  5
1DF
330
22
100
AcDbEntity
  8
B.Cu
  6
CONTINUOUS
100
AcDbLine
 10
5.6994583858267713
 20
-3.3542278740157481
 30
0
 11
5.7071885433070868
 21
-3.3581666141732285
 31
0
  0
LINE
  5
1E0
330
22
100
AcDbEntity
  8
B.Cu
  6
CONTINUOUS
100
AcDbLine
 10
5.7071885433070868
 20
-3.3581666141732285
 30
0
 11
5.715439527559055
 21
-3.3608474803149604
 31
0
  0
LINE
  5
1E1
330
22
100
AcDbEntity
  8
B.Cu
  6
CONTINUOUS
100
AcDbLine
 10
5.715439527559055
 20
-3.3608474803149604
 30
0
 11
5.7240086220472444
 21
-3.3622047244094486
 31
0
  0
LINE
  5
1E2
330
22
100
AcDbEntity
  8
B.Cu
  6
CONTINUOUS
100
AcDbLine
 10
5.7240086220472444
 20
-3.3622047244094486
 30
0
 11
5.7326842913385825
 21
-3.3622047244094486
 31
0
  0
LINE
  5
1E3
330
22
100
AcDbEntity
  8
B.Cu
  6
CONTINUOUS
100
AcDbLine
 10
5.7326842913385825
 20
-3.3622047244094486
 30
0
 11
5.7412533464566931
 21
-3.3608474803149604
 31
0
  0
LINE
  5
1E4
330
22
100
AcDbEntity
  8
B.Cu
  6
CONTINUOUS
100
AcDbLine
 10
5.7412533464566931
 20
-3.3608474803149604
 30
0
 11
5.7495043307086613
 21
-3.3581666141732285
 31
0
  0
LINE
  5
1E5
330
22
100
AcDbEntity
  8
B.Cu
  6
CONTINUOUS
100
AcDbLine
 10
5.7495043307086613
 20
-3.3581666141732285
 30
0
 11
5.7572346456692909
 21
-3.3542277952755906
 31
0
  0
LINE
  5
1E6
330
22
100
AcDbEntity
  8
B.Cu
  6
CONTINUOUS
100
AcDbLine
 10
5.7572346456692909
 20
-3.3542277952755906
 30
0
 11
5.7597446062992121
 21
-3.3524041732283463
 31
0
  0
LINE
  5
1E7
330
22
100
AcDbEntity
  8
B.Cu
  6
CONTINUOUS
100
AcDbLine
 10
5.7597446062992121
 20
-3.3524041732283463
 30
0
 11
5.7597446456692909
 21
-3.3524041732283463
 31
0
  0
LINE
  5
1E8
330
22
100
AcDbEntity
  8
B.Cu
  6
CONTINUOUS
100
AcDbLine
 10
5.7597446456692909
 20
-3.3524041732283463
 30
0
 11
5.7454251968503938
 21
-3.3380847244094487
 31
0
  0
LINE
  5
1E9
330
22
100
AcDbEntity
  8
B.Cu
  6
CONTINUOUS
100
AcDbLine
 10
5.7454251968503938
 20
-3.3380847244094487
 30
0
 11
5.7450494881889762
 21
-3.3383357874015749
 31
0
  0
LINE
  5
1EA
330
22
100
AcDbEntity
  8
B.Cu
  6
CONTINUOUS
100
AcDbLine
 10
5.7450494881889762
 20
-3.3383357874015749
 30
0
 11
5.7386321259842514
 21
-3.3409939370078741
 31
0
  0
LINE
  5
1EB
330
22
100
AcDbEntity
  8
B.Cu
  6
CONTINUOUS
100
AcDbLine
 10
5.7386321259842514
 20
-3.3409939370078741
 30
0
 11
5.7318194881889761
 21
-3.3423490551181101
 31
0
  0
LINE
  5
1EC
330
22
100
AcDbEntity
  8
B.Cu
  6
CONTINUOUS
100
AcDbLine
 10
5.7318194881889761
 20
-3.3423490551181101
 30
0
 11
5.7248734251968498
 21
-3.3423490551181101
 31
0
  0
LINE
  5
1ED
330
22
100
AcDbEntity
  8
B.Cu
  6
CONTINUOUS
100
AcDbLine
 10
5.7248734251968498
 20
-3.3423490551181101
 30
0
 11
5.7180607874015745
 21
-3.3409939370078741
 31
0
  0
LINE
  5
1EE
330
22
100
AcDbEntity
  8
B.Cu
  6
CONTINUOUS
100
AcDbLine
 10
5.7180607874015745
 20
-3.3409939370078741
 30
0
 11
5.7116434251968506
 21
-3.3383357874015749
 31
0
  0
LINE
  5
1EF
330
22
100
AcDbEntity
  8
B.Cu
  6
CONTINUOUS
100
AcDbLine
 10
5.7116434251968506
 20
-3.3383357874015749
 30
0
 11
5.7112676377952756
 21
-3.3380846850393699
 31
0
  0
LINE
  5
1F0
330
22
100
AcDbEntity
  8
B.Cu
  6
CONTINUOUS
100
AcDbLine
 10
5.7112676377952756
 20
-3.3380846850393699
 30
0
 11
5.6969482283464563
 21
-3.3524041338582675
 31
0
  0
LINE
  5
1F1
330
22
100
AcDbEntity
  8
B.Cu
  6
CONTINUOUS
100
AcDbLine
 10
6.2300190944881892
 20
-3.3524041338582675
 30
0
 11
6.2300190944881892
 21
-3.3524041732283463
 31
0
  0
LINE
  5
1F2
330
22
100
AcDbEntity
  8
B.Cu
  6
CONTINUOUS
100
AcDbLine
 10
6.2300190944881892
 20
-3.3524041732283463
 30
0
 11
6.2325292519685034
 21
-3.3542278740157481
 31
0
  0
LINE
  5
1F3
330
22
100
AcDbEntity
  8
B.Cu
  6
CONTINUOUS
100
AcDbLine
 10
6.2325292519685034
 20
-3.3542278740157481
 30
0
 11
6.2402594094488189
 21
-3.3581666141732285
 31
0
  0
LINE
  5
1F4
330
22
100
AcDbEntity
  8
B.Cu
  6
CONTINUOUS
100
AcDbLine
 10
6.2402594094488189
 20
-3.3581666141732285
 30
0
 11
6.2485103937007871
 21
-3.3608474803149604
 31
0
  0
LINE
  5
1F5
330
22
100
AcDbEntity
  8
B.Cu
  6
CONTINUOUS
100
AcDbLine
 10
6.2485103937007871
 20
-3.3608474803149604
 30
0
 11
6.2570794881889764
 21
-3.3622047244094486
 31
0
  0
LINE
  5
1F6
330
22
100
AcDbEntity
  8
B.Cu
  6
CONTINUOUS
100
AcDbLine
 10
6.2570794881889764
 20
-3.3622047244094486
 30
0
 11
6.2657551574803145
 21
-3.3622047244094486
 31
0
  0
LINE
  5
1F7
330
22
100
AcDbEntity
  8
B.Cu
  6
CONTINUOUS
100
AcDbLine
 10
6.2657551574803145
 20
-3.3622047244094486
 30
0
 11
6.2743242125984251
 21
-3.3608474803149604
 31
0
  0
LINE
  5
1F8
330
22
100
AcDbEntity
  8
B.Cu
  6
CONTINUOUS
100
AcDbLine
 10
6.2743242125984251
 20
-3.3608474803149604
 30
0
 11
6.2825751968503933
 21
-3.3581666141732285
 31
0
  0
LINE
  5
1F9
330
22
100
AcDbEntity
  8
B.Cu
  6
CONTINUOUS
100
AcDbLine
 10
6.2825751968503933
 20
-3.3581666141732285
 30
0
 11
6.2903055118110238
 21
-3.3542277952755906
 31
0
  0
LINE
  5
1FA
330
22
100
AcDbEntity
  8
B.Cu
  6
CONTINUOUS
100
AcDbLine
 10
6.2903055118110238
 20
-3.3542277952755906
 30
0
 11
6.2928154724409451
 21
-3.3524041732283463
 31
0
  0
LINE
  5
1FB
330
22
100
AcDbEntity
  8
B.Cu
  6
CONTINUOUS
100
AcDbLine
 10
6.2928154724409451
 20
-3.3524041732283463
 30
0
 11
6.2928155118110238
 21
-3.3524041732283463
 31
0
  0
LINE
  5
1FC
330
22
100
AcDbEntity
  8
B.Cu
  6
CONTINUOUS
100
AcDbLine
 10
6.2928155118110238
 20
-3.3524041732283463
 30
0
 11
6.2784960629921258
 21
-3.3380847244094487
 31
0
  0
LINE
  5
1FD
330
22
100
AcDbEntity
  8
B.Cu
  6
CONTINUOUS
100
AcDbLine
 10
6.2784960629921258
 20
-3.3380847244094487
 30
0
 11
6.2781203543307083
 21
-3.3383357874015749
 31
0
  0
LINE
  5
1FE
330
22
100
AcDbEntity
  8
B.Cu
  6
CONTINUOUS
100
AcDbLine
 10
6.2781203543307083
 20
-3.3383357874015749
 30
0
 11
6.2717029921259844
 21
-3.3409939370078741
 31
0
  0
LINE
  5
1FF
330
22
100
AcDbEntity
  8
B.Cu
  6
CONTINUOUS
100
AcDbLine
 10
6.2717029921259844
 20
-3.3409939370078741
 30
0
 11
6.2648903543307082
 21
-3.3423490551181101
 31
0
  0
LINE
  5
200
330
22
100
AcDbEntity
  8
B.Cu
  6
CONTINUOUS
100
AcDbLine
 10
6.2648903543307082
 20
-3.3423490551181101
 30
0
 11
6.2579442913385828
 21
-3.3423490551181101
 31
0
  0
LINE
  5
201
330
22
100
AcDbEntity
  8
B.Cu
  6
CONTINUOUS
100
AcDbLine
 10
6.2579442913385828
 20
-3.3423490551181101
 30
0
 11
6.2511316535433066
 21
-3.3409939370078741
 31
0
  0
LINE
  5
202
330
22
100
AcDbEntity
  8
B.Cu
  6
CONTINUOUS
100
AcDbLine
 10
6.2511316535433066
 20
-3.3409939370078741
 30
0
 11
6.2447142913385827
 21
-3.3383357874015749
 31
0
  0
LINE
  5
203
330
22
100
AcDbEntity
  8
B.Cu
  6
CONTINUOUS
100
AcDbLine
 10
6.2447142913385827
 20
-3.3383357874015749
 30
0
 11
6.2443385039370076
 21
-3.3380846850393699
 31
0
  0
LINE
  5
204
330
22
100
AcDbEntity
  8
B.Cu
  6
CONTINUOUS
100
AcDbLine
 10
6.2443385039370076
 20
-3.3380846850393699
 30
0
 11
6.2300190944881892
 21
-3.3524041338582675
 31
0
  0
LINE
  5
205
330
22
100
AcDbEntity
  8
B.Cu
  6
CONTINUOUS
100
AcDbLine
 10
5.5732086614173229
 20
-3.3444043307086613
 30
0
 11
5.5732087007874016
 21
-3.3444045669291338
 31
0
  0
LINE
  5
206
330
22
100
AcDbEntity
  8
B.Cu
  6
CONTINUOUS
100
AcDbLine
 10
5.5732087007874016
 20
-3.3444045669291338
 30
0
 11
5.5734609448818899
 21
-3.3467512992125985
 31
0
  0
LINE
  5
207
330
22
100
AcDbEntity
  8
B.Cu
  6
CONTINUOUS
100
AcDbLine
 10
5.5734609448818899
 20
-3.3467512992125985
 30
0
 11
5.5754410236220471
 21
-3.3520601574803148
 31
0
  0
LINE
  5
208
330
22
100
AcDbEntity
  8
B.Cu
  6
CONTINUOUS
100
AcDbLine
 10
5.5754410236220471
 20
-3.3520601574803148
 30
0
 11
5.5754411811023621
 21
-3.3520604330708661
 31
0
  0
LINE
  5
209
330
22
100
AcDbEntity
  8
B.Cu
  6
CONTINUOUS
100
AcDbLine
 10
5.5754411811023621
 20
-3.3520604330708661
 30
0
 11
5.5788366929133861
 21
-3.3565962204724409
 31
0
  0
LINE
  5
20A
330
22
100
AcDbEntity
  8
B.Cu
  6
CONTINUOUS
100
AcDbLine
 10
5.5788366929133861
 20
-3.3565962204724409
 30
0
 11
5.5788368110236215
 21
-3.3565963385826771
 31
0
  0
LINE
  5
20B
330
22
100
AcDbEntity
  8
B.Cu
  6
CONTINUOUS
100
AcDbLine
 10
5.5788368110236215
 20
-3.3565963385826771
 30
0
 11
5.5833725984251963
 21
-3.3599918503937007
 31
0
  0
LINE
  5
20C
330
22
100
AcDbEntity
  8
B.Cu
  6
CONTINUOUS
100
AcDbLine
 10
5.5833725984251963
 20
-3.3599918503937007
 30
0
 11
5.5833728740157476
 21
-3.3599920078740158
 31
0
  0
LINE
  5
20D
330
22
100
AcDbEntity
  8
B.Cu
  6
CONTINUOUS
100
AcDbLine
 10
5.5833728740157476
 20
-3.3599920078740158
 30
0
 11
5.5886817716535431
 21
-3.3619720866141733
 31
0
  0
LINE
  5
20E
330
22
100
AcDbEntity
  8
B.Cu
  6
CONTINUOUS
100
AcDbLine
 10
5.5886817716535431
 20
-3.3619720866141733
 30
0
 11
5.5886817322834643
 21
-3.3619720866141733
 31
0
  0
LINE
  5
20F
330
22
100
AcDbEntity
  8
B.Cu
  6
CONTINUOUS
100
AcDbLine
 10
5.5886817322834643
 20
-3.3619720866141733
 30
0
 11
5.5889544881889766
 21
-3.362001377952756
 31
0
  0
LINE
  5
210
330
22
100
AcDbEntity
  8
B.Cu
  6
CONTINUOUS
100
AcDbLine
 10
5.5889544881889766
 20
-3.362001377952756
 30
0
 11
5.5910286220472436
 21
-3.3622244094488187
 31
0
  0
LINE
  5
211
330
22
100
AcDbEntity
  8
B.Cu
  6
CONTINUOUS
100
AcDbLine
 10
5.5910286220472436
 20
-3.3622244094488187
 30
0
 11
5.6656642519685034
 21
-3.36222437007874
 31
0
  0
LINE
  5
212
330
22
100
AcDbEntity
  8
B.Cu
  6
CONTINUOUS
100
AcDbLine
 10
5.6656642519685034
 20
-3.36222437007874
 30
0
 11
5.6680111417322836
 21
-3.3619720866141733
 31
0
  0
LINE
  5
213
330
22
100
AcDbEntity
  8
B.Cu
  6
CONTINUOUS
100
AcDbLine
 10
5.6680111417322836
 20
-3.3619720866141733
 30
0
 11
5.6733201181102357
 21
-3.359991968503937
 31
0
  0
LINE
  5
214
330
22
100
AcDbEntity
  8
B.Cu
  6
CONTINUOUS
100
AcDbLine
 10
5.6733201181102357
 20
-3.359991968503937
 30
0
 11
5.677856141732283
 21
-3.3565962992125984
 31
0
  0
LINE
  5
215
330
22
100
AcDbEntity
  8
B.Cu
  6
CONTINUOUS
100
AcDbLine
 10
5.677856141732283
 20
-3.3565962992125984
 30
0
 11
5.6812518110236221
 21
-3.3520602755905511
 31
0
  0
LINE
  5
216
330
22
100
AcDbEntity
  8
B.Cu
  6
CONTINUOUS
100
AcDbLine
 10
5.6812518110236221
 20
-3.3520602755905511
 30
0
 11
5.683231929133858
 21
-3.3467512992125985
 31
0
  0
LINE
  5
217
330
22
100
AcDbEntity
  8
B.Cu
  6
CONTINUOUS
100
AcDbLine
 10
5.683231929133858
 20
-3.3467512992125985
 30
0
 11
5.6834842519685038
 21
-3.3444044488188975
 31
0
  0
LINE
  5
218
330
22
100
AcDbEntity
  8
B.Cu
  6
CONTINUOUS
100
AcDbLine
 10
5.6834842519685038
 20
-3.3444044488188975
 30
0
 11
5.6834842125984251
 21
-3.3400513385826769
 31
0
  0
LINE
  5
219
330
22
100
AcDbEntity
  8
B.Cu
  6
CONTINUOUS
100
AcDbLine
 10
5.6834842125984251
 20
-3.3400513385826769
 30
0
 11
5.6842591732283463
 21
-3.337412125984252
 31
0
  0
LINE
  5
21A
330
22
100
AcDbEntity
  8
B.Cu
  6
CONTINUOUS
100
AcDbLine
 10
5.6842591732283463
 20
-3.337412125984252
 30
0
 11
5.6849140944881889
 21
-3.3365994488188977
 31
0
  0
LINE
  5
21B
330
22
100
AcDbEntity
  8
B.Cu
  6
CONTINUOUS
100
AcDbLine
 10
5.6849140944881889
 20
-3.3365994488188977
 30
0
 11
5.697348267716535
 21
-3.3241652755905511
 31
0
  0
LINE
  5
21C
330
22
100
AcDbEntity
  8
B.Cu
  6
CONTINUOUS
100
AcDbLine
 10
5.697348267716535
 20
-3.3241652755905511
 30
0
 11
5.6970972834645668
 21
-3.3237896456692915
 31
0
  0
LINE
  5
21D
330
22
100
AcDbEntity
  8
B.Cu
  6
CONTINUOUS
100
AcDbLine
 10
5.6970972834645668
 20
-3.3237896456692915
 30
0
 11
5.6944391338582676
 21
-3.3173722834645667
 31
0
  0
LINE
  5
21E
330
22
100
AcDbEntity
  8
B.Cu
  6
CONTINUOUS
100
AcDbLine
 10
5.6944391338582676
 20
-3.3173722834645667
 30
0
 11
5.6930840157480311
 21
-3.3105596456692914
 31
0
  0
LINE
  5
21F
330
22
100
AcDbEntity
  8
B.Cu
  6
CONTINUOUS
100
AcDbLine
 10
5.6930840157480311
 20
-3.3105596456692914
 30
0
 11
5.6930840157480311
 21
-3.3036135826771651
 31
0
  0
LINE
  5
220
330
22
100
AcDbEntity
  8
B.Cu
  6
CONTINUOUS
100
AcDbLine
 10
5.6930840157480311
 20
-3.3036135826771651
 30
0
 11
5.6944391338582676
 21
-3.2968009448818898
 31
0
  0
LINE
  5
221
330
22
100
AcDbEntity
  8
B.Cu
  6
CONTINUOUS
100
AcDbLine
 10
5.6944391338582676
 20
-3.2968009448818898
 30
0
 11
5.6970972834645668
 21
-3.2903835826771655
 31
0
  0
LINE
  5
222
330
22
100
AcDbEntity
  8
B.Cu
  6
CONTINUOUS
100
AcDbLine
 10
5.6970972834645668
 20
-3.2903835826771655
 30
0
 11
5.6973483070866138
 21
-3.2900078740157479
 31
0
  0
LINE
  5
223
330
22
100
AcDbEntity
  8
B.Cu
  6
CONTINUOUS
100
AcDbLine
 10
5.6973483070866138
 20
-3.2900078740157479
 30
0
 11
5.6849140944881889
 21
-3.277573661417323
 31
0
  0
LINE
  5
224
330
22
100
AcDbEntity
  8
B.Cu
  6
CONTINUOUS
100
AcDbLine
 10
5.6849140944881889
 20
-3.277573661417323
 30
0
 11
5.6835957874015746
 21
-3.27515937007874
 31
0
  0
LINE
  5
225
330
22
100
AcDbEntity
  8
B.Cu
  6
CONTINUOUS
100
AcDbLine
 10
5.6835957874015746
 20
-3.27515937007874
 30
0
 11
5.6834842125984251
 21
-3.2741216535433071
 31
0
  0
LINE
  5
226
330
22
100
AcDbEntity
  8
B.Cu
  6
CONTINUOUS
100
AcDbLine
 10
5.6834842125984251
 20
-3.2741216535433071
 30
0
 11
5.6834842125984251
 21
-3.2697688582677165
 31
0
  0
LINE
  5
227
330
22
100
AcDbEntity
  8
B.Cu
  6
CONTINUOUS
100
AcDbLine
 10
5.6834842125984251
 20
-3.2697688582677165
 30
0
 11
5.6834841732283463
 21
-3.2697686220472439
 31
0
  0
LINE
  5
228
330
22
100
AcDbEntity
  8
B.Cu
  6
CONTINUOUS
100
AcDbLine
 10
5.6834841732283463
 20
-3.2697686220472439
 30
0
 11
5.6834841338582676
 21
-3.2697683464566927
 31
0
  0
LINE
  5
229
330
22
100
AcDbEntity
  8
B.Cu
  6
CONTINUOUS
100
AcDbLine
 10
5.6834841338582676
 20
-3.2697683464566927
 30
0
 11
5.683231929133858
 21
-3.267421929133858
 31
0
  0
LINE
  5
22A
330
22
100
AcDbEntity
  8
B.Cu
  6
CONTINUOUS
100
AcDbLine
 10
5.683231929133858
 20
-3.267421929133858
 30
0
 11
5.6812518110236221
 21
-3.2621129527559054
 31
0
  0
LINE
  5
22B
330
22
100
AcDbEntity
  8
B.Cu
  6
CONTINUOUS
100
AcDbLine
 10
5.6812518110236221
 20
-3.2621129527559054
 30
0
 11
5.6812517716535433
 21
-3.2621129133858267
 31
0
  0
LINE
  5
22C
330
22
100
AcDbEntity
  8
B.Cu
  6
CONTINUOUS
100
AcDbLine
 10
5.6812517716535433
 20
-3.2621129133858267
 30
0
 11
5.6812516929133858
 21
-3.2621127559055116
 31
0
  0
LINE
  5
22D
330
22
100
AcDbEntity
  8
B.Cu
  6
CONTINUOUS
100
AcDbLine
 10
5.6812516929133858
 20
-3.2621127559055116
 30
0
 11
5.6778561811023618
 21
-3.2575769685039369
 31
0
  0
LINE
  5
22E
330
22
100
AcDbEntity
  8
B.Cu
  6
CONTINUOUS
100
AcDbLine
 10
5.6778561811023618
 20
-3.2575769685039369
 30
0
 11
5.6778560629921255
 21
-3.2575768503937006
 31
0
  0
LINE
  5
22F
330
22
100
AcDbEntity
  8
B.Cu
  6
CONTINUOUS
100
AcDbLine
 10
5.6778560629921255
 20
-3.2575768503937006
 30
0
 11
5.6733202755905507
 21
-3.254181338582677
 31
0
  0
LINE
  5
230
330
22
100
AcDbEntity
  8
B.Cu
  6
CONTINUOUS
100
AcDbLine
 10
5.6733202755905507
 20
-3.254181338582677
 30
0
 11
5.6733199999999995
 21
-3.254181181102362
 31
0
  0
LINE
  5
231
330
22
100
AcDbEntity
  8
B.Cu
  6
CONTINUOUS
100
AcDbLine
 10
5.6733199999999995
 20
-3.254181181102362
 30
0
 11
5.6680111023622048
 21
-3.2522011023622048
 31
0
  0
LINE
  5
232
330
22
100
AcDbEntity
  8
B.Cu
  6
CONTINUOUS
100
AcDbLine
 10
5.6680111023622048
 20
-3.2522011023622048
 30
0
 11
5.6680111417322836
 21
-3.2522011023622048
 31
0
  0
LINE
  5
233
330
22
100
AcDbEntity
  8
B.Cu
  6
CONTINUOUS
100
AcDbLine
 10
5.6680111417322836
 20
-3.2522011023622048
 30
0
 11
5.6656646850393697
 21
-3.2519488582677165
 31
0
  0
LINE
  5
234
330
22
100
AcDbEntity
  8
B.Cu
  6
CONTINUOUS
100
AcDbLine
 10
5.6656646850393697
 20
-3.2519488582677165
 30
0
 11
5.6656646062992122
 21
-3.2519488188976378
 31
0
  0
LINE
  5
235
330
22
100
AcDbEntity
  8
B.Cu
  6
CONTINUOUS
100
AcDbLine
 10
5.6656646062992122
 20
-3.2519488188976378
 30
0
 11
5.6656642913385822
 21
-3.2519488188976378
 31
0
  0
LINE
  5
236
330
22
100
AcDbEntity
  8
B.Cu
  6
CONTINUOUS
100
AcDbLine
 10
5.6656642913385822
 20
-3.2519488188976378
 30
0
 11
5.6656639370078743
 21
-3.2519488188976378
 31
0
  0
LINE
  5
237
330
22
100
AcDbEntity
  8
B.Cu
  6
CONTINUOUS
100
AcDbLine
 10
5.6656639370078743
 20
-3.2519488188976378
 30
0
 11
5.5910287007874011
 21
-3.2519488188976378
 31
0
  0
LINE
  5
238
330
22
100
AcDbEntity
  8
B.Cu
  6
CONTINUOUS
100
AcDbLine
 10
5.5910287007874011
 20
-3.2519488188976378
 30
0
 11
5.5910284645669286
 21
-3.2519488582677165
 31
0
  0
LINE
  5
239
330
22
100
AcDbEntity
  8
B.Cu
  6
CONTINUOUS
100
AcDbLine
 10
5.5910284645669286
 20
-3.2519488582677165
 30
0
 11
5.5886817322834643
 21
-3.2522011023622048
 31
0
  0
LINE
  5
23A
330
22
100
AcDbEntity
  8
B.Cu
  6
CONTINUOUS
100
AcDbLine
 10
5.5886817322834643
 20
-3.2522011023622048
 30
0
 11
5.5833728740157476
 21
-3.254181181102362
 31
0
  0
LINE
  5
23B
330
22
100
AcDbEntity
  8
B.Cu
  6
CONTINUOUS
100
AcDbLine
 10
5.5833728740157476
 20
-3.254181181102362
 30
0
 11
5.5833725984251963
 21
-3.254181338582677
 31
0
  0
LINE
  5
23C
330
22
100
AcDbEntity
  8
B.Cu
  6
CONTINUOUS
100
AcDbLine
 10
5.5833725984251963
 20
-3.254181338582677
 30
0
 11
5.5788368110236215
 21
-3.2575768503937006
 31
0
  0
LINE
  5
23D
330
22
100
AcDbEntity
  8
B.Cu
  6
CONTINUOUS
100
AcDbLine
 10
5.5788368110236215
 20
-3.2575768503937006
 30
0
 11
5.5788366929133861
 21
-3.2575769685039369
 31
0
  0
LINE
  5
23E
330
22
100
AcDbEntity
  8
B.Cu
  6
CONTINUOUS
100
AcDbLine
 10
5.5788366929133861
 20
-3.2575769685039369
 30
0
 11
5.5754411811023621
 21
-3.2621127559055116
 31
0
  0
LINE
  5
23F
330
22
100
AcDbEntity
  8
B.Cu
  6
CONTINUOUS
100
AcDbLine
 10
5.5754411811023621
 20
-3.2621127559055116
 30
0
 11
5.5754410236220471
 21
-3.2621130314960629
 31
0
  0
LINE
  5
240
330
22
100
AcDbEntity
  8
B.Cu
  6
CONTINUOUS
100
AcDbLine
 10
5.5754410236220471
 20
-3.2621130314960629
 30
0
 11
5.5734609448818899
 21
-3.267421929133858
 31
0
  0
LINE
  5
241
330
22
100
AcDbEntity
  8
B.Cu
  6
CONTINUOUS
100
AcDbLine
 10
5.5734609448818899
 20
-3.267421929133858
 30
0
 11
5.5732087007874016
 21
-3.2697683464566927
 31
0
  0
LINE
  5
242
330
22
100
AcDbEntity
  8
B.Cu
  6
CONTINUOUS
100
AcDbLine
 10
5.5732087007874016
 20
-3.2697683464566927
 30
0
 11
5.5732087007874016
 21
-3.2697686220472439
 31
0
  0
LINE
  5
243
330
22
100
AcDbEntity
  8
B.Cu
  6
CONTINUOUS
100
AcDbLine
 10
5.5732087007874016
 20
-3.2697686220472439
 30
0
 11
5.5732086614173229
 21
-3.269769094488189
 31
0
  0
LINE
  5
244
330
22
100
AcDbEntity
  8
B.Cu
  6
CONTINUOUS
100
AcDbLine
 10
5.5732086614173229
 20
-3.269769094488189
 30
0
 11
5.5732086614173229
 21
-3.3444043307086613
 31
0
  0
LINE
  5
245
330
22
100
AcDbEntity
  8
B.Cu
  6
CONTINUOUS
100
AcDbLine
 10
6.1062795275590549
 20
-3.3444043307086613
 30
0
 11
6.1062795669291337
 21
-3.3444045669291338
 31
0
  0
LINE
  5
246
330
22
100
AcDbEntity
  8
B.Cu
  6
CONTINUOUS
100
AcDbLine
 10
6.1062795669291337
 20
-3.3444045669291338
 30
0
 11
6.106531811023622
 21
-3.3467512992125985
 31
0
  0
LINE
  5
247
330
22
100
AcDbEntity
  8
B.Cu
  6
CONTINUOUS
100
AcDbLine
 10
6.106531811023622
 20
-3.3467512992125985
 30
0
 11
6.1085118897637791
 21
-3.3520601574803148
 31
0
  0
LINE
  5
248
330
22
100
AcDbEntity
  8
B.Cu
  6
CONTINUOUS
100
AcDbLine
 10
6.1085118897637791
 20
-3.3520601574803148
 30
0
 11
6.1085120472440941
 21
-3.3520604330708661
 31
0
  0
LINE
  5
249
330
22
100
AcDbEntity
  8
B.Cu
  6
CONTINUOUS
100
AcDbLine
 10
6.1085120472440941
 20
-3.3520604330708661
 30
0
 11
6.1119075590551182
 21
-3.3565962204724409
 31
0
  0
LINE
  5
24A
330
22
100
AcDbEntity
  8
B.Cu
  6
CONTINUOUS
100
AcDbLine
 10
6.1119075590551182
 20
-3.3565962204724409
 30
0
 11
6.1119076771653544
 21
-3.3565963385826771
 31
0
  0
LINE
  5
24B
330
22
100
AcDbEntity
  8
B.Cu
  6
CONTINUOUS
100
AcDbLine
 10
6.1119076771653544
 20
-3.3565963385826771
 30
0
 11
6.1164434645669292
 21
-3.3599918503937007
 31
0
  0
LINE
  5
24C
330
22
100
AcDbEntity
  8
B.Cu
  6
CONTINUOUS
100
AcDbLine
 10
6.1164434645669292
 20
-3.3599918503937007
 30
0
 11
6.1164437401574805
 21
-3.3599920078740158
 31
0
  0
LINE
  5
24D
330
22
100
AcDbEntity
  8
B.Cu
  6
CONTINUOUS
100
AcDbLine
 10
6.1164437401574805
 20
-3.3599920078740158
 30
0
 11
6.1217526377952751
 21
-3.3619720866141733
 31
0
  0
LINE
  5
24E
330
22
100
AcDbEntity
  8
B.Cu
  6
CONTINUOUS
100
AcDbLine
 10
6.1217526377952751
 20
-3.3619720866141733
 30
0
 11
6.1217525984251964
 21
-3.3619720866141733
 31
0
  0
LINE
  5
24F
330
22
100
AcDbEntity
  8
B.Cu
  6
CONTINUOUS
100
AcDbLine
 10
6.1217525984251964
 20
-3.3619720866141733
 30
0
 11
6.1220253543307086
 21
-3.362001377952756
 31
0
  0
LINE
  5
250
330
22
100
AcDbEntity
  8
B.Cu
  6
CONTINUOUS
100
AcDbLine
 10
6.1220253543307086
 20
-3.362001377952756
 30
0
 11
6.1240994881889765
 21
-3.3622244094488187
 31
0
  0
LINE
  5
251
330
22
100
AcDbEntity
  8
B.Cu
  6
CONTINUOUS
100
AcDbLine
 10
6.1240994881889765
 20
-3.3622244094488187
 30
0
 11
6.1987351181102364
 21
-3.36222437007874
 31
0
  0
LINE
  5
252
330
22
100
AcDbEntity
  8
B.Cu
  6
CONTINUOUS
100
AcDbLine
 10
6.1987351181102364
 20
-3.36222437007874
 30
0
 11
6.2010820078740156
 21
-3.3619720866141733
 31
0
  0
LINE
  5
253
330
22
100
AcDbEntity
  8
B.Cu
  6
CONTINUOUS
100
AcDbLine
 10
6.2010820078740156
 20
-3.3619720866141733
 30
0
 11
6.2063909842519687
 21
-3.359991968503937
 31
0
  0
LINE
  5
254
330
22
100
AcDbEntity
  8
B.Cu
  6
CONTINUOUS
100
AcDbLine
 10
6.2063909842519687
 20
-3.359991968503937
 30
0
 11
6.210927007874016
 21
-3.3565962992125984
 31
0
  0
LINE
  5
255
330
22
100
AcDbEntity
  8
B.Cu
  6
CONTINUOUS
100
AcDbLine
 10
6.210927007874016
 20
-3.3565962992125984
 30
0
 11
6.2143226771653541
 21
-3.3520602755905511
 31
0
  0
LINE
  5
256
330
22
100
AcDbEntity
  8
B.Cu
  6
CONTINUOUS
100
AcDbLine
 10
6.2143226771653541
 20
-3.3520602755905511
 30
0
 11
6.21630279527559
 21
-3.3467512992125985
 31
0
  0
LINE
  5
257
330
22
100
AcDbEntity
  8
B.Cu
  6
CONTINUOUS
100
AcDbLine
 10
6.21630279527559
 20
-3.3467512992125985
 30
0
 11
6.2165551181102359
 21
-3.3444044488188975
 31
0
  0
LINE
  5
258
330
22
100
AcDbEntity
  8
B.Cu
  6
CONTINUOUS
100
AcDbLine
 10
6.2165551181102359
 20
-3.3444044488188975
 30
0
 11
6.2165550787401571
 21
-3.3400513385826769
 31
0
  0
LINE
  5
259
330
22
100
AcDbEntity
  8
B.Cu
  6
CONTINUOUS
100
AcDbLine
 10
6.2165550787401571
 20
-3.3400513385826769
 30
0
 11
6.2173300393700783
 21
-3.337412125984252
 31
0
  0
LINE
  5
25A
330
22
100
AcDbEntity
  8
B.Cu
  6
CONTINUOUS
100
AcDbLine
 10
6.2173300393700783
 20
-3.337412125984252
 30
0
 11
6.2179849606299209
 21
-3.3365994488188977
 31
0
  0
LINE
  5
25B
330
22
100
AcDbEntity
  8
B.Cu
  6
CONTINUOUS
100
AcDbLine
 10
6.2179849606299209
 20
-3.3365994488188977
 30
0
 11
6.230419133858268
 21
-3.3241652755905511
 31
0
  0
LINE
  5
25C
330
22
100
AcDbEntity
  8
B.Cu
  6
CONTINUOUS
100
AcDbLine
 10
6.230419133858268
 20
-3.3241652755905511
 30
0
 11
6.2301681496062988
 21
-3.3237896456692915
 31
0
  0
LINE
  5
25D
330
22
100
AcDbEntity
  8
B.Cu
  6
CONTINUOUS
100
AcDbLine
 10
6.2301681496062988
 20
-3.3237896456692915
 30
0
 11
6.2275099999999997
 21
-3.3173722834645667
 31
0
  0
LINE
  5
25E
330
22
100
AcDbEntity
  8
B.Cu
  6
CONTINUOUS
100
AcDbLine
 10
6.2275099999999997
 20
-3.3173722834645667
 30
0
 11
6.2261548818897641
 21
-3.3105596456692914
 31
0
  0
LINE
  5
25F
330
22
100
AcDbEntity
  8
B.Cu
  6
CONTINUOUS
100
AcDbLine
 10
6.2261548818897641
 20
-3.3105596456692914
 30
0
 11
6.2261548818897641
 21
-3.3036135826771651
 31
0
  0
LINE
  5
260
330
22
100
AcDbEntity
  8
B.Cu
  6
CONTINUOUS
100
AcDbLine
 10
6.2261548818897641
 20
-3.3036135826771651
 30
0
 11
6.2275099999999997
 21
-3.2968009448818898
 31
0
  0
LINE
  5
261
330
22
100
AcDbEntity
  8
B.Cu
  6
CONTINUOUS
100
AcDbLine
 10
6.2275099999999997
 20
-3.2968009448818898
 30
0
 11
6.2301681496062988
 21
-3.2903835826771655
 31
0
  0
LINE
  5
262
330
22
100
AcDbEntity
  8
B.Cu
  6
CONTINUOUS
100
AcDbLine
 10
6.2301681496062988
 20
-3.2903835826771655
 30
0
 11
6.2304191732283467
 21
-3.2900078740157479
 31
0
  0
LINE
  5
263
330
22
100
AcDbEntity
  8
B.Cu
  6
CONTINUOUS
100
AcDbLine
 10
6.2304191732283467
 20
-3.2900078740157479
 30
0
 11
6.2179849606299209
 21
-3.277573661417323
 31
0
  0
LINE
  5
264
330
22
100
AcDbEntity
  8
B.Cu
  6
CONTINUOUS
100
AcDbLine
 10
6.2179849606299209
 20
-3.277573661417323
 30
0
 11
6.2166666535433066
 21
-3.27515937007874
 31
0
  0
LINE
  5
265
330
22
100
AcDbEntity
  8
B.Cu
  6
CONTINUOUS
100
AcDbLine
 10
6.2166666535433066
 20
-3.27515937007874
 30
0
 11
6.2165550787401571
 21
-3.2741216535433071
 31
0
  0
LINE
  5
266
330
22
100
AcDbEntity
  8
B.Cu
  6
CONTINUOUS
100
AcDbLine
 10
6.2165550787401571
 20
-3.2741216535433071
 30
0
 11
6.2165550787401571
 21
-3.2697688582677165
 31
0
  0
LINE
  5
267
330
22
100
AcDbEntity
  8
B.Cu
  6
CONTINUOUS
100
AcDbLine
 10
6.2165550787401571
 20
-3.2697688582677165
 30
0
 11
6.2165550393700784
 21
-3.2697686220472439
 31
0
  0
LINE
  5
268
330
22
100
AcDbEntity
  8
B.Cu
  6
CONTINUOUS
100
AcDbLine
 10
6.2165550393700784
 20
-3.2697686220472439
 30
0
 11
6.2165549999999996
 21
-3.2697683464566927
 31
0
  0
LINE
  5
269
330
22
100
AcDbEntity
  8
B.Cu
  6
CONTINUOUS
100
AcDbLine
 10
6.2165549999999996
 20
-3.2697683464566927
 30
0
 11
6.2163169685039366
 21
-3.2675540551181101
 31
0
  0
LINE
  5
26A
330
22
100
AcDbEntity
  8
B.Cu
  6
CONTINUOUS
100
AcDbLine
 10
6.2163169685039366
 20
-3.2675540551181101
 30
0
 11
6.200949803149606
 21
-3.2521868897637796
 31
0
  0
LINE
  5
26B
330
22
100
AcDbEntity
  8
B.Cu
  6
CONTINUOUS
100
AcDbLine
 10
6.200949803149606
 20
-3.2521868897637796
 30
0
 11
6.1989183070866138
 21
-3.2519685039370079
 31
0
  0
LINE
  5
26C
330
22
100
AcDbEntity
  8
B.Cu
  6
CONTINUOUS
100
AcDbLine
 10
6.1989183070866138
 20
-3.2519685039370079
 30
0
 11
6.1239165748031494
 21
-3.2519685039370079
 31
0
  0
LINE
  5
26D
330
22
100
AcDbEntity
  8
B.Cu
  6
CONTINUOUS
100
AcDbLine
 10
6.1239165748031494
 20
-3.2519685039370079
 30
0
 11
6.1217525984251964
 21
-3.2522011023622048
 31
0
  0
LINE
  5
26E
330
22
100
AcDbEntity
  8
B.Cu
  6
CONTINUOUS
100
AcDbLine
 10
6.1217525984251964
 20
-3.2522011023622048
 30
0
 11
6.1164437401574805
 21
-3.254181181102362
 31
0
  0
LINE
  5
26F
330
22
100
AcDbEntity
  8
B.Cu
  6
CONTINUOUS
100
AcDbLine
 10
6.1164437401574805
 20
-3.254181181102362
 30
0
 11
6.1164434645669292
 21
-3.254181338582677
 31
0
  0
LINE
  5
270
330
22
100
AcDbEntity
  8
B.Cu
  6
CONTINUOUS
100
AcDbLine
 10
6.1164434645669292
 20
-3.254181338582677
 30
0
 11
6.1119076771653544
 21
-3.2575768503937006
 31
0
  0
LINE
  5
271
330
22
100
AcDbEntity
  8
B.Cu
  6
CONTINUOUS
100
AcDbLine
 10
6.1119076771653544
 20
-3.2575768503937006
 30
0
 11
6.1119075590551182
 21
-3.2575769685039369
 31
0
  0
LINE
  5
272
330
22
100
AcDbEntity
  8
B.Cu
  6
CONTINUOUS
100
AcDbLine
 10
6.1119075590551182
 20
-3.2575769685039369
 30
0
 11
6.1085120472440941
 21
-3.2621127559055116
 31
0
  0
LINE
  5
273
330
22
100
AcDbEntity
  8
B.Cu
  6
CONTINUOUS
100
AcDbLine
 10
6.1085120472440941
 20
-3.2621127559055116
 30
0
 11
6.1085118897637791
 21
-3.2621130314960629
 31
0
  0
LINE
  5
274
330
22
100
AcDbEntity
  8
B.Cu
  6
CONTINUOUS
100
AcDbLine
 10
6.1085118897637791
 20
-3.2621130314960629
 30
0
 11
6.106531811023622
 21
-3.267421929133858
 31
0
  0
LINE
  5
275
330
22
100
AcDbEntity
  8
B.Cu
  6
CONTINUOUS
100
AcDbLine
 10
6.106531811023622
 20
-3.267421929133858
 30
0
 11
6.1062795669291337
 21
-3.2697683464566927
 31
0
  0
LINE
  5
276
330
22
100
AcDbEntity
  8
B.Cu
  6
CONTINUOUS
100
AcDbLine
 10
6.1062795669291337
 20
-3.2697683464566927
 30
0
 11
6.1062795669291337
 21
-3.2697686220472439
 31
0
  0
LINE
  5
277
330
22
100
AcDbEntity
  8
B.Cu
  6
CONTINUOUS
100
AcDbLine
 10
6.1062795669291337
 20
-3.2697686220472439
 30
0
 11
6.1062795275590549
 21
-3.269769094488189
 31
0
  0
LINE
  5
278
330
22
100
AcDbEntity
  8
B.Cu
  6
CONTINUOUS
100
AcDbLine
 10
6.1062795275590549
 20
-3.269769094488189
 30
0
 11
6.1062795275590549
 21
-3.3444043307086613
 31
0
  0
LINE
  5
279
330
22
100
AcDbEntity
  8
B.Cu
  6
CONTINUOUS
100
AcDbLine
 10
5.7593445275590547
 20
-3.2900077952755904
 30
0
 11
5.7595956299212601
 21
-3.2903835826771655
 31
0
  0
LINE
  5
27A
330
22
100
AcDbEntity
  8
B.Cu
  6
CONTINUOUS
100
AcDbLine
 10
5.7595956299212601
 20
-3.2903835826771655
 30
0
 11
5.7622537795275592
 21
-3.2968009448818898
 31
0
  0
LINE
  5
27B
330
22
100
AcDbEntity
  8
B.Cu
  6
CONTINUOUS
100
AcDbLine
 10
5.7622537795275592
 20
-3.2968009448818898
 30
0
 11
5.7636088976377948
 21
-3.3036135826771651
 31
0
  0
LINE
  5
27C
330
22
100
AcDbEntity
  8
B.Cu
  6
CONTINUOUS
100
AcDbLine
 10
5.7636088976377948
 20
-3.3036135826771651
 30
0
 11
5.7636088976377948
 21
-3.3105596456692914
 31
0
  0
LINE
  5
27D
330
22
100
AcDbEntity
  8
B.Cu
  6
CONTINUOUS
100
AcDbLine
 10
5.7636088976377948
 20
-3.3105596456692914
 30
0
 11
5.7622537795275592
 21
-3.3173722834645667
 31
0
  0
LINE
  5
27E
330
22
100
AcDbEntity
  8
B.Cu
  6
CONTINUOUS
100
AcDbLine
 10
5.7622537795275592
 20
-3.3173722834645667
 30
0
 11
5.7595956299212601
 21
-3.3237896456692915
 31
0
  0
LINE
  5
27F
330
22
100
AcDbEntity
  8
B.Cu
  6
CONTINUOUS
100
AcDbLine
 10
5.7595956299212601
 20
-3.3237896456692915
 30
0
 11
5.7593445669291334
 21
-3.3241653543307086
 31
0
  0
LINE
  5
280
330
22
100
AcDbEntity
  8
B.Cu
  6
CONTINUOUS
100
AcDbLine
 10
5.7593445669291334
 20
-3.3241653543307086
 30
0
 11
5.7736640157480315
 21
-3.3384848031496062
 31
0
  0
LINE
  5
281
330
22
100
AcDbEntity
  8
B.Cu
  6
CONTINUOUS
100
AcDbLine
 10
5.7736640157480315
 20
-3.3384848031496062
 30
0
 11
5.7736640157480315
 21
-3.3384847637795274
 31
0
  0
LINE
  5
282
330
22
100
AcDbEntity
  8
B.Cu
  6
CONTINUOUS
100
AcDbLine
 10
5.7736640157480315
 20
-3.3384847637795274
 30
0
 11
5.7754876377952753
 21
-3.3359748031496061
 31
0
  0
LINE
  5
283
330
22
100
AcDbEntity
  8
B.Cu
  6
CONTINUOUS
100
AcDbLine
 10
5.7754876377952753
 20
-3.3359748031496061
 30
0
 11
5.7794264566929137
 21
-3.3282444881889761
 31
0
  0
LINE
  5
284
330
22
100
AcDbEntity
  8
B.Cu
  6
CONTINUOUS
100
AcDbLine
 10
5.7794264566929137
 20
-3.3282444881889761
 30
0
 11
5.7821073228346451
 21
-3.3199935039370079
 31
0
  0
LINE
  5
285
330
22
100
AcDbEntity
  8
B.Cu
  6
CONTINUOUS
100
AcDbLine
 10
5.7821073228346451
 20
-3.3199935039370079
 30
0
 11
5.7834645669291334
 21
-3.3114244488188977
 31
0
  0
LINE
  5
286
330
22
100
AcDbEntity
  8
B.Cu
  6
CONTINUOUS
100
AcDbLine
 10
5.7834645669291334
 20
-3.3114244488188977
 30
0
 11
5.7834645669291334
 21
-3.3027487401574804
 31
0
  0
LINE
  5
287
330
22
100
AcDbEntity
  8
B.Cu
  6
CONTINUOUS
100
AcDbLine
 10
5.7834645669291334
 20
-3.3027487401574804
 30
0
 11
5.7821073228346451
 21
-3.2941796850393699
 31
0
  0
LINE
  5
288
330
22
100
AcDbEntity
  8
B.Cu
  6
CONTINUOUS
100
AcDbLine
 10
5.7821073228346451
 20
-3.2941796850393699
 30
0
 11
5.7794264566929137
 21
-3.2859287007874016
 31
0
  0
LINE
  5
289
330
22
100
AcDbEntity
  8
B.Cu
  6
CONTINUOUS
100
AcDbLine
 10
5.7794264566929137
 20
-3.2859287007874016
 30
0
 11
5.7754877165354328
 21
-3.2781985433070866
 31
0
  0
LINE
  5
28A
330
22
100
AcDbEntity
  8
B.Cu
  6
CONTINUOUS
100
AcDbLine
 10
5.7754877165354328
 20
-3.2781985433070866
 30
0
 11
5.7736640157480315
 21
-3.2756883858267716
 31
0
  0
LINE
  5
28B
330
22
100
AcDbEntity
  8
B.Cu
  6
CONTINUOUS
100
AcDbLine
 10
5.7736640157480315
 20
-3.2756883858267716
 30
0
 11
5.7736639763779527
 21
-3.2756883858267716
 31
0
  0
LINE
  5
28C
330
22
100
AcDbEntity
  8
B.Cu
  6
CONTINUOUS
100
AcDbLine
 10
5.7736639763779527
 20
-3.2756883858267716
 30
0
 11
5.7593445275590547
 21
-3.2900077952755904
 31
0
  0
LINE
  5
28D
330
22
100
AcDbEntity
  8
B.Cu
  6
CONTINUOUS
100
AcDbLine
 10
6.2924153937007876
 20
-3.2900077952755904
 30
0
 11
6.2926664960629921
 21
-3.2903835826771655
 31
0
  0
LINE
  5
28E
330
22
100
AcDbEntity
  8
B.Cu
  6
CONTINUOUS
100
AcDbLine
 10
6.2926664960629921
 20
-3.2903835826771655
 30
0
 11
6.2953246456692913
 21
-3.2968009448818898
 31
0
  0
LINE
  5
28F
330
22
100
AcDbEntity
  8
B.Cu
  6
CONTINUOUS
100
AcDbLine
 10
6.2953246456692913
 20
-3.2968009448818898
 30
0
 11
6.2966797637795278
 21
-3.3036135826771651
 31
0
  0
LINE
  5
290
330
22
100
AcDbEntity
  8
B.Cu
  6
CONTINUOUS
100
AcDbLine
 10
6.2966797637795278
 20
-3.3036135826771651
 30
0
 11
6.2966797637795278
 21
-3.3105596456692914
 31
0
  0
LINE
  5
291
330
22
100
AcDbEntity
  8
B.Cu
  6
CONTINUOUS
100
AcDbLine
 10
6.2966797637795278
 20
-3.3105596456692914
 30
0
 11
6.2953246456692913
 21
-3.3173722834645667
 31
0
  0
LINE
  5
292
330
22
100
AcDbEntity
  8
B.Cu
  6
CONTINUOUS
100
AcDbLine
 10
6.2953246456692913
 20
-3.3173722834645667
 30
0
 11
6.2926664960629921
 21
-3.3237896456692915
 31
0
  0
LINE
  5
293
330
22
100
AcDbEntity
  8
B.Cu
  6
CONTINUOUS
100
AcDbLine
 10
6.2926664960629921
 20
-3.3237896456692915
 30
0
 11
6.2924154330708664
 21
-3.3241653543307086
 31
0
  0
LINE
  5
294
330
22
100
AcDbEntity
  8
B.Cu
  6
CONTINUOUS
100
AcDbLine
 10
6.2924154330708664
 20
-3.3241653543307086
 30
0
 11
6.3067348818897635
 21
-3.3384848031496062
 31
0
  0
LINE
  5
295
330
22
100
AcDbEntity
  8
B.Cu
  6
CONTINUOUS
100
AcDbLine
 10
6.3067348818897635
 20
-3.3384848031496062
 30
0
 11
6.3067348818897635
 21
-3.3384847637795274
 31
0
  0
LINE
  5
296
330
22
100
AcDbEntity
  8
B.Cu
  6
CONTINUOUS
100
AcDbLine
 10
6.3067348818897635
 20
-3.3384847637795274
 30
0
 11
6.3085585039370073
 21
-3.3359748031496061
 31
0
  0
LINE
  5
297
330
22
100
AcDbEntity
  8
B.Cu
  6
CONTINUOUS
100
AcDbLine
 10
6.3085585039370073
 20
-3.3359748031496061
 30
0
 11
6.3124973228346457
 21
-3.3282444881889761
 31
0
  0
LINE
  5
298
330
22
100
AcDbEntity
  8
B.Cu
  6
CONTINUOUS
100
AcDbLine
 10
6.3124973228346457
 20
-3.3282444881889761
 30
0
 11
6.3151781889763781
 21
-3.3199935039370079
 31
0
  0
LINE
  5
299
330
22
100
AcDbEntity
  8
B.Cu
  6
CONTINUOUS
100
AcDbLine
 10
6.3151781889763781
 20
-3.3199935039370079
 30
0
 11
6.3165354330708663
 21
-3.3114244488188977
 31
0
  0
LINE
  5
29A
330
22
100
AcDbEntity
  8
B.Cu
  6
CONTINUOUS
100
AcDbLine
 10
6.3165354330708663
 20
-3.3114244488188977
 30
0
 11
6.3165354330708663
 21
-3.3027487401574804
 31
0
  0
LINE
  5
29B
330
22
100
AcDbEntity
  8
B.Cu
  6
CONTINUOUS
100
AcDbLine
 10
6.3165354330708663
 20
-3.3027487401574804
 30
0
 11
6.3151781889763781
 21
-3.2941796850393699
 31
0
  0
LINE
  5
29C
330
22
100
AcDbEntity
  8
B.Cu
  6
CONTINUOUS
100
AcDbLine
 10
6.3151781889763781
 20
-3.2941796850393699
 30
0
 11
6.3124973228346457
 21
-3.2859287007874016
 31
0
  0
LINE
  5
29D
330
22
100
AcDbEntity
  8
B.Cu
  6
CONTINUOUS
100
AcDbLine
 10
6.3124973228346457
 20
-3.2859287007874016
 30
0
 11
6.3085585826771648
 21
-3.2781985433070866
 31
0
  0
LINE
  5
29E
330
22
100
AcDbEntity
  8
B.Cu
  6
CONTINUOUS
100
AcDbLine
 10
6.3085585826771648
 20
-3.2781985433070866
 30
0
 11
6.3067348818897635
 21
-3.2756883858267716
 31
0
  0
LINE
  5
29F
330
22
100
AcDbEntity
  8
B.Cu
  6
CONTINUOUS
100
AcDbLine
 10
6.3067348818897635
 20
-3.2756883858267716
 30
0
 11
6.3067348425196847
 21
-3.2756883858267716
 31
0
  0
LINE
  5
2A0
330
22
100
AcDbEntity
  8
B.Cu
  6
CONTINUOUS
100
AcDbLine
 10
6.3067348425196847
 20
-3.2756883858267716
 30
0
 11
6.2924153937007876
 21
-3.2900077952755904
 31
0
  0
LINE
  5
2A1
330
22
100
AcDbEntity
  8
B.Cu
  6
CONTINUOUS
100
AcDbLine
 10
5.1239960629921262
 20
-3.2915860629921259
 30
0
 11
5.1247281496062991
 21
-3.2962084251968502
 31
0
  0
LINE
  5
2A2
330
22
100
AcDbEntity
  8
B.Cu
  6
CONTINUOUS
100
AcDbLine
 10
5.1247281496062991
 20
-3.2962084251968502
 30
0
 11
5.1253052755905513
 21
-3.2998520866141732
 31
0
  0
LINE
  5
2A3
330
22
100
AcDbEntity
  8
B.Cu
  6
CONTINUOUS
100
AcDbLine
 10
5.1253052755905513
 20
-3.2998520866141732
 30
0
 11
5.1276559055118112
 21
-3.3070865748031495
 31
0
  0
LINE
  5
2A4
330
22
100
AcDbEntity
  8
B.Cu
  6
CONTINUOUS
100
AcDbLine
 10
5.1276559055118112
 20
-3.3070865748031495
 30
0
 11
5.1278914960629924
 21
-3.3078115748031496
 31
0
  0
LINE
  5
2A5
330
22
100
AcDbEntity
  8
B.Cu
  6
CONTINUOUS
100
AcDbLine
 10
5.1278914960629924
 20
-3.3078115748031496
 30
0
 11
5.1316909842519687
 21
-3.3152685039370078
 31
0
  0
LINE
  5
2A6
330
22
100
AcDbEntity
  8
B.Cu
  6
CONTINUOUS
100
AcDbLine
 10
5.1316909842519687
 20
-3.3152685039370078
 30
0
 11
5.1366098425196851
 21
-3.3220388188976377
 31
0
  0
LINE
  5
2A7
330
22
100
AcDbEntity
  8
B.Cu
  6
CONTINUOUS
100
AcDbLine
 10
5.1366098425196851
 20
-3.3220388188976377
 30
0
 11
5.1425280708661418
 21
-3.3279570472440945
 31
0
  0
LINE
  5
2A8
330
22
100
AcDbEntity
  8
B.Cu
  6
CONTINUOUS
100
AcDbLine
 10
5.1425280708661418
 20
-3.3279570472440945
 30
0
 11
5.1492983858267714
 21
-3.3328759055118109
 31
0
  0
LINE
  5
2A9
330
22
100
AcDbEntity
  8
B.Cu
  6
CONTINUOUS
100
AcDbLine
 10
5.1492983858267714
 20
-3.3328759055118109
 30
0
 11
5.1492984645669289
 21
-3.3328759448818897
 31
0
  0
LINE
  5
2AA
330
22
100
AcDbEntity
  8
B.Cu
  6
CONTINUOUS
100
AcDbLine
 10
5.1492984645669289
 20
-3.3328759448818897
 30
0
 11
5.1492985826771651
 21
-3.3328760236220472
 31
0
  0
LINE
  5
2AB
330
22
100
AcDbEntity
  8
B.Cu
  6
CONTINUOUS
100
AcDbLine
 10
5.1492985826771651
 20
-3.3328760236220472
 30
0
 11
5.1567554330708658
 21
-3.3366754724409446
 31
0
  0
LINE
  5
2AC
330
22
100
AcDbEntity
  8
B.Cu
  6
CONTINUOUS
100
AcDbLine
 10
5.1567554330708658
 20
-3.3366754724409446
 30
0
 11
5.1647148425196852
 21
-3.3392616535433071
 31
0
  0
LINE
  5
2AD
330
22
100
AcDbEntity
  8
B.Cu
  6
CONTINUOUS
100
AcDbLine
 10
5.1647148425196852
 20
-3.3392616535433071
 30
0
 11
5.1729808267716537
 21
-3.3405708661417322
 31
0
  0
LINE
  5
2AE
330
22
100
AcDbEntity
  8
B.Cu
  6
CONTINUOUS
100
AcDbLine
 10
5.1729808267716537
 20
-3.3405708661417322
 30
0
 11
5.1729808661417325
 21
-3.3405708661417322
 31
0
  0
LINE
  5
2AF
330
22
100
AcDbEntity
  8
B.Cu
  6
CONTINUOUS
100
AcDbLine
 10
5.1729808661417325
 20
-3.3405708661417322
 30
0
 11
5.1813498425196851
 21
-3.3405708661417322
 31
0
  0
LINE
  5
2B0
330
22
100
AcDbEntity
  8
B.Cu
  6
CONTINUOUS
100
AcDbLine
 10
5.1813498425196851
 20
-3.3405708661417322
 30
0
 11
5.1813498818897639
 21
-3.3405708661417322
 31
0
  0
LINE
  5
2B1
330
22
100
AcDbEntity
  8
B.Cu
  6
CONTINUOUS
100
AcDbLine
 10
5.1813498818897639
 20
-3.3405708661417322
 30
0
 11
5.1896158661417324
 21
-3.3392616535433071
 31
0
  0
LINE
  5
2B2
330
22
100
AcDbEntity
  8
B.Cu
  6
CONTINUOUS
100
AcDbLine
 10
5.1896158661417324
 20
-3.3392616535433071
 30
0
 11
5.1975752755905509
 21
-3.3366754724409446
 31
0
  0
LINE
  5
2B3
330
22
100
AcDbEntity
  8
B.Cu
  6
CONTINUOUS
100
AcDbLine
 10
5.1975752755905509
 20
-3.3366754724409446
 30
0
 11
5.2050321259842516
 21
-3.3328760236220472
 31
0
  0
LINE
  5
2B4
330
22
100
AcDbEntity
  8
B.Cu
  6
CONTINUOUS
100
AcDbLine
 10
5.2050321259842516
 20
-3.3328760236220472
 30
0
 11
5.2058972047244092
 21
-3.3322474803149604
 31
0
  0
LINE
  5
2B5
330
22
100
AcDbEntity
  8
B.Cu
  6
CONTINUOUS
100
AcDbLine
 10
5.2058972047244092
 20
-3.3322474803149604
 30
0
 11
5.211802598425197
 21
-3.3279570472440945
 31
0
  0
LINE
  5
2B6
330
22
100
AcDbEntity
  8
B.Cu
  6
CONTINUOUS
100
AcDbLine
 10
5.211802598425197
 20
-3.3279570472440945
 30
0
 11
5.2118026771653545
 21
-3.3279569291338582
 31
0
  0
LINE
  5
2B7
330
22
100
AcDbEntity
  8
B.Cu
  6
CONTINUOUS
100
AcDbLine
 10
5.2118026771653545
 20
-3.3279569291338582
 30
0
 11
5.2118028346456695
 21
-3.3279568503937007
 31
0
  0
LINE
  5
2B8
330
22
100
AcDbEntity
  8
B.Cu
  6
CONTINUOUS
100
AcDbLine
 10
5.2118028346456695
 20
-3.3279568503937007
 30
0
 11
5.21772062992126
 21
-3.3220390551181103
 31
0
  0
LINE
  5
2B9
330
22
100
AcDbEntity
  8
B.Cu
  6
CONTINUOUS
100
AcDbLine
 10
5.21772062992126
 20
-3.3220390551181103
 30
0
 11
5.2177207086614175
 21
-3.3220388976377953
 31
0
  0
LINE
  5
2BA
330
22
100
AcDbEntity
  8
B.Cu
  6
CONTINUOUS
100
AcDbLine
 10
5.2177207086614175
 20
-3.3220388976377953
 30
0
 11
5.2177208267716537
 21
-3.3220388188976377
 31
0
  0
LINE
  5
2BB
330
22
100
AcDbEntity
  8
B.Cu
  6
CONTINUOUS
100
AcDbLine
 10
5.2177208267716537
 20
-3.3220388188976377
 30
0
 11
5.2226396850393701
 21
-3.3152685039370078
 31
0
  0
LINE
  5
2BC
330
22
100
AcDbEntity
  8
B.Cu
  6
CONTINUOUS
100
AcDbLine
 10
5.2226396850393701
 20
-3.3152685039370078
 30
0
 11
5.2226396456692914
 21
-3.3152685039370078
 31
0
  0
LINE
  5
2BD
330
22
100
AcDbEntity
  8
B.Cu
  6
CONTINUOUS
100
AcDbLine
 10
5.2226396456692914
 20
-3.3152685039370078
 30
0
 11
5.2226398031496064
 21
-3.3152683464566928
 31
0
  0
LINE
  5
2BE
330
22
100
AcDbEntity
  8
B.Cu
  6
CONTINUOUS
100
AcDbLine
 10
5.2226398031496064
 20
-3.3152683464566928
 30
0
 11
5.2264392519685039
 21
-3.3078114960629921
 31
0
  0
LINE
  5
2BF
330
22
100
AcDbEntity
  8
B.Cu
  6
CONTINUOUS
100
AcDbLine
 10
5.2264392519685039
 20
-3.3078114960629921
 30
0
 11
5.2290254330708663
 21
-3.2998520866141732
 31
0
  0
LINE
  5
2C0
330
22
100
AcDbEntity
  8
B.Cu
  6
CONTINUOUS
100
AcDbLine
 10
5.2290254330708663
 20
-3.2998520866141732
 30
0
 11
5.2303346456692914
 21
-3.2915861023622046
 31
0
  0
LINE
  5
2C1
330
22
100
AcDbEntity
  8
B.Cu
  6
CONTINUOUS
100
AcDbLine
 10
5.2303346456692914
 20
-3.2915861023622046
 30
0
 11
5.2303346456692914
 21
-3.2832170472440945
 31
0
  0
LINE
  5
2C2
330
22
100
AcDbEntity
  8
B.Cu
  6
CONTINUOUS
100
AcDbLine
 10
5.2303346456692914
 20
-3.2832170472440945
 30
0
 11
5.2290254330708663
 21
-3.2749510629921259
 31
0
  0
LINE
  5
2C3
330
22
100
AcDbEntity
  8
B.Cu
  6
CONTINUOUS
100
AcDbLine
 10
5.2290254330708663
 20
-3.2749510629921259
 30
0
 11
5.2273416929133854
 21
-3.269769094488189
 31
0
  0
LINE
  5
2C4
330
22
100
AcDbEntity
  8
B.Cu
  6
CONTINUOUS
100
AcDbLine
 10
5.2273416929133854
 20
-3.269769094488189
 30
0
 11
5.2264392519685039
 21
-3.266991653543307
 31
0
  0
LINE
  5
2C5
330
22
100
AcDbEntity
  8
B.Cu
  6
CONTINUOUS
100
AcDbLine
 10
5.2264392519685039
 20
-3.266991653543307
 30
0
 11
5.2264391732283464
 21
-3.2669915354330707
 31
0
  0
LINE
  5
2C6
330
22
100
AcDbEntity
  8
B.Cu
  6
CONTINUOUS
100
AcDbLine
 10
5.2264391732283464
 20
-3.2669915354330707
 30
0
 11
5.2264391732283464
 21
-3.2669914566929132
 31
0
  0
LINE
  5
2C7
330
22
100
AcDbEntity
  8
B.Cu
  6
CONTINUOUS
100
AcDbLine
 10
5.2264391732283464
 20
-3.2669914566929132
 30
0
 11
5.2239533464566925
 21
-3.2621127559055116
 31
0
  0
LINE
  5
2C8
330
22
100
AcDbEntity
  8
B.Cu
  6
CONTINUOUS
100
AcDbLine
 10
5.2239533464566925
 20
-3.2621127559055116
 30
0
 11
5.2226398031496064
 21
-3.2595348031496063
 31
0
  0
LINE
  5
2C9
330
22
100
AcDbEntity
  8
B.Cu
  6
CONTINUOUS
100
AcDbLine
 10
5.2226398031496064
 20
-3.2595348031496063
 30
0
 11
5.2226397244094489
 21
-3.25953468503937
 31
0
  0
LINE
  5
2CA
330
22
100
AcDbEntity
  8
B.Cu
  6
CONTINUOUS
100
AcDbLine
 10
5.2226397244094489
 20
-3.25953468503937
 30
0
 11
5.2226396850393701
 21
-3.2595346062992125
 31
0
  0
LINE
  5
2CB
330
22
100
AcDbEntity
  8
B.Cu
  6
CONTINUOUS
100
AcDbLine
 10
5.2226396850393701
 20
-3.2595346062992125
 30
0
 11
5.2177208267716537
 21
-3.2527642913385826
 31
0
  0
LINE
  5
2CC
330
22
100
AcDbEntity
  8
B.Cu
  6
CONTINUOUS
100
AcDbLine
 10
5.2177208267716537
 20
-3.2527642913385826
 30
0
 11
5.2132354724409451
 21
-3.248278937007874
 31
0
  0
LINE
  5
2CD
330
22
100
AcDbEntity
  8
B.Cu
  6
CONTINUOUS
100
AcDbLine
 10
5.2132354724409451
 20
-3.248278937007874
 30
0
 11
5.2119171653543308
 21
-3.2458646456692914
 31
0
  0
LINE
  5
2CE
330
22
100
AcDbEntity
  8
B.Cu
  6
CONTINUOUS
100
AcDbLine
 10
5.2119171653543308
 20
-3.2458646456692914
 30
0
 11
5.2121133858267719
 21
-3.2431208661417323
 31
0
  0
LINE
  5
2CF
330
22
100
AcDbEntity
  8
B.Cu
  6
CONTINUOUS
100
AcDbLine
 10
5.2121133858267719
 20
-3.2431208661417323
 30
0
 11
5.213761889763779
 21
-3.2409187795275591
 31
0
  0
LINE
  5
2D0
330
22
100
AcDbEntity
  8
B.Cu
  6
CONTINUOUS
100
AcDbLine
 10
5.213761889763779
 20
-3.2409187795275591
 30
0
 11
5.2149814566929136
 21
-3.2402528346456694
 31
0
  0
LINE
  5
2D1
330
22
100
AcDbEntity
  8
B.Cu
  6
CONTINUOUS
100
AcDbLine
 10
5.2149814566929136
 20
-3.2402528346456694
 30
0
 11
5.2201608661417325
 21
-3.238321023622047
 31
0
  0
LINE
  5
2D2
330
22
100
AcDbEntity
  8
B.Cu
  6
CONTINUOUS
100
AcDbLine
 10
5.2201608661417325
 20
-3.238321023622047
 30
0
 11
5.2201611417322837
 21
-3.2383208661417324
 31
0
  0
LINE
  5
2D3
330
22
100
AcDbEntity
  8
B.Cu
  6
CONTINUOUS
100
AcDbLine
 10
5.2201611417322837
 20
-3.2383208661417324
 30
0
 11
5.2246924015748029
 21
-3.2349287401574802
 31
0
  0
LINE
  5
2D4
330
22
100
AcDbEntity
  8
B.Cu
  6
CONTINUOUS
100
AcDbLine
 10
5.2246924015748029
 20
-3.2349287401574802
 30
0
 11
5.2246925196850391
 21
-3.234928622047244
 31
0
  0
LINE
  5
2D5
330
22
100
AcDbEntity
  8
B.Cu
  6
CONTINUOUS
100
AcDbLine
 10
5.2246925196850391
 20
-3.234928622047244
 30
0
 11
5.2280846456692913
 21
-3.2303973622047244
 31
0
  0
LINE
  5
2D6
330
22
100
AcDbEntity
  8
B.Cu
  6
CONTINUOUS
100
AcDbLine
 10
5.2280846456692913
 20
-3.2303973622047244
 30
0
 11
5.2280848031496063
 21
-3.2303970866141731
 31
0
  0
LINE
  5
2D7
330
22
100
AcDbEntity
  8
B.Cu
  6
CONTINUOUS
100
AcDbLine
 10
5.2280848031496063
 20
-3.2303970866141731
 30
0
 11
5.2300628346456692
 21
-3.2250936614173229
 31
0
  0
LINE
  5
2D8
330
22
100
AcDbEntity
  8
B.Cu
  6
CONTINUOUS
100
AcDbLine
 10
5.2300628346456692
 20
-3.2250936614173229
 30
0
 11
5.2300629133858267
 21
-3.2250933858267716
 31
0
  0
LINE
  5
2D9
330
22
100
AcDbEntity
  8
B.Cu
  6
CONTINUOUS
100
AcDbLine
 10
5.2300629133858267
 20
-3.2250933858267716
 30
0
 11
5.2303149212598425
 21
-3.2227497637795275
 31
0
  0
LINE
  5
2DA
330
22
100
AcDbEntity
  8
B.Cu
  6
CONTINUOUS
100
AcDbLine
 10
5.2303149212598425
 20
-3.2227497637795275
 30
0
 11
5.2303149606299213
 21
-3.2227490944881887
 31
0
  0
LINE
  5
2DB
330
22
100
AcDbEntity
  8
B.Cu
  6
CONTINUOUS
100
AcDbLine
 10
5.2303149606299213
 20
-3.2227490944881887
 30
0
 11
5.2303149606299213
 21
-3.1972440944881888
 31
0
  0
LINE
  5
2DC
330
22
100
AcDbEntity
  8
B.Cu
  6
CONTINUOUS
100
AcDbLine
 10
5.2303149606299213
 20
-3.1972440944881888
 30
0
 11
5.2106299212598426
 21
-3.1972440944881888
 31
0
  0
LINE
  5
2DD
330
22
100
AcDbEntity
  8
B.Cu
  6
CONTINUOUS
100
AcDbLine
 10
5.2106299212598426
 20
-3.1972440944881888
 30
0
 11
5.2106299212598426
 21
-3.2208661417322832
 31
0
  0
LINE
  5
2DE
330
22
100
AcDbEntity
  8
B.Cu
  6
CONTINUOUS
100
AcDbLine
 10
5.2106299212598426
 20
-3.2208661417322832
 30
0
 11
5.143700787401575
 21
-3.2208661417322832
 31
0
  0
LINE
  5
2DF
330
22
100
AcDbEntity
  8
B.Cu
  6
CONTINUOUS
100
AcDbLine
 10
5.143700787401575
 20
-3.2208661417322832
 30
0
 11
5.143700787401575
 21
-3.1972440944881888
 31
0
  0
LINE
  5
2E0
330
22
100
AcDbEntity
  8
B.Cu
  6
CONTINUOUS
100
AcDbLine
 10
5.143700787401575
 20
-3.1972440944881888
 30
0
 11
5.1240157480314963
 21
-3.1972440944881888
 31
0
  0
LINE
  5
2E1
330
22
100
AcDbEntity
  8
B.Cu
  6
CONTINUOUS
100
AcDbLine
 10
5.1240157480314963
 20
-3.1972440944881888
 30
0
 11
5.1240157480314963
 21
-3.2227497637795275
 31
0
  0
LINE
  5
2E2
330
22
100
AcDbEntity
  8
B.Cu
  6
CONTINUOUS
100
AcDbLine
 10
5.1240157480314963
 20
-3.2227497637795275
 30
0
 11
5.1242677559055121
 21
-3.2250933858267716
 31
0
  0
LINE
  5
2E3
330
22
100
AcDbEntity
  8
B.Cu
  6
CONTINUOUS
100
AcDbLine
 10
5.1242677559055121
 20
-3.2250933858267716
 30
0
 11
5.1242678346456696
 21
-3.2250936614173229
 31
0
  0
LINE
  5
2E4
330
22
100
AcDbEntity
  8
B.Cu
  6
CONTINUOUS
100
AcDbLine
 10
5.1242678346456696
 20
-3.2250936614173229
 30
0
 11
5.1262458661417325
 21
-3.2303970866141731
 31
0
  0
LINE
  5
2E5
330
22
100
AcDbEntity
  8
B.Cu
  6
CONTINUOUS
100
AcDbLine
 10
5.1262458661417325
 20
-3.2303970866141731
 30
0
 11
5.1262460236220475
 21
-3.2303973622047244
 31
0
  0
LINE
  5
2E6
330
22
100
AcDbEntity
  8
B.Cu
  6
CONTINUOUS
100
AcDbLine
 10
5.1262460236220475
 20
-3.2303973622047244
 30
0
 11
5.1296381496062988
 21
-3.234928622047244
 31
0
  0
LINE
  5
2E7
330
22
100
AcDbEntity
  8
B.Cu
  6
CONTINUOUS
100
AcDbLine
 10
5.1296381496062988
 20
-3.234928622047244
 30
0
 11
5.1296382677165351
 21
-3.2349287401574802
 31
0
  0
LINE
  5
2E8
330
22
100
AcDbEntity
  8
B.Cu
  6
CONTINUOUS
100
AcDbLine
 10
5.1296382677165351
 20
-3.2349287401574802
 30
0
 11
5.1341695275590551
 21
-3.2383208661417324
 31
0
  0
LINE
  5
2E9
330
22
100
AcDbEntity
  8
B.Cu
  6
CONTINUOUS
100
AcDbLine
 10
5.1341695275590551
 20
-3.2383208661417324
 30
0
 11
5.1341698031496064
 21
-3.238321023622047
 31
0
  0
LINE
  5
2EA
330
22
100
AcDbEntity
  8
B.Cu
  6
CONTINUOUS
100
AcDbLine
 10
5.1341698031496064
 20
-3.238321023622047
 30
0
 11
5.1393492125984253
 21
-3.2402528346456694
 31
0
  0
LINE
  5
2EB
330
22
100
AcDbEntity
  8
B.Cu
  6
CONTINUOUS
100
AcDbLine
 10
5.1393492125984253
 20
-3.2402528346456694
 30
0
 11
5.1415513385826772
 21
-3.2419012992125982
 31
0
  0
LINE
  5
2EC
330
22
100
AcDbEntity
  8
B.Cu
  6
CONTINUOUS
100
AcDbLine
 10
5.1415513385826772
 20
-3.2419012992125982
 30
0
 11
5.1425126377952752
 21
-3.2444786614173227
 31
0
  0
LINE
  5
2ED
330
22
100
AcDbEntity
  8
B.Cu
  6
CONTINUOUS
100
AcDbLine
 10
5.1425126377952752
 20
-3.2444786614173227
 30
0
 11
5.1419279133858264
 21
-3.2471665748031495
 31
0
  0
LINE
  5
2EE
330
22
100
AcDbEntity
  8
B.Cu
  6
CONTINUOUS
100
AcDbLine
 10
5.1419279133858264
 20
-3.2471665748031495
 30
0
 11
5.1410952362204725
 21
-3.248278937007874
 31
0
  0
LINE
  5
2EF
330
22
100
AcDbEntity
  8
B.Cu
  6
CONTINUOUS
100
AcDbLine
 10
5.1410952362204725
 20
-3.248278937007874
 30
0
 11
5.1366098031496064
 21
-3.2527643700787401
 31
0
  0
LINE
  5
2F0
330
22
100
AcDbEntity
  8
B.Cu
  6
CONTINUOUS
100
AcDbLine
 10
5.1366098031496064
 20
-3.2527643700787401
 30
0
 11
5.1316909842519687
 21
-3.2595346062992125
 31
0
  0
LINE
  5
2F1
330
22
100
AcDbEntity
  8
B.Cu
  6
CONTINUOUS
100
AcDbLine
 10
5.1316909842519687
 20
-3.2595346062992125
 30
0
 11
5.1278914960629924
 21
-3.2669915354330707
 31
0
  0
LINE
  5
2F2
330
22
100
AcDbEntity
  8
B.Cu
  6
CONTINUOUS
100
AcDbLine
 10
5.1278914960629924
 20
-3.2669915354330707
 30
0
 11
5.1253052362204725
 21
-3.2749511811023622
 31
0
  0
LINE
  5
2F3
330
22
100
AcDbEntity
  8
B.Cu
  6
CONTINUOUS
100
AcDbLine
 10
5.1253052362204725
 20
-3.2749511811023622
 30
0
 11
5.1239960629921262
 21
-3.2832170472440945
 31
0
  0
LINE
  5
2F4
330
22
100
AcDbEntity
  8
B.Cu
  6
CONTINUOUS
100
AcDbLine
 10
5.1239960629921262
 20
-3.2832170472440945
 30
0
 11
5.1239960629921262
 21
-3.2915860629921259
 31
0
  0
LINE
  5
2F5
330
22
100
AcDbEntity
  8
B.Cu
  6
CONTINUOUS
100
AcDbLine
 10
5.715439527559055
 20
-3.2533257086614173
 30
0
 11
5.7071885433070868
 21
-3.2560065748031497
 31
0
  0
LINE
  5
2F6
330
22
100
AcDbEntity
  8
B.Cu
  6
CONTINUOUS
100
AcDbLine
 10
5.7071885433070868
 20
-3.2560065748031497
 30
0
 11
5.6994579921259838
 21
-3.2599455118110234
 31
0
  0
LINE
  5
2F7
330
22
100
AcDbEntity
  8
B.Cu
  6
CONTINUOUS
100
AcDbLine
 10
5.6994579921259838
 20
-3.2599455118110234
 30
0
 11
5.6969482283464563
 21
-3.261768937007874
 31
0
  0
LINE
  5
2F8
330
22
100
AcDbEntity
  8
B.Cu
  6
CONTINUOUS
100
AcDbLine
 10
5.6969482283464563
 20
-3.261768937007874
 30
0
 11
5.6969482283464563
 21
-3.2617689763779527
 31
0
  0
LINE
  5
2F9
330
22
100
AcDbEntity
  8
B.Cu
  6
CONTINUOUS
100
AcDbLine
 10
5.6969482283464563
 20
-3.2617689763779527
 30
0
 11
5.7112677165354331
 21
-3.276088464566929
 31
0
  0
LINE
  5
2FA
330
22
100
AcDbEntity
  8
B.Cu
  6
CONTINUOUS
100
AcDbLine
 10
5.7112677165354331
 20
-3.276088464566929
 30
0
 11
5.7116434251968506
 21
-3.2758374409448816
 31
0
  0
LINE
  5
2FB
330
22
100
AcDbEntity
  8
B.Cu
  6
CONTINUOUS
100
AcDbLine
 10
5.7116434251968506
 20
-3.2758374409448816
 30
0
 11
5.7180607874015745
 21
-3.2731792913385824
 31
0
  0
LINE
  5
2FC
330
22
100
AcDbEntity
  8
B.Cu
  6
CONTINUOUS
100
AcDbLine
 10
5.7180607874015745
 20
-3.2731792913385824
 30
0
 11
5.7244094488188972
 21
-3.2719164566929133
 31
0
  0
LINE
  5
2FD
330
22
100
AcDbEntity
  8
B.Cu
  6
CONTINUOUS
100
AcDbLine
 10
5.7244094488188972
 20
-3.2719164566929133
 30
0
 11
5.7244094488188972
 21
-3.2519685039370079
 31
0
  0
LINE
  5
2FE
330
22
100
AcDbEntity
  8
B.Cu
  6
CONTINUOUS
100
AcDbLine
 10
5.7244094488188972
 20
-3.2519685039370079
 30
0
 11
5.7240086220472444
 21
-3.2519685039370079
 31
0
  0
LINE
  5
2FF
330
22
100
AcDbEntity
  8
B.Cu
  6
CONTINUOUS
100
AcDbLine
 10
5.7240086220472444
 20
-3.2519685039370079
 30
0
 11
5.715439527559055
 21
-3.2533257086614173
 31
0
  0
LINE
  5
300
330
22
100
AcDbEntity
  8
B.Cu
  6
CONTINUOUS
100
AcDbLine
 10
6.2485103937007871
 20
-3.2533257086614173
 30
0
 11
6.2402594094488189
 21
-3.2560065748031497
 31
0
  0
LINE
  5
301
330
22
100
AcDbEntity
  8
B.Cu
  6
CONTINUOUS
100
AcDbLine
 10
6.2402594094488189
 20
-3.2560065748031497
 30
0
 11
6.2325288582677167
 21
-3.2599455118110234
 31
0
  0
LINE
  5
302
330
22
100
AcDbEntity
  8
B.Cu
  6
CONTINUOUS
100
AcDbLine
 10
6.2325288582677167
 20
-3.2599455118110234
 30
0
 11
6.2300190944881892
 21
-3.261768937007874
 31
0
  0
LINE
  5
303
330
22
100
AcDbEntity
  8
B.Cu
  6
CONTINUOUS
100
AcDbLine
 10
6.2300190944881892
 20
-3.261768937007874
 30
0
 11
6.2300190944881892
 21
-3.2617689763779527
 31
0
  0
LINE
  5
304
330
22
100
AcDbEntity
  8
B.Cu
  6
CONTINUOUS
100
AcDbLine
 10
6.2300190944881892
 20
-3.2617689763779527
 30
0
 11
6.2443385826771651
 21
-3.276088464566929
 31
0
  0
LINE
  5
305
330
22
100
AcDbEntity
  8
B.Cu
  6
CONTINUOUS
100
AcDbLine
 10
6.2443385826771651
 20
-3.276088464566929
 30
0
 11
6.2447142913385827
 21
-3.2758374409448816
 31
0
  0
LINE
  5
306
330
22
100
AcDbEntity
  8
B.Cu
  6
CONTINUOUS
100
AcDbLine
 10
6.2447142913385827
 20
-3.2758374409448816
 30
0
 11
6.2511316535433066
 21
-3.2731792913385824
 31
0
  0
LINE
  5
307
330
22
100
AcDbEntity
  8
B.Cu
  6
CONTINUOUS
100
AcDbLine
 10
6.2511316535433066
 20
-3.2731792913385824
 30
0
 11
6.2579442913385828
 21
-3.2718241732283464
 31
0
  0
LINE
  5
308
330
22
100
AcDbEntity
  8
B.Cu
  6
CONTINUOUS
100
AcDbLine
 10
6.2579442913385828
 20
-3.2718241732283464
 30
0
 11
6.2648903543307082
 21
-3.2718241732283464
 31
0
  0
LINE
  5
309
330
22
100
AcDbEntity
  8
B.Cu
  6
CONTINUOUS
100
AcDbLine
 10
6.2648903543307082
 20
-3.2718241732283464
 30
0
 11
6.2717029921259844
 21
-3.2731792913385824
 31
0
  0
LINE
  5
30A
330
22
100
AcDbEntity
  8
B.Cu
  6
CONTINUOUS
100
AcDbLine
 10
6.2717029921259844
 20
-3.2731792913385824
 30
0
 11
6.2781203543307083
 21
-3.2758374409448816
 31
0
  0
LINE
  5
30B
330
22
100
AcDbEntity
  8
B.Cu
  6
CONTINUOUS
100
AcDbLine
 10
6.2781203543307083
 20
-3.2758374409448816
 30
0
 11
6.2784959842519683
 21
-3.2760884251968503
 31
0
  0
LINE
  5
30C
330
22
100
AcDbEntity
  8
B.Cu
  6
CONTINUOUS
100
AcDbLine
 10
6.2784959842519683
 20
-3.2760884251968503
 30
0
 11
6.2928154724409451
 21
-3.2617689763779527
 31
0
  0
LINE
  5
30D
330
22
100
AcDbEntity
  8
B.Cu
  6
CONTINUOUS
100
AcDbLine
 10
6.2928154724409451
 20
-3.2617689763779527
 30
0
 11
6.2903053543307088
 21
-3.2599453149606297
 31
0
  0
LINE
  5
30E
330
22
100
AcDbEntity
  8
B.Cu
  6
CONTINUOUS
100
AcDbLine
 10
6.2903053543307088
 20
-3.2599453149606297
 30
0
 11
6.2825751968503933
 21
-3.2560065748031497
 31
0
  0
LINE
  5
30F
330
22
100
AcDbEntity
  8
B.Cu
  6
CONTINUOUS
100
AcDbLine
 10
6.2825751968503933
 20
-3.2560065748031497
 30
0
 11
6.2743242125984251
 21
-3.2533257086614173
 31
0
  0
LINE
  5
310
330
22
100
AcDbEntity
  8
B.Cu
  6
CONTINUOUS
100
AcDbLine
 10
6.2743242125984251
 20
-3.2533257086614173
 30
0
 11
6.2657551574803145
 21
-3.2519685039370079
 31
0
  0
LINE
  5
311
330
22
100
AcDbEntity
  8
B.Cu
  6
CONTINUOUS
100
AcDbLine
 10
6.2657551574803145
 20
-3.2519685039370079
 30
0
 11
6.2570794881889764
 21
-3.2519685039370079
 31
0
  0
LINE
  5
312
330
22
100
AcDbEntity
  8
B.Cu
  6
CONTINUOUS
100
AcDbLine
 10
6.2570794881889764
 20
-3.2519685039370079
 30
0
 11
6.2485103937007871
 21
-3.2533257086614173
 31
0
  0
LINE
  5
313
330
22
100
AcDbEntity
  8
B.Cu
  6
CONTINUOUS
100
AcDbLine
 10
5.1870078740157481
 20
-3.1539370078740157
 30
0
 11
5.2106299212598426
 21
-3.1539370078740157
 31
0
  0
LINE
  5
314
330
22
100
AcDbEntity
  8
B.Cu
  6
CONTINUOUS
100
AcDbLine
 10
5.2106299212598426
 20
-3.1539370078740157
 30
0
 11
5.2106299212598426
 21
-3.1775590551181101
 31
0
  0
LINE
  5
315
330
22
100
AcDbEntity
  8
B.Cu
  6
CONTINUOUS
100
AcDbLine
 10
5.2106299212598426
 20
-3.1775590551181101
 30
0
 11
5.2303149606299213
 21
-3.1775590551181101
 31
0
  0
LINE
  5
316
330
22
100
AcDbEntity
  8
B.Cu
  6
CONTINUOUS
100
AcDbLine
 10
5.2303149606299213
 20
-3.1775590551181101
 30
0
 11
5.2303149606299213
 21
-3.1520540157480315
 31
0
  0
LINE
  5
317
330
22
100
AcDbEntity
  8
B.Cu
  6
CONTINUOUS
100
AcDbLine
 10
5.2303149606299213
 20
-3.1520540157480315
 30
0
 11
5.2303149212598425
 21
-3.1520533464566927
 31
0
  0
LINE
  5
318
330
22
100
AcDbEntity
  8
B.Cu
  6
CONTINUOUS
100
AcDbLine
 10
5.2303149212598425
 20
-3.1520533464566927
 30
0
 11
5.2300629133858267
 21
-3.149709724409449
 31
0
  0
LINE
  5
319
330
22
100
AcDbEntity
  8
B.Cu
  6
CONTINUOUS
100
AcDbLine
 10
5.2300629133858267
 20
-3.149709724409449
 30
0
 11
5.2300628346456692
 21
-3.1497094488188977
 31
0
  0
LINE
  5
31A
330
22
100
AcDbEntity
  8
B.Cu
  6
CONTINUOUS
100
AcDbLine
 10
5.2300628346456692
 20
-3.1497094488188977
 30
0
 11
5.2280848031496063
 21
-3.144406023622047
 31
0
  0
LINE
  5
31B
330
22
100
AcDbEntity
  8
B.Cu
  6
CONTINUOUS
100
AcDbLine
 10
5.2280848031496063
 20
-3.144406023622047
 30
0
 11
5.2280846456692913
 21
-3.1444057480314962
 31
0
  0
LINE
  5
31C
330
22
100
AcDbEntity
  8
B.Cu
  6
CONTINUOUS
100
AcDbLine
 10
5.2280846456692913
 20
-3.1444057480314962
 30
0
 11
5.2246925196850391
 21
-3.1398744881889762
 31
0
  0
LINE
  5
31D
330
22
100
AcDbEntity
  8
B.Cu
  6
CONTINUOUS
100
AcDbLine
 10
5.2246925196850391
 20
-3.1398744881889762
 30
0
 11
5.2246924015748029
 21
-3.1398743700787399
 31
0
  0
LINE
  5
31E
330
22
100
AcDbEntity
  8
B.Cu
  6
CONTINUOUS
100
AcDbLine
 10
5.2246924015748029
 20
-3.1398743700787399
 30
0
 11
5.2201611417322837
 21
-3.1364822440944882
 31
0
  0
LINE
  5
31F
330
22
100
AcDbEntity
  8
B.Cu
  6
CONTINUOUS
100
AcDbLine
 10
5.2201611417322837
 20
-3.1364822440944882
 30
0
 11
5.2201608661417325
 21
-3.1364820866141732
 31
0
  0
LINE
  5
320
330
22
100
AcDbEntity
  8
B.Cu
  6
CONTINUOUS
100
AcDbLine
 10
5.2201608661417325
 20
-3.1364820866141732
 30
0
 11
5.2148574409448818
 21
-3.1345040551181103
 31
0
  0
LINE
  5
321
330
22
100
AcDbEntity
  8
B.Cu
  6
CONTINUOUS
100
AcDbLine
 10
5.2148574409448818
 20
-3.1345040551181103
 30
0
 11
5.2148571653543305
 21
-3.1345039763779527
 31
0
  0
LINE
  5
322
330
22
100
AcDbEntity
  8
B.Cu
  6
CONTINUOUS
100
AcDbLine
 10
5.2148571653543305
 20
-3.1345039763779527
 30
0
 11
5.2125135433070868
 21
-3.1342519685039369
 31
0
  0
LINE
  5
323
330
22
100
AcDbEntity
  8
B.Cu
  6
CONTINUOUS
100
AcDbLine
 10
5.2125135433070868
 20
-3.1342519685039369
 30
0
 11
5.1870078740157481
 21
-3.1342519685039369
 31
0
  0
LINE
  5
324
330
22
100
AcDbEntity
  8
B.Cu
  6
CONTINUOUS
100
AcDbLine
 10
5.1870078740157481
 20
-3.1342519685039369
 30
0
 11
5.1870078740157481
 21
-3.1539370078740157
 31
0
  0
LINE
  5
325
330
22
100
AcDbEntity
  8
B.Cu
  6
CONTINUOUS
100
AcDbLine
 10
5.1394735039370074
 20
-3.1345039763779527
 30
0
 11
5.1394732283464561
 21
-3.1345040551181103
 31
0
  0
LINE
  5
326
330
22
100
AcDbEntity
  8
B.Cu
  6
CONTINUOUS
100
AcDbLine
 10
5.1394732283464561
 20
-3.1345040551181103
 30
0
 11
5.1341698031496064
 21
-3.1364820866141732
 31
0
  0
LINE
  5
327
330
22
100
AcDbEntity
  8
B.Cu
  6
CONTINUOUS
100
AcDbLine
 10
5.1341698031496064
 20
-3.1364820866141732
 30
0
 11
5.1341695275590551
 21
-3.1364822440944882
 31
0
  0
LINE
  5
328
330
22
100
AcDbEntity
  8
B.Cu
  6
CONTINUOUS
100
AcDbLine
 10
5.1341695275590551
 20
-3.1364822440944882
 30
0
 11
5.1296382677165351
 21
-3.1398743700787399
 31
0
  0
LINE
  5
329
330
22
100
AcDbEntity
  8
B.Cu
  6
CONTINUOUS
100
AcDbLine
 10
5.1296382677165351
 20
-3.1398743700787399
 30
0
 11
5.1296381496062988
 21
-3.1398744881889762
 31
0
  0
LINE
  5
32A
330
22
100
AcDbEntity
  8
B.Cu
  6
CONTINUOUS
100
AcDbLine
 10
5.1296381496062988
 20
-3.1398744881889762
 30
0
 11
5.1262460236220475
 21
-3.1444057480314962
 31
0
  0
LINE
  5
32B
330
22
100
AcDbEntity
  8
B.Cu
  6
CONTINUOUS
100
AcDbLine
 10
5.1262460236220475
 20
-3.1444057480314962
 30
0
 11
5.1262458661417325
 21
-3.144406023622047
 31
0
  0
LINE
  5
32C
330
22
100
AcDbEntity
  8
B.Cu
  6
CONTINUOUS
100
AcDbLine
 10
5.1262458661417325
 20
-3.144406023622047
 30
0
 11
5.1242678346456696
 21
-3.1497094488188977
 31
0
  0
LINE
  5
32D
330
22
100
AcDbEntity
  8
B.Cu
  6
CONTINUOUS
100
AcDbLine
 10
5.1242678346456696
 20
-3.1497094488188977
 30
0
 11
5.1242677559055121
 21
-3.149709724409449
 31
0
  0
LINE
  5
32E
330
22
100
AcDbEntity
  8
B.Cu
  6
CONTINUOUS
100
AcDbLine
 10
5.1242677559055121
 20
-3.149709724409449
 30
0
 11
5.1240157480314963
 21
-3.1520533464566927
 31
0
  0
LINE
  5
32F
330
22
100
AcDbEntity
  8
B.Cu
  6
CONTINUOUS
100
AcDbLine
 10
5.1240157480314963
 20
-3.1520533464566927
 30
0
 11
5.1240157480314963
 21
-3.1775590551181101
 31
0
  0
LINE
  5
330
330
22
100
AcDbEntity
  8
B.Cu
  6
CONTINUOUS
100
AcDbLine
 10
5.1240157480314963
 20
-3.1775590551181101
 30
0
 11
5.143700787401575
 21
-3.1775590551181101
 31
0
  0
LINE
  5
331
330
22
100
AcDbEntity
  8
B.Cu
  6
CONTINUOUS
100
AcDbLine
 10
5.143700787401575
 20
-3.1775590551181101
 30
0
 11
5.143700787401575
 21
-3.1539370078740157
 31
0
  0
LINE
  5
332
330
22
100
AcDbEntity
  8
B.Cu
  6
CONTINUOUS
100
AcDbLine
 10
5.143700787401575
 20
-3.1539370078740157
 30
0
 11
5.1673228346456694
 21
-3.1539370078740157
 31
0
  0
LINE
  5
333
330
22
100
AcDbEntity
  8
B.Cu
  6
CONTINUOUS
100
AcDbLine
 10
5.1673228346456694
 20
-3.1539370078740157
 30
0
 11
5.1673228346456694
 21
-3.1342519685039369
 31
0
  0
LINE
  5
334
330
22
100
AcDbEntity
  8
B.Cu
  6
CONTINUOUS
100
AcDbLine
 10
5.1673228346456694
 20
-3.1342519685039369
 30
0
 11
5.141817125984252
 21
-3.1342519685039369
 31
0
  0
LINE
  5
335
330
22
100
AcDbEntity
  8
B.Cu
  6
CONTINUOUS
100
AcDbLine
 10
5.141817125984252
 20
-3.1342519685039369
 30
0
 11
5.1394735039370074
 21
-3.1345039763779527
 31
0
  0
ENDSEC
  0
SECTION
  2
OBJECTS
  0
DICTIONARY
  5
28
330
0
100
AcDbDictionary
281
1
  3
ACAD_GROUP
350
336
  3
ACAD_LAYOUT
350
29
  3
ACAD_PLOTSTYLENAME
350
11
  0
DICTIONARY
  5
336
330
28
100
AcDbDictionary
281
1
  0
ACDBDICTIONARYWDFLT
  5
11
330
28
100
AcDbDictionary
281
1
  3
Normal
350
10
100
AcDbDictionaryWithDefault
340
10
  0
ACDBPLACEHOLDER
  5
10
330
11
  0
DICTIONARY
  5
29
330
28
100
AcDbDictionary
281
1
  3
Model
350
25
  3
Layout1
350
26
  3
Layout2
350
27
  0
LAYOUT
  5
25
330
29
100
AcDbPlotSettings
  1

  2
none_device
  4
A3
  6

 40
0.0
 41
0.0
 42
0.0
 43
0.0
 44
420.0
 45
297.0
 46
0.0
 47
0.0
 48
0.0
 49
0.0
140
0.0
141
0.0
142
1.0
143
1.0
 70
1024
 72
1
 73
0
 74
5
  7

 75
16
 76
0
 77
2
 78
300
147
1.0
148
0.0
149
0.0
100
AcDbLayout
  1
Model
 70
1
 71
0
 10
0.0
 20
0.0
 11
420.0
 21
297.0
 12
0.0
 22
0.0
 32
0.0
 14
1e+20
 24
1e+20
 34
1e+20
 15
-1e+20
 25
-1e+20
 35
-1e+20
146
0.0
 13
0.0
 23
0.0
 33
0.0
 16
1.0
 26
0.0
 36
0.0
 17
0.0
 27
1.0
 37
0.0
 76
0
330
22
  0
LAYOUT
  5
26
330
29
100
AcDbPlotSettings
  1

  2
none_device
  4
A3
  6

 40
0.0
 41
0.0
 42
0.0
 43
0.0
 44
420.0
 45
297.0
 46
0.0
 47
0.0
 48
0.0
 49
0.0
140
0.0
141
0.0
142
1.0
143
1.0
 70
0
 72
1
 73
0
 74
5
  7

 75
16
 76
0
 77
2
 78
300
147
1.0
148
0.0
149
0.0
100
AcDbLayout
  1
Layout1
 70
1
 71
1
 10
0.0
 20
0.0
 11
420.0
 21
297.0
 12
0.0
 22
0.0
 32
0.0
 14
1e+20
 24
1e+20
 34
1e+20
 15
-1e+20
 25
-1e+20
 35
-1e+20
146
0.0
 13
0.0
 23
0.0
 33
0.0
 16
1.0
 26
0.0
 36
0.0
 17
0.0
 27
1.0
 37
0.0
 76
0
330
23
  0
LAYOUT
  5
27
330
29
100
AcDbPlotSettings
  1

  2
none_device
  4
A3
  6

 40
0.0
 41
0.0
 42
0.0
 43
0.0
 44
420.0
 45
297.0
 46
0.0
 47
0.0
 48
0.0
 49
0.0
140
0.0
141
0.0
142
1.0
143
1.0
 70
0
 72
1
 73
0
 74
5
  7

 75
16
 76
0
 77
2
 78
300
147
1.0
148
0.0
149
0.0
100
AcDbLayout
  1
Layout2
 70
1
 71
2
 10
0.0
 20
0.0
 11
420.0
 21
297.0
 12
0.0
 22
0.0
 32
0.0
 14
1e+20
 24
1e+20
 34
1e+20
 15
-1e+20
 25
-1e+20
 35
-1e+20
146
0.0
 13
0.0
 23
0.0
 33
0.0
 16
1.0
 26
0.0
 36
0.0
 17
0.0
 27
1.0
 37
0.0
 76
0
330
24
  0
ENDSEC
  0
EOF
