<?xml version="1.0" standalone="no"?>
 <!DOCTYPE svg PUBLIC "-//W3C//DTD SVG 1.1//EN" 
 "http://www.w3.org/Graphics/SVG/1.1/DTD/svg11.dtd"> 
<svg
  xmlns:svg="http://www.w3.org/2000/svg"
  xmlns="http://www.w3.org/2000/svg"
  xmlns:xlink="http://www.w3.org/1999/xlink"
  xmlns:inkscape="http://www.inkscape.org/namespaces/inkscape"
  version="1.1"
  width="297.0022mm" height="210.0072mm" viewBox="0.0000 0.0000 297.0022 210.0072">
<title>SVG Image created as Circuito_2_Leds_dos_crias_mecatronicos-F_Cu.svg date 2026-08-06T11:42:25 </title>
  <desc>Image generated by PCBNEW </desc>
<g style="fill:#000000; fill-opacity:1.0000;stroke:#000000; stroke-opacity:1.0000;
stroke-linecap:round; stroke-linejoin:round;"
 transform="translate(0 0) scale(1 1)">
<path style="fill:#000000; fill-opacity:1.0000; stroke:none;fill-rule:evenodd;"
d="M 155.6000,84.9000
155.6000,83.1000
157.4000,83.1000
157.4000,84.9000
Z" /> 
</g>
<g style="fill:#000000; fill-opacity:1.0000; stroke:none;">
<circle cx="159.0400" cy="84.0000" r="0.9000" /> 
<path style="fill:#000000; fill-opacity:1.0000; stroke:none;fill-rule:evenodd;"
d="M 142.0600,84.9000
142.0600,83.1000
143.8600,83.1000
143.8600,84.9000
Z" /> 
<circle cx="145.5000" cy="84.0000" r="0.9000" /> 
<circle cx="143.0000" cy="97.4600" r="0.8000" /> 
<circle cx="143.0000" cy="100.0000" r="0.8000" /> 
<circle cx="156.5000" cy="97.4550" r="0.8000" /> 
<circle cx="156.5000" cy="99.9950" r="0.8000" /> 
<path style="fill:#000000; fill-opacity:1.0000; stroke:none;fill-rule:evenodd;"
d="M 130.6500,81.8100
130.6500,80.1100
132.3500,80.1100
132.3500,81.8100
Z" /> 
<circle cx="131.5000" cy="83.5000" r="0.8500" /> 
</g>
<g style="fill:none; 
stroke:#000000; stroke-width:0.2000; stroke-opacity:1; 
stroke-linecap:round; stroke-linejoin:round;">
<path d="M156.5000 97.4550
L156.5000 84.0000
" />
<path d="M143.0000 84.0400
L142.9600 84.0000
" />
<path d="M143.0000 97.4600
L143.0000 84.0400
" />
<path d="M143.0000 103.0000
L143.0000 100.0000
" />
<path d="M149.0000 103.0000
L152.0050 99.9950
" />
<path d="M140.0000 103.0000
L143.0000 103.0000
" />
<path d="M152.0050 99.9950
L156.5000 99.9950
" />
<path d="M143.0000 103.0000
L149.0000 103.0000
" />
<path d="M131.5000 83.5000
L131.5000 88.5000
" />
<path d="M131.5000 88.5000
L140.0000 97.0000
" />
<path d="M140.0000 97.0000
L140.0000 103.0000
" />
</g> 
</svg>
