  0
SECTION
  2
HEADER
  9
$ACADVER
  1
AC1018
  9
$HANDSEED
  5
FFFFFFFF
  9
$ANGBASE
  50
0.0
  9
$ANGDIR
  70
1
  9
$MEASUREMENT
  70
0
  9
$INSUNITS
  70
1
  0
ENDSEC
  0
SECTION
  2
TABLES
  0
TABLE
  2
APPID
  5
1
330
0
100
AcDbSymbolTable
 70
1
  0
APPID
  5
2
330
1
100
AcDbSymbolTableRecord
100
AcDbRegAppTableRecord
  2
ACAD
 70
0
  0
ENDTAB
  0
TABLE
  2
LTYPE
  5
3
330
0
100
AcDbSymbolTable
 70
6
  0
LTYPE
  5
4
330
3
100
AcDbSymbolTableRecord
100
AcDbLinetypeTableRecord
  2
ByBlock
 70
0
  3

 72
65
 73
0
 40
0
  0
LTYPE
  5
5
330
3
100
AcDbSymbolTableRecord
100
AcDbLinetypeTableRecord
  2
ByLayer
 70
0
  3

 72
65
 73
0
 40
0
  0
LTYPE
  5
6
330
3
100
AcDbSymbolTableRecord
100
AcDbLinetypeTableRecord
  2
CONTINUOUS
 70
0
  3
Solid line
 72
65
 73
0
 40
0
  0
LTYPE
  5
7
330
3
100
AcDbSymbolTableRecord
100
AcDbLinetypeTableRecord
  2
DASHDOT
 70
0
  3
Dash Dot ____ _ ____ _
 72
65
 73
4
 40
2
 49
1.25
 74
0
 49
-0.25
 74
0
 49
0.25
 74
0
 49
-0.25
 74
0
  0
LTYPE
  5
8
330
3
100
AcDbSymbolTableRecord
100
AcDbLinetypeTableRecord
  2
DASHED
 70
0
  3
Dashed __ __ __ __ __
 72
65
 73
2
 40
0.75
 49
0.5
 74
0
 49
-0.25
 74
0
  0
LTYPE
  5
9
330
3
100
AcDbSymbolTableRecord
100
AcDbLinetypeTableRecord
  2
DOTTED
 70
0
  3
Dotted .  .  .  .
 72
65
 73
2
 40
0.2
 49
0.0
 74
0
 49
-0.2
 74
0
  0
ENDTAB
  0
TABLE
  2
STYLE
  5
A
330
0
100
AcDbSymbolTable
 70
4
  0
STYLE
  5
B
330
A
100
AcDbSymbolTableRecord
100
AcDbTextStyleTableRecord
  2
KICAD
 70
0
 40
0
 41
1
 42
1
 50
0
 71
0
  3
isocp.shx
  0
STYLE
  5
C
330
A
100
AcDbSymbolTableRecord
100
AcDbTextStyleTableRecord
  2
KICADB
 70
0
 40
0
 41
1
 42
1
 50
0
 71
0
  3
isocp.shx
  0
STYLE
  5
D
330
A
100
AcDbSymbolTableRecord
100
AcDbTextStyleTableRecord
  2
KICADI
 70
0
 40
0
 41
1
 42
1
 50
15
 71
0
  3
isocp.shx
  0
STYLE
  5
E
330
A
100
AcDbSymbolTableRecord
100
AcDbTextStyleTableRecord
  2
KICADBI
 70
0
 40
0
 41
1
 42
1
 50
15
 71
0
  3
isocp.shx
  0
ENDTAB
  0
TABLE
  2
LAYER
  5
F
330
0
100
AcDbSymbolTable
 70
10
  0
LAYER
  5
12
330
F
100
AcDbSymbolTableRecord
100
AcDbLayerTableRecord
  2
0
 70
0
 62
7
  6
CONTINUOUS
390
10
  0
LAYER
  5
13
330
F
100
AcDbSymbolTableRecord
100
AcDbLayerTableRecord
  2
F.Cu
 70
0
 62
13
420
13120564
  6
CONTINUOUS
390
10
  0
LAYER
  5
14
330
F
100
AcDbSymbolTableRecord
100
AcDbLayerTableRecord
  2
B.Cu
 70
0
 62
153
420
5078980
  6
CONTINUOUS
390
10
  0
LAYER
  5
15
330
F
100
AcDbSymbolTableRecord
100
AcDbLayerTableRecord
  2
F.Paste
 70
0
 62
253
420
11837594
  6
CONTINUOUS
390
10
  0
LAYER
  5
16
330
F
100
AcDbSymbolTableRecord
100
AcDbLayerTableRecord
  2
B.Paste
 70
0
 62
132
420
49858
  6
CONTINUOUS
390
10
  0
LAYER
  5
17
330
F
100
AcDbSymbolTableRecord
100
AcDbLayerTableRecord
  2
F.Silkscreen
 70
0
 62
41
420
15920545
  6
CONTINUOUS
390
10
  0
LAYER
  5
18
330
F
100
AcDbSymbolTableRecord
100
AcDbLayerTableRecord
  2
B.Silkscreen
 70
0
 62
31
420
15250087
  6
CONTINUOUS
390
10
  0
LAYER
  5
19
330
F
100
AcDbSymbolTableRecord
100
AcDbLayerTableRecord
  2
F.Mask
 70
0
 62
201
420
14181631
  6
CONTINUOUS
390
10
  0
LAYER
  5
1A
330
F
100
AcDbSymbolTableRecord
100
AcDbLayerTableRecord
  2
B.Mask
 70
0
 62
4
420
196590
  6
CONTINUOUS
390
10
  0
LAYER
  5
1B
330
F
100
AcDbSymbolTableRecord
100
AcDbLayerTableRecord
  2
Edge.Cuts
 70
0
 62
254
420
13685453
  6
CONTINUOUS
390
10
  0
ENDTAB
  0
TABLE
  2
VPORT
  5
1C
330
0
100
AcDbSymbolTable
 70
0
  0
ENDTAB
  0
TABLE
  2
VIEW
  5
1D
330
0
100
AcDbSymbolTable
 70
0
  0
ENDTAB
  0
TABLE
  2
UCS
  5
1E
330
0
100
AcDbSymbolTable
 70
0
  0
ENDTAB
  0
TABLE
  2
DIMSTYLE
  5
1F
330
0
100
AcDbSymbolTable
 70
1
100
AcDbDimStyleTable
 71
0
  0
DIMSTYLE
105
20
330
1F
100
AcDbSymbolTableRecord
100
AcDbDimStyleTableRecord
  2
Standard
 70
0
  0
ENDTAB
  0
TABLE
  2
BLOCK_RECORD
  5
21
330
0
100
AcDbSymbolTable
 70
3
  0
BLOCK_RECORD
  5
22
330
21
100
AcDbSymbolTableRecord
100
AcDbBlockTableRecord
  2
*Model_Space
340
25
 70
0
280
1
281
0
  0
BLOCK_RECORD
  5
23
330
21
100
AcDbSymbolTableRecord
100
AcDbBlockTableRecord
  2
*Paper_Space
340
26
 70
0
280
1
281
0
  0
BLOCK_RECORD
  5
24
330
21
100
AcDbSymbolTableRecord
100
AcDbBlockTableRecord
  2
*Paper_Space0
340
27
 70
0
280
1
281
0
  0
ENDTAB
  0
ENDSEC
  0
SECTION
  2
BLOCKS
  0
BLOCK
  5
2B
330
22
100
AcDbEntity
  8
0
100
AcDbBlockBegin
  2
*Model_Space
 70
0
 10
0.0
 20
0.0
 30
0.0
  3
*Model_Space
  1

  0
ENDBLK
  5
2A
330
22
100
AcDbEntity
  8
0
100
AcDbBlockEnd
  0
BLOCK
  5
2D
330
23
100
AcDbEntity
 67
1
  8
0
100
AcDbBlockBegin
  2
*Paper_Space
 70
0
 10
0.0
 20
0.0
 30
0.0
  3
*Paper_Space
  1

  0
ENDBLK
  5
2C
330
23
100
AcDbEntity
 67
1
  8
0
100
AcDbBlockEnd
  0
BLOCK
  5
2F
330
24
100
AcDbEntity
 67
1
  8
0
100
AcDbBlockBegin
  2
*Paper_Space0
 70
0
 10
0.0
 20
0.0
 30
0.0
  3
*Paper_Space0
  1

  0
ENDBLK
  5
2E
330
24
100
AcDbEntity
 67
1
  8
0
100
AcDbBlockEnd
  0
ENDSEC
  0
SECTION
  2
ENTITIES
  0
LINE
  5
30
330
22
100
AcDbEntity
  8
B.Mask
  6
CONTINUOUS
100
AcDbLine
 10
5.6390640944881891
 20
-3.9068680314960629
 30
0
 11
5.6447683858267714
 21
-3.9092308267716533
 31
0
  0
LINE
  5
31
330
22
100
AcDbEntity
  8
B.Mask
  6
CONTINUOUS
100
AcDbLine
 10
5.6447683858267714
 20
-3.9092308267716533
 30
0
 11
5.6499021653543302
 21
-3.9126611023622044
 31
0
  0
LINE
  5
32
330
22
100
AcDbEntity
  8
B.Mask
  6
CONTINUOUS
100
AcDbLine
 10
5.6499021653543302
 20
-3.9126611023622044
 30
0
 11
5.6542680314960627
 21
-3.9170269685039369
 31
0
  0
LINE
  5
33
330
22
100
AcDbEntity
  8
B.Mask
  6
CONTINUOUS
100
AcDbLine
 10
5.6542680314960627
 20
-3.9170269685039369
 30
0
 11
5.6576983070866138
 21
-3.9221607480314962
 31
0
  0
LINE
  5
34
330
22
100
AcDbEntity
  8
B.Mask
  6
CONTINUOUS
100
AcDbLine
 10
5.6576983070866138
 20
-3.9221607480314962
 30
0
 11
5.6600611023622047
 21
-3.9278650393700785
 31
0
  0
LINE
  5
35
330
22
100
AcDbEntity
  8
B.Mask
  6
CONTINUOUS
100
AcDbLine
 10
5.6600611023622047
 20
-3.9278650393700785
 30
0
 11
5.6612656692913381
 21
-3.9339207086614172
 31
0
  0
LINE
  5
36
330
22
100
AcDbEntity
  8
B.Mask
  6
CONTINUOUS
100
AcDbLine
 10
5.6612656692913381
 20
-3.9339207086614172
 30
0
 11
5.6612656692913381
 21
-3.9400950393700787
 31
0
  0
LINE
  5
37
330
22
100
AcDbEntity
  8
B.Mask
  6
CONTINUOUS
100
AcDbLine
 10
5.6612656692913381
 20
-3.9400950393700787
 30
0
 11
5.6600611023622047
 21
-3.9461507086614174
 31
0
  0
LINE
  5
38
330
22
100
AcDbEntity
  8
B.Mask
  6
CONTINUOUS
100
AcDbLine
 10
5.6600611023622047
 20
-3.9461507086614174
 30
0
 11
5.6576983070866138
 21
-3.9518550000000001
 31
0
  0
LINE
  5
39
330
22
100
AcDbEntity
  8
B.Mask
  6
CONTINUOUS
100
AcDbLine
 10
5.6576983070866138
 20
-3.9518550000000001
 30
0
 11
5.6542680314960627
 21
-3.9569887795275589
 31
0
  0
LINE
  5
3A
330
22
100
AcDbEntity
  8
B.Mask
  6
CONTINUOUS
100
AcDbLine
 10
5.6542680314960627
 20
-3.9569887795275589
 30
0
 11
5.6499021653543302
 21
-3.9613546456692914
 31
0
  0
LINE
  5
3B
330
22
100
AcDbEntity
  8
B.Mask
  6
CONTINUOUS
100
AcDbLine
 10
5.6499021653543302
 20
-3.9613546456692914
 30
0
 11
5.6447683858267714
 21
-3.9647849212598425
 31
0
  0
LINE
  5
3C
330
22
100
AcDbEntity
  8
B.Mask
  6
CONTINUOUS
100
AcDbLine
 10
5.6447683858267714
 20
-3.9647849212598425
 30
0
 11
5.6390640944881891
 21
-3.967147716535433
 31
0
  0
LINE
  5
3D
330
22
100
AcDbEntity
  8
B.Mask
  6
CONTINUOUS
100
AcDbLine
 10
5.6390640944881891
 20
-3.967147716535433
 30
0
 11
5.6330084251968504
 21
-3.9683522834645668
 31
0
  0
LINE
  5
3E
330
22
100
AcDbEntity
  8
B.Mask
  6
CONTINUOUS
100
AcDbLine
 10
5.6330084251968504
 20
-3.9683522834645668
 30
0
 11
5.6268340944881885
 21
-3.9683522834645668
 31
0
  0
LINE
  5
3F
330
22
100
AcDbEntity
  8
B.Mask
  6
CONTINUOUS
100
AcDbLine
 10
5.6268340944881885
 20
-3.9683522834645668
 30
0
 11
5.6207784251968507
 21
-3.967147716535433
 31
0
  0
LINE
  5
40
330
22
100
AcDbEntity
  8
B.Mask
  6
CONTINUOUS
100
AcDbLine
 10
5.6207784251968507
 20
-3.967147716535433
 30
0
 11
5.6150741338582675
 21
-3.9647849212598425
 31
0
  0
LINE
  5
41
330
22
100
AcDbEntity
  8
B.Mask
  6
CONTINUOUS
100
AcDbLine
 10
5.6150741338582675
 20
-3.9647849212598425
 30
0
 11
5.6099403543307087
 21
-3.9613546456692914
 31
0
  0
LINE
  5
42
330
22
100
AcDbEntity
  8
B.Mask
  6
CONTINUOUS
100
AcDbLine
 10
5.6099403543307087
 20
-3.9613546456692914
 30
0
 11
5.6055744881889762
 21
-3.9569887795275589
 31
0
  0
LINE
  5
43
330
22
100
AcDbEntity
  8
B.Mask
  6
CONTINUOUS
100
AcDbLine
 10
5.6055744881889762
 20
-3.9569887795275589
 30
0
 11
5.6021442125984251
 21
-3.9518550000000001
 31
0
  0
LINE
  5
44
330
22
100
AcDbEntity
  8
B.Mask
  6
CONTINUOUS
100
AcDbLine
 10
5.6021442125984251
 20
-3.9518550000000001
 30
0
 11
5.5997814173228342
 21
-3.9461507086614174
 31
0
  0
LINE
  5
45
330
22
100
AcDbEntity
  8
B.Mask
  6
CONTINUOUS
100
AcDbLine
 10
5.5997814173228342
 20
-3.9461507086614174
 30
0
 11
5.5985768503937008
 21
-3.9400950393700787
 31
0
  0
LINE
  5
46
330
22
100
AcDbEntity
  8
B.Mask
  6
CONTINUOUS
100
AcDbLine
 10
5.5985768503937008
 20
-3.9400950393700787
 30
0
 11
5.5985768503937008
 21
-3.9339207086614172
 31
0
  0
LINE
  5
47
330
22
100
AcDbEntity
  8
B.Mask
  6
CONTINUOUS
100
AcDbLine
 10
5.5985768503937008
 20
-3.9339207086614172
 30
0
 11
5.5997814173228342
 21
-3.9278650393700785
 31
0
  0
LINE
  5
48
330
22
100
AcDbEntity
  8
B.Mask
  6
CONTINUOUS
100
AcDbLine
 10
5.5997814173228342
 20
-3.9278650393700785
 30
0
 11
5.6021442125984251
 21
-3.9221607480314962
 31
0
  0
LINE
  5
49
330
22
100
AcDbEntity
  8
B.Mask
  6
CONTINUOUS
100
AcDbLine
 10
5.6021442125984251
 20
-3.9221607480314962
 30
0
 11
5.6055744881889762
 21
-3.9170269685039369
 31
0
  0
LINE
  5
4A
330
22
100
AcDbEntity
  8
B.Mask
  6
CONTINUOUS
100
AcDbLine
 10
5.6055744881889762
 20
-3.9170269685039369
 30
0
 11
5.6099403543307087
 21
-3.9126611023622044
 31
0
  0
LINE
  5
4B
330
22
100
AcDbEntity
  8
B.Mask
  6
CONTINUOUS
100
AcDbLine
 10
5.6099403543307087
 20
-3.9126611023622044
 30
0
 11
5.6150741338582675
 21
-3.9092308267716533
 31
0
  0
LINE
  5
4C
330
22
100
AcDbEntity
  8
B.Mask
  6
CONTINUOUS
100
AcDbLine
 10
5.6150741338582675
 20
-3.9092308267716533
 30
0
 11
5.6207784251968507
 21
-3.9068680314960629
 31
0
  0
LINE
  5
4D
330
22
100
AcDbEntity
  8
B.Mask
  6
CONTINUOUS
100
AcDbLine
 10
5.6207784251968507
 20
-3.9068680314960629
 30
0
 11
5.6268340944881885
 21
-3.905663464566929
 31
0
  0
LINE
  5
4E
330
22
100
AcDbEntity
  8
B.Mask
  6
CONTINUOUS
100
AcDbLine
 10
5.6268340944881885
 20
-3.905663464566929
 30
0
 11
5.6330084251968504
 21
-3.905663464566929
 31
0
  0
LINE
  5
4F
330
22
100
AcDbEntity
  8
B.Mask
  6
CONTINUOUS
100
AcDbLine
 10
5.6330084251968504
 20
-3.905663464566929
 30
0
 11
5.6390640944881891
 21
-3.9068680314960629
 31
0
  0
LINE
  5
50
330
22
100
AcDbEntity
  8
B.Mask
  6
CONTINUOUS
100
AcDbLine
 10
6.1705601574803151
 20
-3.9066711811023622
 30
0
 11
6.1762644488188974
 21
-3.9090339763779527
 31
0
  0
LINE
  5
51
330
22
100
AcDbEntity
  8
B.Mask
  6
CONTINUOUS
100
AcDbLine
 10
6.1762644488188974
 20
-3.9090339763779527
 30
0
 11
6.1813982283464561
 21
-3.9124642519685038
 31
0
  0
LINE
  5
52
330
22
100
AcDbEntity
  8
B.Mask
  6
CONTINUOUS
100
AcDbLine
 10
6.1813982283464561
 20
-3.9124642519685038
 30
0
 11
6.1857640944881886
 21
-3.9168301181102363
 31
0
  0
LINE
  5
53
330
22
100
AcDbEntity
  8
B.Mask
  6
CONTINUOUS
100
AcDbLine
 10
6.1857640944881886
 20
-3.9168301181102363
 30
0
 11
6.1891943700787397
 21
-3.9219638976377951
 31
0
  0
LINE
  5
54
330
22
100
AcDbEntity
  8
B.Mask
  6
CONTINUOUS
100
AcDbLine
 10
6.1891943700787397
 20
-3.9219638976377951
 30
0
 11
6.1915571653543306
 21
-3.9276681889763778
 31
0
  0
LINE
  5
55
330
22
100
AcDbEntity
  8
B.Mask
  6
CONTINUOUS
100
AcDbLine
 10
6.1915571653543306
 20
-3.9276681889763778
 30
0
 11
6.192761732283464
 21
-3.9337238582677165
 31
0
  0
LINE
  5
56
330
22
100
AcDbEntity
  8
B.Mask
  6
CONTINUOUS
100
AcDbLine
 10
6.192761732283464
 20
-3.9337238582677165
 30
0
 11
6.192761732283464
 21
-3.939898188976378
 31
0
  0
LINE
  5
57
330
22
100
AcDbEntity
  8
B.Mask
  6
CONTINUOUS
100
AcDbLine
 10
6.192761732283464
 20
-3.939898188976378
 30
0
 11
6.1915571653543306
 21
-3.9459538582677163
 31
0
  0
LINE
  5
58
330
22
100
AcDbEntity
  8
B.Mask
  6
CONTINUOUS
100
AcDbLine
 10
6.1915571653543306
 20
-3.9459538582677163
 30
0
 11
6.1891943700787397
 21
-3.951658149606299
 31
0
  0
LINE
  5
59
330
22
100
AcDbEntity
  8
B.Mask
  6
CONTINUOUS
100
AcDbLine
 10
6.1891943700787397
 20
-3.951658149606299
 30
0
 11
6.1857640944881886
 21
-3.9567919291338582
 31
0
  0
LINE
  5
5A
330
22
100
AcDbEntity
  8
B.Mask
  6
CONTINUOUS
100
AcDbLine
 10
6.1857640944881886
 20
-3.9567919291338582
 30
0
 11
6.1813982283464561
 21
-3.9611577952755903
 31
0
  0
LINE
  5
5B
330
22
100
AcDbEntity
  8
B.Mask
  6
CONTINUOUS
100
AcDbLine
 10
6.1813982283464561
 20
-3.9611577952755903
 30
0
 11
6.1762644488188974
 21
-3.9645880708661418
 31
0
  0
LINE
  5
5C
330
22
100
AcDbEntity
  8
B.Mask
  6
CONTINUOUS
100
AcDbLine
 10
6.1762644488188974
 20
-3.9645880708661418
 30
0
 11
6.1705601574803151
 21
-3.9669508661417323
 31
0
  0
LINE
  5
5D
330
22
100
AcDbEntity
  8
B.Mask
  6
CONTINUOUS
100
AcDbLine
 10
6.1705601574803151
 20
-3.9669508661417323
 30
0
 11
6.1645044881889763
 21
-3.9681554330708662
 31
0
  0
LINE
  5
5E
330
22
100
AcDbEntity
  8
B.Mask
  6
CONTINUOUS
100
AcDbLine
 10
6.1645044881889763
 20
-3.9681554330708662
 30
0
 11
6.1583301574803144
 21
-3.9681554330708662
 31
0
  0
LINE
  5
5F
330
22
100
AcDbEntity
  8
B.Mask
  6
CONTINUOUS
100
AcDbLine
 10
6.1583301574803144
 20
-3.9681554330708662
 30
0
 11
6.1522744881889766
 21
-3.9669508661417323
 31
0
  0
LINE
  5
60
330
22
100
AcDbEntity
  8
B.Mask
  6
CONTINUOUS
100
AcDbLine
 10
6.1522744881889766
 20
-3.9669508661417323
 30
0
 11
6.1465701968503934
 21
-3.9645880708661418
 31
0
  0
LINE
  5
61
330
22
100
AcDbEntity
  8
B.Mask
  6
CONTINUOUS
100
AcDbLine
 10
6.1465701968503934
 20
-3.9645880708661418
 30
0
 11
6.1414364173228346
 21
-3.9611577952755903
 31
0
  0
LINE
  5
62
330
22
100
AcDbEntity
  8
B.Mask
  6
CONTINUOUS
100
AcDbLine
 10
6.1414364173228346
 20
-3.9611577952755903
 30
0
 11
6.1370705511811021
 21
-3.9567919291338582
 31
0
  0
LINE
  5
63
330
22
100
AcDbEntity
  8
B.Mask
  6
CONTINUOUS
100
AcDbLine
 10
6.1370705511811021
 20
-3.9567919291338582
 30
0
 11
6.133640275590551
 21
-3.951658149606299
 31
0
  0
LINE
  5
64
330
22
100
AcDbEntity
  8
B.Mask
  6
CONTINUOUS
100
AcDbLine
 10
6.133640275590551
 20
-3.951658149606299
 30
0
 11
6.1312774803149601
 21
-3.9459538582677163
 31
0
  0
LINE
  5
65
330
22
100
AcDbEntity
  8
B.Mask
  6
CONTINUOUS
100
AcDbLine
 10
6.1312774803149601
 20
-3.9459538582677163
 30
0
 11
6.1300729133858267
 21
-3.939898188976378
 31
0
  0
LINE
  5
66
330
22
100
AcDbEntity
  8
B.Mask
  6
CONTINUOUS
100
AcDbLine
 10
6.1300729133858267
 20
-3.939898188976378
 30
0
 11
6.1300729133858267
 21
-3.9337238582677165
 31
0
  0
LINE
  5
67
330
22
100
AcDbEntity
  8
B.Mask
  6
CONTINUOUS
100
AcDbLine
 10
6.1300729133858267
 20
-3.9337238582677165
 30
0
 11
6.1312774803149601
 21
-3.9276681889763778
 31
0
  0
LINE
  5
68
330
22
100
AcDbEntity
  8
B.Mask
  6
CONTINUOUS
100
AcDbLine
 10
6.1312774803149601
 20
-3.9276681889763778
 30
0
 11
6.133640275590551
 21
-3.9219638976377951
 31
0
  0
LINE
  5
69
330
22
100
AcDbEntity
  8
B.Mask
  6
CONTINUOUS
100
AcDbLine
 10
6.133640275590551
 20
-3.9219638976377951
 30
0
 11
6.1370705511811021
 21
-3.9168301181102363
 31
0
  0
LINE
  5
6A
330
22
100
AcDbEntity
  8
B.Mask
  6
CONTINUOUS
100
AcDbLine
 10
6.1370705511811021
 20
-3.9168301181102363
 30
0
 11
6.1414364173228346
 21
-3.9124642519685038
 31
0
  0
LINE
  5
6B
330
22
100
AcDbEntity
  8
B.Mask
  6
CONTINUOUS
100
AcDbLine
 10
6.1414364173228346
 20
-3.9124642519685038
 30
0
 11
6.1465701968503934
 21
-3.9090339763779527
 31
0
  0
LINE
  5
6C
330
22
100
AcDbEntity
  8
B.Mask
  6
CONTINUOUS
100
AcDbLine
 10
6.1465701968503934
 20
-3.9090339763779527
 30
0
 11
6.1522744881889766
 21
-3.9066711811023622
 31
0
  0
LINE
  5
6D
330
22
100
AcDbEntity
  8
B.Mask
  6
CONTINUOUS
100
AcDbLine
 10
6.1522744881889766
 20
-3.9066711811023622
 30
0
 11
6.1583301574803144
 21
-3.9054666141732284
 31
0
  0
LINE
  5
6E
330
22
100
AcDbEntity
  8
B.Mask
  6
CONTINUOUS
100
AcDbLine
 10
6.1583301574803144
 20
-3.9054666141732284
 30
0
 11
6.1645044881889763
 21
-3.9054666141732284
 31
0
  0
LINE
  5
6F
330
22
100
AcDbEntity
  8
B.Mask
  6
CONTINUOUS
100
AcDbLine
 10
6.1645044881889763
 20
-3.9054666141732284
 30
0
 11
6.1705601574803151
 21
-3.9066711811023622
 31
0
  0
LINE
  5
70
330
22
100
AcDbEntity
  8
B.Mask
  6
CONTINUOUS
100
AcDbLine
 10
5.6390640944881891
 20
-3.8068680314960628
 30
0
 11
5.6447683858267714
 21
-3.8092308267716533
 31
0
  0
LINE
  5
71
330
22
100
AcDbEntity
  8
B.Mask
  6
CONTINUOUS
100
AcDbLine
 10
5.6447683858267714
 20
-3.8092308267716533
 30
0
 11
5.6499021653543302
 21
-3.8126611023622048
 31
0
  0
LINE
  5
72
330
22
100
AcDbEntity
  8
B.Mask
  6
CONTINUOUS
100
AcDbLine
 10
5.6499021653543302
 20
-3.8126611023622048
 30
0
 11
5.6542680314960627
 21
-3.8170269685039369
 31
0
  0
LINE
  5
73
330
22
100
AcDbEntity
  8
B.Mask
  6
CONTINUOUS
100
AcDbLine
 10
5.6542680314960627
 20
-3.8170269685039369
 30
0
 11
5.6576983070866138
 21
-3.8221607480314961
 31
0
  0
LINE
  5
74
330
22
100
AcDbEntity
  8
B.Mask
  6
CONTINUOUS
100
AcDbLine
 10
5.6576983070866138
 20
-3.8221607480314961
 30
0
 11
5.6600611023622047
 21
-3.8278650393700788
 31
0
  0
LINE
  5
75
330
22
100
AcDbEntity
  8
B.Mask
  6
CONTINUOUS
100
AcDbLine
 10
5.6600611023622047
 20
-3.8278650393700788
 30
0
 11
5.6612656692913381
 21
-3.8339207086614171
 31
0
  0
LINE
  5
76
330
22
100
AcDbEntity
  8
B.Mask
  6
CONTINUOUS
100
AcDbLine
 10
5.6612656692913381
 20
-3.8339207086614171
 30
0
 11
5.6612656692913381
 21
-3.8400950393700786
 31
0
  0
LINE
  5
77
330
22
100
AcDbEntity
  8
B.Mask
  6
CONTINUOUS
100
AcDbLine
 10
5.6612656692913381
 20
-3.8400950393700786
 30
0
 11
5.6600611023622047
 21
-3.8461507086614173
 31
0
  0
LINE
  5
78
330
22
100
AcDbEntity
  8
B.Mask
  6
CONTINUOUS
100
AcDbLine
 10
5.6600611023622047
 20
-3.8461507086614173
 30
0
 11
5.6576983070866138
 21
-3.851855
 31
0
  0
LINE
  5
79
330
22
100
AcDbEntity
  8
B.Mask
  6
CONTINUOUS
100
AcDbLine
 10
5.6576983070866138
 20
-3.851855
 30
0
 11
5.6542680314960627
 21
-3.8569887795275588
 31
0
  0
LINE
  5
7A
330
22
100
AcDbEntity
  8
B.Mask
  6
CONTINUOUS
100
AcDbLine
 10
5.6542680314960627
 20
-3.8569887795275588
 30
0
 11
5.6499021653543302
 21
-3.8613546456692913
 31
0
  0
LINE
  5
7B
330
22
100
AcDbEntity
  8
B.Mask
  6
CONTINUOUS
100
AcDbLine
 10
5.6499021653543302
 20
-3.8613546456692913
 30
0
 11
5.6447683858267714
 21
-3.8647849212598424
 31
0
  0
LINE
  5
7C
330
22
100
AcDbEntity
  8
B.Mask
  6
CONTINUOUS
100
AcDbLine
 10
5.6447683858267714
 20
-3.8647849212598424
 30
0
 11
5.6390640944881891
 21
-3.8671477165354329
 31
0
  0
LINE
  5
7D
330
22
100
AcDbEntity
  8
B.Mask
  6
CONTINUOUS
100
AcDbLine
 10
5.6390640944881891
 20
-3.8671477165354329
 30
0
 11
5.6330084251968504
 21
-3.8683522834645667
 31
0
  0
LINE
  5
7E
330
22
100
AcDbEntity
  8
B.Mask
  6
CONTINUOUS
100
AcDbLine
 10
5.6330084251968504
 20
-3.8683522834645667
 30
0
 11
5.6268340944881885
 21
-3.8683522834645667
 31
0
  0
LINE
  5
7F
330
22
100
AcDbEntity
  8
B.Mask
  6
CONTINUOUS
100
AcDbLine
 10
5.6268340944881885
 20
-3.8683522834645667
 30
0
 11
5.6207784251968507
 21
-3.8671477165354329
 31
0
  0
LINE
  5
80
330
22
100
AcDbEntity
  8
B.Mask
  6
CONTINUOUS
100
AcDbLine
 10
5.6207784251968507
 20
-3.8671477165354329
 30
0
 11
5.6150741338582675
 21
-3.8647849212598424
 31
0
  0
LINE
  5
81
330
22
100
AcDbEntity
  8
B.Mask
  6
CONTINUOUS
100
AcDbLine
 10
5.6150741338582675
 20
-3.8647849212598424
 30
0
 11
5.6099403543307087
 21
-3.8613546456692913
 31
0
  0
LINE
  5
82
330
22
100
AcDbEntity
  8
B.Mask
  6
CONTINUOUS
100
AcDbLine
 10
5.6099403543307087
 20
-3.8613546456692913
 30
0
 11
5.6055744881889762
 21
-3.8569887795275588
 31
0
  0
LINE
  5
83
330
22
100
AcDbEntity
  8
B.Mask
  6
CONTINUOUS
100
AcDbLine
 10
5.6055744881889762
 20
-3.8569887795275588
 30
0
 11
5.6021442125984251
 21
-3.851855
 31
0
  0
LINE
  5
84
330
22
100
AcDbEntity
  8
B.Mask
  6
CONTINUOUS
100
AcDbLine
 10
5.6021442125984251
 20
-3.851855
 30
0
 11
5.5997814173228342
 21
-3.8461507086614173
 31
0
  0
LINE
  5
85
330
22
100
AcDbEntity
  8
B.Mask
  6
CONTINUOUS
100
AcDbLine
 10
5.5997814173228342
 20
-3.8461507086614173
 30
0
 11
5.5985768503937008
 21
-3.8400950393700786
 31
0
  0
LINE
  5
86
330
22
100
AcDbEntity
  8
B.Mask
  6
CONTINUOUS
100
AcDbLine
 10
5.5985768503937008
 20
-3.8400950393700786
 30
0
 11
5.5985768503937008
 21
-3.8339207086614171
 31
0
  0
LINE
  5
87
330
22
100
AcDbEntity
  8
B.Mask
  6
CONTINUOUS
100
AcDbLine
 10
5.5985768503937008
 20
-3.8339207086614171
 30
0
 11
5.5997814173228342
 21
-3.8278650393700788
 31
0
  0
LINE
  5
88
330
22
100
AcDbEntity
  8
B.Mask
  6
CONTINUOUS
100
AcDbLine
 10
5.5997814173228342
 20
-3.8278650393700788
 30
0
 11
5.6021442125984251
 21
-3.8221607480314961
 31
0
  0
LINE
  5
89
330
22
100
AcDbEntity
  8
B.Mask
  6
CONTINUOUS
100
AcDbLine
 10
5.6021442125984251
 20
-3.8221607480314961
 30
0
 11
5.6055744881889762
 21
-3.8170269685039369
 31
0
  0
LINE
  5
8A
330
22
100
AcDbEntity
  8
B.Mask
  6
CONTINUOUS
100
AcDbLine
 10
5.6055744881889762
 20
-3.8170269685039369
 30
0
 11
5.6099403543307087
 21
-3.8126611023622048
 31
0
  0
LINE
  5
8B
330
22
100
AcDbEntity
  8
B.Mask
  6
CONTINUOUS
100
AcDbLine
 10
5.6099403543307087
 20
-3.8126611023622048
 30
0
 11
5.6150741338582675
 21
-3.8092308267716533
 31
0
  0
LINE
  5
8C
330
22
100
AcDbEntity
  8
B.Mask
  6
CONTINUOUS
100
AcDbLine
 10
5.6150741338582675
 20
-3.8092308267716533
 30
0
 11
5.6207784251968507
 21
-3.8068680314960628
 31
0
  0
LINE
  5
8D
330
22
100
AcDbEntity
  8
B.Mask
  6
CONTINUOUS
100
AcDbLine
 10
5.6207784251968507
 20
-3.8068680314960628
 30
0
 11
5.6268340944881885
 21
-3.8056634645669289
 31
0
  0
LINE
  5
8E
330
22
100
AcDbEntity
  8
B.Mask
  6
CONTINUOUS
100
AcDbLine
 10
5.6268340944881885
 20
-3.8056634645669289
 30
0
 11
5.6330084251968504
 21
-3.8056634645669289
 31
0
  0
LINE
  5
8F
330
22
100
AcDbEntity
  8
B.Mask
  6
CONTINUOUS
100
AcDbLine
 10
5.6330084251968504
 20
-3.8056634645669289
 30
0
 11
5.6390640944881891
 21
-3.8068680314960628
 31
0
  0
LINE
  5
90
330
22
100
AcDbEntity
  8
B.Mask
  6
CONTINUOUS
100
AcDbLine
 10
6.1705601574803151
 20
-3.8066711811023621
 30
0
 11
6.1762644488188974
 21
-3.8090339763779526
 31
0
  0
LINE
  5
91
330
22
100
AcDbEntity
  8
B.Mask
  6
CONTINUOUS
100
AcDbLine
 10
6.1762644488188974
 20
-3.8090339763779526
 30
0
 11
6.1813982283464561
 21
-3.8124642519685037
 31
0
  0
LINE
  5
92
330
22
100
AcDbEntity
  8
B.Mask
  6
CONTINUOUS
100
AcDbLine
 10
6.1813982283464561
 20
-3.8124642519685037
 30
0
 11
6.1857640944881886
 21
-3.8168301181102362
 31
0
  0
LINE
  5
93
330
22
100
AcDbEntity
  8
B.Mask
  6
CONTINUOUS
100
AcDbLine
 10
6.1857640944881886
 20
-3.8168301181102362
 30
0
 11
6.1891943700787397
 21
-3.821963897637795
 31
0
  0
LINE
  5
94
330
22
100
AcDbEntity
  8
B.Mask
  6
CONTINUOUS
100
AcDbLine
 10
6.1891943700787397
 20
-3.821963897637795
 30
0
 11
6.1915571653543306
 21
-3.8276681889763777
 31
0
  0
LINE
  5
95
330
22
100
AcDbEntity
  8
B.Mask
  6
CONTINUOUS
100
AcDbLine
 10
6.1915571653543306
 20
-3.8276681889763777
 30
0
 11
6.192761732283464
 21
-3.8337238582677164
 31
0
  0
LINE
  5
96
330
22
100
AcDbEntity
  8
B.Mask
  6
CONTINUOUS
100
AcDbLine
 10
6.192761732283464
 20
-3.8337238582677164
 30
0
 11
6.192761732283464
 21
-3.8398981889763779
 31
0
  0
LINE
  5
97
330
22
100
AcDbEntity
  8
B.Mask
  6
CONTINUOUS
100
AcDbLine
 10
6.192761732283464
 20
-3.8398981889763779
 30
0
 11
6.1915571653543306
 21
-3.8459538582677166
 31
0
  0
LINE
  5
98
330
22
100
AcDbEntity
  8
B.Mask
  6
CONTINUOUS
100
AcDbLine
 10
6.1915571653543306
 20
-3.8459538582677166
 30
0
 11
6.1891943700787397
 21
-3.8516581496062989
 31
0
  0
LINE
  5
99
330
22
100
AcDbEntity
  8
B.Mask
  6
CONTINUOUS
100
AcDbLine
 10
6.1891943700787397
 20
-3.8516581496062989
 30
0
 11
6.1857640944881886
 21
-3.8567919291338582
 31
0
  0
LINE
  5
9A
330
22
100
AcDbEntity
  8
B.Mask
  6
CONTINUOUS
100
AcDbLine
 10
6.1857640944881886
 20
-3.8567919291338582
 30
0
 11
6.1813982283464561
 21
-3.8611577952755907
 31
0
  0
LINE
  5
9B
330
22
100
AcDbEntity
  8
B.Mask
  6
CONTINUOUS
100
AcDbLine
 10
6.1813982283464561
 20
-3.8611577952755907
 30
0
 11
6.1762644488188974
 21
-3.8645880708661418
 31
0
  0
LINE
  5
9C
330
22
100
AcDbEntity
  8
B.Mask
  6
CONTINUOUS
100
AcDbLine
 10
6.1762644488188974
 20
-3.8645880708661418
 30
0
 11
6.1705601574803151
 21
-3.8669508661417322
 31
0
  0
LINE
  5
9D
330
22
100
AcDbEntity
  8
B.Mask
  6
CONTINUOUS
100
AcDbLine
 10
6.1705601574803151
 20
-3.8669508661417322
 30
0
 11
6.1645044881889763
 21
-3.8681554330708661
 31
0
  0
LINE
  5
9E
330
22
100
AcDbEntity
  8
B.Mask
  6
CONTINUOUS
100
AcDbLine
 10
6.1645044881889763
 20
-3.8681554330708661
 30
0
 11
6.1583301574803144
 21
-3.8681554330708661
 31
0
  0
LINE
  5
9F
330
22
100
AcDbEntity
  8
B.Mask
  6
CONTINUOUS
100
AcDbLine
 10
6.1583301574803144
 20
-3.8681554330708661
 30
0
 11
6.1522744881889766
 21
-3.8669508661417322
 31
0
  0
LINE
  5
A0
330
22
100
AcDbEntity
  8
B.Mask
  6
CONTINUOUS
100
AcDbLine
 10
6.1522744881889766
 20
-3.8669508661417322
 30
0
 11
6.1465701968503934
 21
-3.8645880708661418
 31
0
  0
LINE
  5
A1
330
22
100
AcDbEntity
  8
B.Mask
  6
CONTINUOUS
100
AcDbLine
 10
6.1465701968503934
 20
-3.8645880708661418
 30
0
 11
6.1414364173228346
 21
-3.8611577952755907
 31
0
  0
LINE
  5
A2
330
22
100
AcDbEntity
  8
B.Mask
  6
CONTINUOUS
100
AcDbLine
 10
6.1414364173228346
 20
-3.8611577952755907
 30
0
 11
6.1370705511811021
 21
-3.8567919291338582
 31
0
  0
LINE
  5
A3
330
22
100
AcDbEntity
  8
B.Mask
  6
CONTINUOUS
100
AcDbLine
 10
6.1370705511811021
 20
-3.8567919291338582
 30
0
 11
6.133640275590551
 21
-3.8516581496062989
 31
0
  0
LINE
  5
A4
330
22
100
AcDbEntity
  8
B.Mask
  6
CONTINUOUS
100
AcDbLine
 10
6.133640275590551
 20
-3.8516581496062989
 30
0
 11
6.1312774803149601
 21
-3.8459538582677166
 31
0
  0
LINE
  5
A5
330
22
100
AcDbEntity
  8
B.Mask
  6
CONTINUOUS
100
AcDbLine
 10
6.1312774803149601
 20
-3.8459538582677166
 30
0
 11
6.1300729133858267
 21
-3.8398981889763779
 31
0
  0
LINE
  5
A6
330
22
100
AcDbEntity
  8
B.Mask
  6
CONTINUOUS
100
AcDbLine
 10
6.1300729133858267
 20
-3.8398981889763779
 30
0
 11
6.1300729133858267
 21
-3.8337238582677164
 31
0
  0
LINE
  5
A7
330
22
100
AcDbEntity
  8
B.Mask
  6
CONTINUOUS
100
AcDbLine
 10
6.1300729133858267
 20
-3.8337238582677164
 30
0
 11
6.1312774803149601
 21
-3.8276681889763777
 31
0
  0
LINE
  5
A8
330
22
100
AcDbEntity
  8
B.Mask
  6
CONTINUOUS
100
AcDbLine
 10
6.1312774803149601
 20
-3.8276681889763777
 30
0
 11
6.133640275590551
 21
-3.821963897637795
 31
0
  0
LINE
  5
A9
330
22
100
AcDbEntity
  8
B.Mask
  6
CONTINUOUS
100
AcDbLine
 10
6.133640275590551
 20
-3.821963897637795
 30
0
 11
6.1370705511811021
 21
-3.8168301181102362
 31
0
  0
LINE
  5
AA
330
22
100
AcDbEntity
  8
B.Mask
  6
CONTINUOUS
100
AcDbLine
 10
6.1370705511811021
 20
-3.8168301181102362
 30
0
 11
6.1414364173228346
 21
-3.8124642519685037
 31
0
  0
LINE
  5
AB
330
22
100
AcDbEntity
  8
B.Mask
  6
CONTINUOUS
100
AcDbLine
 10
6.1414364173228346
 20
-3.8124642519685037
 30
0
 11
6.1465701968503934
 21
-3.8090339763779526
 31
0
  0
LINE
  5
AC
330
22
100
AcDbEntity
  8
B.Mask
  6
CONTINUOUS
100
AcDbLine
 10
6.1465701968503934
 20
-3.8090339763779526
 30
0
 11
6.1522744881889766
 21
-3.8066711811023621
 31
0
  0
LINE
  5
AD
330
22
100
AcDbEntity
  8
B.Mask
  6
CONTINUOUS
100
AcDbLine
 10
6.1522744881889766
 20
-3.8066711811023621
 30
0
 11
6.1583301574803144
 21
-3.8054666141732283
 31
0
  0
LINE
  5
AE
330
22
100
AcDbEntity
  8
B.Mask
  6
CONTINUOUS
100
AcDbLine
 10
6.1583301574803144
 20
-3.8054666141732283
 30
0
 11
6.1645044881889763
 21
-3.8054666141732283
 31
0
  0
LINE
  5
AF
330
22
100
AcDbEntity
  8
B.Mask
  6
CONTINUOUS
100
AcDbLine
 10
6.1645044881889763
 20
-3.8054666141732283
 30
0
 11
6.1705601574803151
 21
-3.8066711811023621
 31
0
  0
LINE
  5
B0
330
22
100
AcDbEntity
  8
B.Mask
  6
CONTINUOUS
100
AcDbLine
 10
5.663779527559055
 20
-3.3425196850393699
 30
0
 11
5.5929133858267717
 21
-3.3425196850393699
 31
0
  0
LINE
  5
B1
330
22
100
AcDbEntity
  8
B.Mask
  6
CONTINUOUS
100
AcDbLine
 10
5.5929133858267717
 20
-3.3425196850393699
 30
0
 11
5.5929133858267717
 21
-3.2716535433070866
 31
0
  0
LINE
  5
B2
330
22
100
AcDbEntity
  8
B.Mask
  6
CONTINUOUS
100
AcDbLine
 10
5.5929133858267717
 20
-3.2716535433070866
 30
0
 11
5.663779527559055
 21
-3.2716535433070866
 31
0
  0
LINE
  5
B3
330
22
100
AcDbEntity
  8
B.Mask
  6
CONTINUOUS
100
AcDbLine
 10
5.663779527559055
 20
-3.2716535433070866
 30
0
 11
5.663779527559055
 21
-3.3425196850393699
 31
0
  0
LINE
  5
B4
330
22
100
AcDbEntity
  8
B.Mask
  6
CONTINUOUS
100
AcDbLine
 10
6.1968503937007871
 20
-3.3425196850393699
 30
0
 11
6.1259842519685037
 21
-3.3425196850393699
 31
0
  0
LINE
  5
B5
330
22
100
AcDbEntity
  8
B.Mask
  6
CONTINUOUS
100
AcDbLine
 10
6.1259842519685037
 20
-3.3425196850393699
 30
0
 11
6.1259842519685037
 21
-3.2716535433070866
 31
0
  0
LINE
  5
B6
330
22
100
AcDbEntity
  8
B.Mask
  6
CONTINUOUS
100
AcDbLine
 10
6.1259842519685037
 20
-3.2716535433070866
 30
0
 11
6.1968503937007871
 21
-3.2716535433070866
 31
0
  0
LINE
  5
B7
330
22
100
AcDbEntity
  8
B.Mask
  6
CONTINUOUS
100
AcDbLine
 10
6.1968503937007871
 20
-3.2716535433070866
 30
0
 11
6.1968503937007871
 21
-3.3425196850393699
 31
0
  0
LINE
  5
B8
330
22
100
AcDbEntity
  8
B.Mask
  6
CONTINUOUS
100
AcDbLine
 10
5.7386321259842514
 20
-3.2731792913385824
 30
0
 11
5.7450494881889762
 21
-3.2758374409448816
 31
0
  0
LINE
  5
B9
330
22
100
AcDbEntity
  8
B.Mask
  6
CONTINUOUS
100
AcDbLine
 10
5.7450494881889762
 20
-3.2758374409448816
 30
0
 11
5.7508249606299211
 21
-3.279696496062992
 31
0
  0
LINE
  5
BA
330
22
100
AcDbEntity
  8
B.Mask
  6
CONTINUOUS
100
AcDbLine
 10
5.7508249606299211
 20
-3.279696496062992
 30
0
 11
5.7557365748031497
 21
-3.2846081102362206
 31
0
  0
LINE
  5
BB
330
22
100
AcDbEntity
  8
B.Mask
  6
CONTINUOUS
100
AcDbLine
 10
5.7557365748031497
 20
-3.2846081102362206
 30
0
 11
5.7595956299212601
 21
-3.2903835826771655
 31
0
  0
LINE
  5
BC
330
22
100
AcDbEntity
  8
B.Mask
  6
CONTINUOUS
100
AcDbLine
 10
5.7595956299212601
 20
-3.2903835826771655
 30
0
 11
5.7622537795275592
 21
-3.2968009448818898
 31
0
  0
LINE
  5
BD
330
22
100
AcDbEntity
  8
B.Mask
  6
CONTINUOUS
100
AcDbLine
 10
5.7622537795275592
 20
-3.2968009448818898
 30
0
 11
5.7636088976377948
 21
-3.3036135826771651
 31
0
  0
LINE
  5
BE
330
22
100
AcDbEntity
  8
B.Mask
  6
CONTINUOUS
100
AcDbLine
 10
5.7636088976377948
 20
-3.3036135826771651
 30
0
 11
5.7636088976377948
 21
-3.3105596456692914
 31
0
  0
LINE
  5
BF
330
22
100
AcDbEntity
  8
B.Mask
  6
CONTINUOUS
100
AcDbLine
 10
5.7636088976377948
 20
-3.3105596456692914
 30
0
 11
5.7622537795275592
 21
-3.3173722834645667
 31
0
  0
LINE
  5
C0
330
22
100
AcDbEntity
  8
B.Mask
  6
CONTINUOUS
100
AcDbLine
 10
5.7622537795275592
 20
-3.3173722834645667
 30
0
 11
5.7595956299212601
 21
-3.3237896456692915
 31
0
  0
LINE
  5
C1
330
22
100
AcDbEntity
  8
B.Mask
  6
CONTINUOUS
100
AcDbLine
 10
5.7595956299212601
 20
-3.3237896456692915
 30
0
 11
5.7557365748031497
 21
-3.3295651181102364
 31
0
  0
LINE
  5
C2
330
22
100
AcDbEntity
  8
B.Mask
  6
CONTINUOUS
100
AcDbLine
 10
5.7557365748031497
 20
-3.3295651181102364
 30
0
 11
5.7508249606299211
 21
-3.3344767322834645
 31
0
  0
LINE
  5
C3
330
22
100
AcDbEntity
  8
B.Mask
  6
CONTINUOUS
100
AcDbLine
 10
5.7508249606299211
 20
-3.3344767322834645
 30
0
 11
5.7450494881889762
 21
-3.3383357874015749
 31
0
  0
LINE
  5
C4
330
22
100
AcDbEntity
  8
B.Mask
  6
CONTINUOUS
100
AcDbLine
 10
5.7450494881889762
 20
-3.3383357874015749
 30
0
 11
5.7386321259842514
 21
-3.3409939370078741
 31
0
  0
LINE
  5
C5
330
22
100
AcDbEntity
  8
B.Mask
  6
CONTINUOUS
100
AcDbLine
 10
5.7386321259842514
 20
-3.3409939370078741
 30
0
 11
5.7318194881889761
 21
-3.3423490551181101
 31
0
  0
LINE
  5
C6
330
22
100
AcDbEntity
  8
B.Mask
  6
CONTINUOUS
100
AcDbLine
 10
5.7318194881889761
 20
-3.3423490551181101
 30
0
 11
5.7248734251968498
 21
-3.3423490551181101
 31
0
  0
LINE
  5
C7
330
22
100
AcDbEntity
  8
B.Mask
  6
CONTINUOUS
100
AcDbLine
 10
5.7248734251968498
 20
-3.3423490551181101
 30
0
 11
5.7180607874015745
 21
-3.3409939370078741
 31
0
  0
LINE
  5
C8
330
22
100
AcDbEntity
  8
B.Mask
  6
CONTINUOUS
100
AcDbLine
 10
5.7180607874015745
 20
-3.3409939370078741
 30
0
 11
5.7116434251968506
 21
-3.3383357874015749
 31
0
  0
LINE
  5
C9
330
22
100
AcDbEntity
  8
B.Mask
  6
CONTINUOUS
100
AcDbLine
 10
5.7116434251968506
 20
-3.3383357874015749
 30
0
 11
5.7058679527559057
 21
-3.3344767322834645
 31
0
  0
LINE
  5
CA
330
22
100
AcDbEntity
  8
B.Mask
  6
CONTINUOUS
100
AcDbLine
 10
5.7058679527559057
 20
-3.3344767322834645
 30
0
 11
5.7009563385826771
 21
-3.3295651181102364
 31
0
  0
LINE
  5
CB
330
22
100
AcDbEntity
  8
B.Mask
  6
CONTINUOUS
100
AcDbLine
 10
5.7009563385826771
 20
-3.3295651181102364
 30
0
 11
5.6970972834645668
 21
-3.3237896456692915
 31
0
  0
LINE
  5
CC
330
22
100
AcDbEntity
  8
B.Mask
  6
CONTINUOUS
100
AcDbLine
 10
5.6970972834645668
 20
-3.3237896456692915
 30
0
 11
5.6944391338582676
 21
-3.3173722834645667
 31
0
  0
LINE
  5
CD
330
22
100
AcDbEntity
  8
B.Mask
  6
CONTINUOUS
100
AcDbLine
 10
5.6944391338582676
 20
-3.3173722834645667
 30
0
 11
5.6930840157480311
 21
-3.3105596456692914
 31
0
  0
LINE
  5
CE
330
22
100
AcDbEntity
  8
B.Mask
  6
CONTINUOUS
100
AcDbLine
 10
5.6930840157480311
 20
-3.3105596456692914
 30
0
 11
5.6930840157480311
 21
-3.3036135826771651
 31
0
  0
LINE
  5
CF
330
22
100
AcDbEntity
  8
B.Mask
  6
CONTINUOUS
100
AcDbLine
 10
5.6930840157480311
 20
-3.3036135826771651
 30
0
 11
5.6944391338582676
 21
-3.2968009448818898
 31
0
  0
LINE
  5
D0
330
22
100
AcDbEntity
  8
B.Mask
  6
CONTINUOUS
100
AcDbLine
 10
5.6944391338582676
 20
-3.2968009448818898
 30
0
 11
5.6970972834645668
 21
-3.2903835826771655
 31
0
  0
LINE
  5
D1
330
22
100
AcDbEntity
  8
B.Mask
  6
CONTINUOUS
100
AcDbLine
 10
5.6970972834645668
 20
-3.2903835826771655
 30
0
 11
5.7009563385826771
 21
-3.2846081102362206
 31
0
  0
LINE
  5
D2
330
22
100
AcDbEntity
  8
B.Mask
  6
CONTINUOUS
100
AcDbLine
 10
5.7009563385826771
 20
-3.2846081102362206
 30
0
 11
5.7058679527559057
 21
-3.279696496062992
 31
0
  0
LINE
  5
D3
330
22
100
AcDbEntity
  8
B.Mask
  6
CONTINUOUS
100
AcDbLine
 10
5.7058679527559057
 20
-3.279696496062992
 30
0
 11
5.7116434251968506
 21
-3.2758374409448816
 31
0
  0
LINE
  5
D4
330
22
100
AcDbEntity
  8
B.Mask
  6
CONTINUOUS
100
AcDbLine
 10
5.7116434251968506
 20
-3.2758374409448816
 30
0
 11
5.7180607874015745
 21
-3.2731792913385824
 31
0
  0
LINE
  5
D5
330
22
100
AcDbEntity
  8
B.Mask
  6
CONTINUOUS
100
AcDbLine
 10
5.7180607874015745
 20
-3.2731792913385824
 30
0
 11
5.7248734251968498
 21
-3.2718241732283464
 31
0
  0
LINE
  5
D6
330
22
100
AcDbEntity
  8
B.Mask
  6
CONTINUOUS
100
AcDbLine
 10
5.7248734251968498
 20
-3.2718241732283464
 30
0
 11
5.7318194881889761
 21
-3.2718241732283464
 31
0
  0
LINE
  5
D7
330
22
100
AcDbEntity
  8
B.Mask
  6
CONTINUOUS
100
AcDbLine
 10
5.7318194881889761
 20
-3.2718241732283464
 30
0
 11
5.7386321259842514
 21
-3.2731792913385824
 31
0
  0
LINE
  5
D8
330
22
100
AcDbEntity
  8
B.Mask
  6
CONTINUOUS
100
AcDbLine
 10
6.2717029921259844
 20
-3.2731792913385824
 30
0
 11
6.2781203543307083
 21
-3.2758374409448816
 31
0
  0
LINE
  5
D9
330
22
100
AcDbEntity
  8
B.Mask
  6
CONTINUOUS
100
AcDbLine
 10
6.2781203543307083
 20
-3.2758374409448816
 30
0
 11
6.2838958267716531
 21
-3.279696496062992
 31
0
  0
LINE
  5
DA
330
22
100
AcDbEntity
  8
B.Mask
  6
CONTINUOUS
100
AcDbLine
 10
6.2838958267716531
 20
-3.279696496062992
 30
0
 11
6.2888074409448818
 21
-3.2846081102362206
 31
0
  0
LINE
  5
DB
330
22
100
AcDbEntity
  8
B.Mask
  6
CONTINUOUS
100
AcDbLine
 10
6.2888074409448818
 20
-3.2846081102362206
 30
0
 11
6.2926664960629921
 21
-3.2903835826771655
 31
0
  0
LINE
  5
DC
330
22
100
AcDbEntity
  8
B.Mask
  6
CONTINUOUS
100
AcDbLine
 10
6.2926664960629921
 20
-3.2903835826771655
 30
0
 11
6.2953246456692913
 21
-3.2968009448818898
 31
0
  0
LINE
  5
DD
330
22
100
AcDbEntity
  8
B.Mask
  6
CONTINUOUS
100
AcDbLine
 10
6.2953246456692913
 20
-3.2968009448818898
 30
0
 11
6.2966797637795278
 21
-3.3036135826771651
 31
0
  0
LINE
  5
DE
330
22
100
AcDbEntity
  8
B.Mask
  6
CONTINUOUS
100
AcDbLine
 10
6.2966797637795278
 20
-3.3036135826771651
 30
0
 11
6.2966797637795278
 21
-3.3105596456692914
 31
0
  0
LINE
  5
DF
330
22
100
AcDbEntity
  8
B.Mask
  6
CONTINUOUS
100
AcDbLine
 10
6.2966797637795278
 20
-3.3105596456692914
 30
0
 11
6.2953246456692913
 21
-3.3173722834645667
 31
0
  0
LINE
  5
E0
330
22
100
AcDbEntity
  8
B.Mask
  6
CONTINUOUS
100
AcDbLine
 10
6.2953246456692913
 20
-3.3173722834645667
 30
0
 11
6.2926664960629921
 21
-3.3237896456692915
 31
0
  0
LINE
  5
E1
330
22
100
AcDbEntity
  8
B.Mask
  6
CONTINUOUS
100
AcDbLine
 10
6.2926664960629921
 20
-3.3237896456692915
 30
0
 11
6.2888074409448818
 21
-3.3295651181102364
 31
0
  0
LINE
  5
E2
330
22
100
AcDbEntity
  8
B.Mask
  6
CONTINUOUS
100
AcDbLine
 10
6.2888074409448818
 20
-3.3295651181102364
 30
0
 11
6.2838958267716531
 21
-3.3344767322834645
 31
0
  0
LINE
  5
E3
330
22
100
AcDbEntity
  8
B.Mask
  6
CONTINUOUS
100
AcDbLine
 10
6.2838958267716531
 20
-3.3344767322834645
 30
0
 11
6.2781203543307083
 21
-3.3383357874015749
 31
0
  0
LINE
  5
E4
330
22
100
AcDbEntity
  8
B.Mask
  6
CONTINUOUS
100
AcDbLine
 10
6.2781203543307083
 20
-3.3383357874015749
 30
0
 11
6.2717029921259844
 21
-3.3409939370078741
 31
0
  0
LINE
  5
E5
330
22
100
AcDbEntity
  8
B.Mask
  6
CONTINUOUS
100
AcDbLine
 10
6.2717029921259844
 20
-3.3409939370078741
 30
0
 11
6.2648903543307082
 21
-3.3423490551181101
 31
0
  0
LINE
  5
E6
330
22
100
AcDbEntity
  8
B.Mask
  6
CONTINUOUS
100
AcDbLine
 10
6.2648903543307082
 20
-3.3423490551181101
 30
0
 11
6.2579442913385828
 21
-3.3423490551181101
 31
0
  0
LINE
  5
E7
330
22
100
AcDbEntity
  8
B.Mask
  6
CONTINUOUS
100
AcDbLine
 10
6.2579442913385828
 20
-3.3423490551181101
 30
0
 11
6.2511316535433066
 21
-3.3409939370078741
 31
0
  0
LINE
  5
E8
330
22
100
AcDbEntity
  8
B.Mask
  6
CONTINUOUS
100
AcDbLine
 10
6.2511316535433066
 20
-3.3409939370078741
 30
0
 11
6.2447142913385827
 21
-3.3383357874015749
 31
0
  0
LINE
  5
E9
330
22
100
AcDbEntity
  8
B.Mask
  6
CONTINUOUS
100
AcDbLine
 10
6.2447142913385827
 20
-3.3383357874015749
 30
0
 11
6.2389388188976378
 21
-3.3344767322834645
 31
0
  0
LINE
  5
EA
330
22
100
AcDbEntity
  8
B.Mask
  6
CONTINUOUS
100
AcDbLine
 10
6.2389388188976378
 20
-3.3344767322834645
 30
0
 11
6.2340272047244092
 21
-3.3295651181102364
 31
0
  0
LINE
  5
EB
330
22
100
AcDbEntity
  8
B.Mask
  6
CONTINUOUS
100
AcDbLine
 10
6.2340272047244092
 20
-3.3295651181102364
 30
0
 11
6.2301681496062988
 21
-3.3237896456692915
 31
0
  0
LINE
  5
EC
330
22
100
AcDbEntity
  8
B.Mask
  6
CONTINUOUS
100
AcDbLine
 10
6.2301681496062988
 20
-3.3237896456692915
 30
0
 11
6.2275099999999997
 21
-3.3173722834645667
 31
0
  0
LINE
  5
ED
330
22
100
AcDbEntity
  8
B.Mask
  6
CONTINUOUS
100
AcDbLine
 10
6.2275099999999997
 20
-3.3173722834645667
 30
0
 11
6.2261548818897641
 21
-3.3105596456692914
 31
0
  0
LINE
  5
EE
330
22
100
AcDbEntity
  8
B.Mask
  6
CONTINUOUS
100
AcDbLine
 10
6.2261548818897641
 20
-3.3105596456692914
 30
0
 11
6.2261548818897641
 21
-3.3036135826771651
 31
0
  0
LINE
  5
EF
330
22
100
AcDbEntity
  8
B.Mask
  6
CONTINUOUS
100
AcDbLine
 10
6.2261548818897641
 20
-3.3036135826771651
 30
0
 11
6.2275099999999997
 21
-3.2968009448818898
 31
0
  0
LINE
  5
F0
330
22
100
AcDbEntity
  8
B.Mask
  6
CONTINUOUS
100
AcDbLine
 10
6.2275099999999997
 20
-3.2968009448818898
 30
0
 11
6.2301681496062988
 21
-3.2903835826771655
 31
0
  0
LINE
  5
F1
330
22
100
AcDbEntity
  8
B.Mask
  6
CONTINUOUS
100
AcDbLine
 10
6.2301681496062988
 20
-3.2903835826771655
 30
0
 11
6.2340272047244092
 21
-3.2846081102362206
 31
0
  0
LINE
  5
F2
330
22
100
AcDbEntity
  8
B.Mask
  6
CONTINUOUS
100
AcDbLine
 10
6.2340272047244092
 20
-3.2846081102362206
 30
0
 11
6.2389388188976378
 21
-3.279696496062992
 31
0
  0
LINE
  5
F3
330
22
100
AcDbEntity
  8
B.Mask
  6
CONTINUOUS
100
AcDbLine
 10
6.2389388188976378
 20
-3.279696496062992
 30
0
 11
6.2447142913385827
 21
-3.2758374409448816
 31
0
  0
LINE
  5
F4
330
22
100
AcDbEntity
  8
B.Mask
  6
CONTINUOUS
100
AcDbLine
 10
6.2447142913385827
 20
-3.2758374409448816
 30
0
 11
6.2511316535433066
 21
-3.2731792913385824
 31
0
  0
LINE
  5
F5
330
22
100
AcDbEntity
  8
B.Mask
  6
CONTINUOUS
100
AcDbLine
 10
6.2511316535433066
 20
-3.2731792913385824
 30
0
 11
6.2579442913385828
 21
-3.2718241732283464
 31
0
  0
LINE
  5
F6
330
22
100
AcDbEntity
  8
B.Mask
  6
CONTINUOUS
100
AcDbLine
 10
6.2579442913385828
 20
-3.2718241732283464
 30
0
 11
6.2648903543307082
 21
-3.2718241732283464
 31
0
  0
LINE
  5
F7
330
22
100
AcDbEntity
  8
B.Mask
  6
CONTINUOUS
100
AcDbLine
 10
6.2648903543307082
 20
-3.2718241732283464
 30
0
 11
6.2717029921259844
 21
-3.2731792913385824
 31
0
  0
LINE
  5
F8
330
22
100
AcDbEntity
  8
B.Mask
  6
CONTINUOUS
100
AcDbLine
 10
5.1868796062992129
 20
-3.2553779921259842
 30
0
 11
5.1929404330708664
 21
-3.2578884645669293
 31
0
  0
LINE
  5
F9
330
22
100
AcDbEntity
  8
B.Mask
  6
CONTINUOUS
100
AcDbLine
 10
5.1929404330708664
 20
-3.2578884645669293
 30
0
 11
5.1983950393700784
 21
-3.2615331102362206
 31
0
  0
LINE
  5
FA
330
22
100
AcDbEntity
  8
B.Mask
  6
CONTINUOUS
100
AcDbLine
 10
5.1983950393700784
 20
-3.2615331102362206
 30
0
 11
5.2030338188976373
 21
-3.2661718897637795
 31
0
  0
LINE
  5
FB
330
22
100
AcDbEntity
  8
B.Mask
  6
CONTINUOUS
100
AcDbLine
 10
5.2030338188976373
 20
-3.2661718897637795
 30
0
 11
5.2066784645669291
 21
-3.2716264960629919
 31
0
  0
LINE
  5
FC
330
22
100
AcDbEntity
  8
B.Mask
  6
CONTINUOUS
100
AcDbLine
 10
5.2066784645669291
 20
-3.2716264960629919
 30
0
 11
5.2091889370078741
 21
-3.2776873228346455
 31
0
  0
LINE
  5
FD
330
22
100
AcDbEntity
  8
B.Mask
  6
CONTINUOUS
100
AcDbLine
 10
5.2091889370078741
 20
-3.2776873228346455
 30
0
 11
5.2104687795275586
 21
-3.2841214566929131
 31
0
  0
LINE
  5
FE
330
22
100
AcDbEntity
  8
B.Mask
  6
CONTINUOUS
100
AcDbLine
 10
5.2104687795275586
 20
-3.2841214566929131
 30
0
 11
5.2104687795275586
 21
-3.290681692913386
 31
0
  0
LINE
  5
FF
330
22
100
AcDbEntity
  8
B.Mask
  6
CONTINUOUS
100
AcDbLine
 10
5.2104687795275586
 20
-3.290681692913386
 30
0
 11
5.2091889370078741
 21
-3.2971158267716536
 31
0
  0
LINE
  5
100
330
22
100
AcDbEntity
  8
B.Mask
  6
CONTINUOUS
100
AcDbLine
 10
5.2091889370078741
 20
-3.2971158267716536
 30
0
 11
5.2066784645669291
 21
-3.3031766535433071
 31
0
  0
LINE
  5
101
330
22
100
AcDbEntity
  8
B.Mask
  6
CONTINUOUS
100
AcDbLine
 10
5.2066784645669291
 20
-3.3031766535433071
 30
0
 11
5.2030338188976373
 21
-3.3086312598425196
 31
0
  0
LINE
  5
102
330
22
100
AcDbEntity
  8
B.Mask
  6
CONTINUOUS
100
AcDbLine
 10
5.2030338188976373
 20
-3.3086312598425196
 30
0
 11
5.1983950393700784
 21
-3.3132700393700785
 31
0
  0
LINE
  5
103
330
22
100
AcDbEntity
  8
B.Mask
  6
CONTINUOUS
100
AcDbLine
 10
5.1983950393700784
 20
-3.3132700393700785
 30
0
 11
5.1929404330708664
 21
-3.3169146850393698
 31
0
  0
LINE
  5
104
330
22
100
AcDbEntity
  8
B.Mask
  6
CONTINUOUS
100
AcDbLine
 10
5.1929404330708664
 20
-3.3169146850393698
 30
0
 11
5.1868796062992129
 21
-3.3194251574803149
 31
0
  0
LINE
  5
105
330
22
100
AcDbEntity
  8
B.Mask
  6
CONTINUOUS
100
AcDbLine
 10
5.1868796062992129
 20
-3.3194251574803149
 30
0
 11
5.1804454724409448
 21
-3.3207049999999998
 31
0
  0
LINE
  5
106
330
22
100
AcDbEntity
  8
B.Mask
  6
CONTINUOUS
100
AcDbLine
 10
5.1804454724409448
 20
-3.3207049999999998
 30
0
 11
5.1738852362204719
 21
-3.3207049999999998
 31
0
  0
LINE
  5
107
330
22
100
AcDbEntity
  8
B.Mask
  6
CONTINUOUS
100
AcDbLine
 10
5.1738852362204719
 20
-3.3207049999999998
 30
0
 11
5.1674511023622047
 21
-3.3194251574803149
 31
0
  0
LINE
  5
108
330
22
100
AcDbEntity
  8
B.Mask
  6
CONTINUOUS
100
AcDbLine
 10
5.1674511023622047
 20
-3.3194251574803149
 30
0
 11
5.1613902755905512
 21
-3.3169146850393698
 31
0
  0
LINE
  5
109
330
22
100
AcDbEntity
  8
B.Mask
  6
CONTINUOUS
100
AcDbLine
 10
5.1613902755905512
 20
-3.3169146850393698
 30
0
 11
5.1559356692913383
 21
-3.3132700393700785
 31
0
  0
LINE
  5
10A
330
22
100
AcDbEntity
  8
B.Mask
  6
CONTINUOUS
100
AcDbLine
 10
5.1559356692913383
 20
-3.3132700393700785
 30
0
 11
5.1512968897637794
 21
-3.3086312598425196
 31
0
  0
LINE
  5
10B
330
22
100
AcDbEntity
  8
B.Mask
  6
CONTINUOUS
100
AcDbLine
 10
5.1512968897637794
 20
-3.3086312598425196
 30
0
 11
5.1476522440944876
 21
-3.3031766535433071
 31
0
  0
LINE
  5
10C
330
22
100
AcDbEntity
  8
B.Mask
  6
CONTINUOUS
100
AcDbLine
 10
5.1476522440944876
 20
-3.3031766535433071
 30
0
 11
5.1451417716535435
 21
-3.2971158267716536
 31
0
  0
LINE
  5
10D
330
22
100
AcDbEntity
  8
B.Mask
  6
CONTINUOUS
100
AcDbLine
 10
5.1451417716535435
 20
-3.2971158267716536
 30
0
 11
5.1438619291338581
 21
-3.290681692913386
 31
0
  0
LINE
  5
10E
330
22
100
AcDbEntity
  8
B.Mask
  6
CONTINUOUS
100
AcDbLine
 10
5.1438619291338581
 20
-3.290681692913386
 30
0
 11
5.1438619291338581
 21
-3.2841214566929131
 31
0
  0
LINE
  5
10F
330
22
100
AcDbEntity
  8
B.Mask
  6
CONTINUOUS
100
AcDbLine
 10
5.1438619291338581
 20
-3.2841214566929131
 30
0
 11
5.1451417716535435
 21
-3.2776873228346455
 31
0
  0
LINE
  5
110
330
22
100
AcDbEntity
  8
B.Mask
  6
CONTINUOUS
100
AcDbLine
 10
5.1451417716535435
 20
-3.2776873228346455
 30
0
 11
5.1476522440944876
 21
-3.2716264960629919
 31
0
  0
LINE
  5
111
330
22
100
AcDbEntity
  8
B.Mask
  6
CONTINUOUS
100
AcDbLine
 10
5.1476522440944876
 20
-3.2716264960629919
 30
0
 11
5.1512968897637794
 21
-3.2661718897637795
 31
0
  0
LINE
  5
112
330
22
100
AcDbEntity
  8
B.Mask
  6
CONTINUOUS
100
AcDbLine
 10
5.1512968897637794
 20
-3.2661718897637795
 30
0
 11
5.1559356692913383
 21
-3.2615331102362206
 31
0
  0
LINE
  5
113
330
22
100
AcDbEntity
  8
B.Mask
  6
CONTINUOUS
100
AcDbLine
 10
5.1559356692913383
 20
-3.2615331102362206
 30
0
 11
5.1613902755905512
 21
-3.2578884645669293
 31
0
  0
LINE
  5
114
330
22
100
AcDbEntity
  8
B.Mask
  6
CONTINUOUS
100
AcDbLine
 10
5.1613902755905512
 20
-3.2578884645669293
 30
0
 11
5.1674511023622047
 21
-3.2553779921259842
 31
0
  0
LINE
  5
115
330
22
100
AcDbEntity
  8
B.Mask
  6
CONTINUOUS
100
AcDbLine
 10
5.1674511023622047
 20
-3.2553779921259842
 30
0
 11
5.1738852362204719
 21
-3.2540981496062993
 31
0
  0
LINE
  5
116
330
22
100
AcDbEntity
  8
B.Mask
  6
CONTINUOUS
100
AcDbLine
 10
5.1738852362204719
 20
-3.2540981496062993
 30
0
 11
5.1804454724409448
 21
-3.2540981496062993
 31
0
  0
LINE
  5
117
330
22
100
AcDbEntity
  8
B.Mask
  6
CONTINUOUS
100
AcDbLine
 10
5.1804454724409448
 20
-3.2540981496062993
 30
0
 11
5.1868796062992129
 21
-3.2553779921259842
 31
0
  0
LINE
  5
118
330
22
100
AcDbEntity
  8
B.Mask
  6
CONTINUOUS
100
AcDbLine
 10
5.2106299212598426
 20
-3.2208661417322832
 30
0
 11
5.143700787401575
 21
-3.2208661417322832
 31
0
  0
LINE
  5
119
330
22
100
AcDbEntity
  8
B.Mask
  6
CONTINUOUS
100
AcDbLine
 10
5.143700787401575
 20
-3.2208661417322832
 30
0
 11
5.143700787401575
 21
-3.1539370078740157
 31
0
  0
LINE
  5
11A
330
22
100
AcDbEntity
  8
B.Mask
  6
CONTINUOUS
100
AcDbLine
 10
5.143700787401575
 20
-3.1539370078740157
 30
0
 11
5.2106299212598426
 21
-3.1539370078740157
 31
0
  0
LINE
  5
11B
330
22
100
AcDbEntity
  8
B.Mask
  6
CONTINUOUS
100
AcDbLine
 10
5.2106299212598426
 20
-3.1539370078740157
 30
0
 11
5.2106299212598426
 21
-3.2208661417322832
 31
0
  0
ENDSEC
  0
SECTION
  2
OBJECTS
  0
DICTIONARY
  5
28
330
0
100
AcDbDictionary
281
1
  3
ACAD_GROUP
350
11C
  3
ACAD_LAYOUT
350
29
  3
ACAD_PLOTSTYLENAME
350
11
  0
DICTIONARY
  5
11C
330
28
100
AcDbDictionary
281
1
  0
ACDBDICTIONARYWDFLT
  5
11
330
28
100
AcDbDictionary
281
1
  3
Normal
350
10
100
AcDbDictionaryWithDefault
340
10
  0
ACDBPLACEHOLDER
  5
10
330
11
  0
DICTIONARY
  5
29
330
28
100
AcDbDictionary
281
1
  3
Model
350
25
  3
Layout1
350
26
  3
Layout2
350
27
  0
LAYOUT
  5
25
330
29
100
AcDbPlotSettings
  1

  2
none_device
  4
A3
  6

 40
0.0
 41
0.0
 42
0.0
 43
0.0
 44
420.0
 45
297.0
 46
0.0
 47
0.0
 48
0.0
 49
0.0
140
0.0
141
0.0
142
1.0
143
1.0
 70
1024
 72
1
 73
0
 74
5
  7

 75
16
 76
0
 77
2
 78
300
147
1.0
148
0.0
149
0.0
100
AcDbLayout
  1
Model
 70
1
 71
0
 10
0.0
 20
0.0
 11
420.0
 21
297.0
 12
0.0
 22
0.0
 32
0.0
 14
1e+20
 24
1e+20
 34
1e+20
 15
-1e+20
 25
-1e+20
 35
-1e+20
146
0.0
 13
0.0
 23
0.0
 33
0.0
 16
1.0
 26
0.0
 36
0.0
 17
0.0
 27
1.0
 37
0.0
 76
0
330
22
  0
LAYOUT
  5
26
330
29
100
AcDbPlotSettings
  1

  2
none_device
  4
A3
  6

 40
0.0
 41
0.0
 42
0.0
 43
0.0
 44
420.0
 45
297.0
 46
0.0
 47
0.0
 48
0.0
 49
0.0
140
0.0
141
0.0
142
1.0
143
1.0
 70
0
 72
1
 73
0
 74
5
  7

 75
16
 76
0
 77
2
 78
300
147
1.0
148
0.0
149
0.0
100
AcDbLayout
  1
Layout1
 70
1
 71
1
 10
0.0
 20
0.0
 11
420.0
 21
297.0
 12
0.0
 22
0.0
 32
0.0
 14
1e+20
 24
1e+20
 34
1e+20
 15
-1e+20
 25
-1e+20
 35
-1e+20
146
0.0
 13
0.0
 23
0.0
 33
0.0
 16
1.0
 26
0.0
 36
0.0
 17
0.0
 27
1.0
 37
0.0
 76
0
330
23
  0
LAYOUT
  5
27
330
29
100
AcDbPlotSettings
  1

  2
none_device
  4
A3
  6

 40
0.0
 41
0.0
 42
0.0
 43
0.0
 44
420.0
 45
297.0
 46
0.0
 47
0.0
 48
0.0
 49
0.0
140
0.0
141
0.0
142
1.0
143
1.0
 70
0
 72
1
 73
0
 74
5
  7

 75
16
 76
0
 77
2
 78
300
147
1.0
148
0.0
149
0.0
100
AcDbLayout
  1
Layout2
 70
1
 71
2
 10
0.0
 20
0.0
 11
420.0
 21
297.0
 12
0.0
 22
0.0
 32
0.0
 14
1e+20
 24
1e+20
 34
1e+20
 15
-1e+20
 25
-1e+20
 35
-1e+20
146
0.0
 13
0.0
 23
0.0
 33
0.0
 16
1.0
 26
0.0
 36
0.0
 17
0.0
 27
1.0
 37
0.0
 76
0
330
24
  0
ENDSEC
  0
EOF
